<?xml version="1.0" encoding="utf-8" standalone="no"?>
<!DOCTYPE svg PUBLIC "-//W3C//DTD SVG 1.1//EN"
  "http://www.w3.org/Graphics/SVG/1.1/DTD/svg11.dtd">
<svg xmlns:xlink="http://www.w3.org/1999/xlink" width="460.8pt" height="345.6pt" viewBox="0 0 460.8 345.6" xmlns="http://www.w3.org/2000/svg" version="1.1">
 <metadata>
  <rdf:RDF xmlns:dc="http://purl.org/dc/elements/1.1/" xmlns:cc="http://creativecommons.org/ns#" xmlns:rdf="http://www.w3.org/1999/02/22-rdf-syntax-ns#">
   <cc:Work>
    <dc:type rdf:resource="http://purl.org/dc/dcmitype/StillImage"/>
    <dc:date>2024-10-01T22:25:03.290298</dc:date>
    <dc:format>image/svg+xml</dc:format>
    <dc:creator>
     <cc:Agent>
      <dc:title>Matplotlib v3.9.2, https://matplotlib.org/</dc:title>
     </cc:Agent>
    </dc:creator>
   </cc:Work>
  </rdf:RDF>
 </metadata>
 <defs>
  <style type="text/css">*{stroke-linejoin: round; stroke-linecap: butt}</style>
 </defs>
 <g id="figure_1">
  <g id="patch_1">
   <path d="M 0 345.6 
L 460.8 345.6 
L 460.8 0 
L 0 0 
z
" style="fill: #ffffff"/>
  </g>
  <g id="axes_1">
   <g id="patch_2">
    <path d="M 57.6 307.584 
L 414.72 307.584 
L 414.72 41.472 
L 57.6 41.472 
z
" style="fill: #eaeaf2"/>
   </g>
   <g id="matplotlib.axis_1">
    <g id="xtick_1">
     <g id="line2d_1">
      <path d="M 73.90478 307.584 
L 73.90478 41.472 
" clip-path="url(#pbae486923d)" style="fill: none; stroke: #ffffff; stroke-width: 0.8; stroke-linecap: round"/>
     </g>
     <g id="text_1">
      <!-- 350 -->
      <g style="fill: #262626" transform="translate(64.36103 322.182437) scale(0.1 -0.1)">
       <defs>
        <path id="DejaVuSans-33" d="M 2597 2516 
Q 3050 2419 3304 2112 
Q 3559 1806 3559 1356 
Q 3559 666 3084 287 
Q 2609 -91 1734 -91 
Q 1441 -91 1130 -33 
Q 819 25 488 141 
L 488 750 
Q 750 597 1062 519 
Q 1375 441 1716 441 
Q 2309 441 2620 675 
Q 2931 909 2931 1356 
Q 2931 1769 2642 2001 
Q 2353 2234 1838 2234 
L 1294 2234 
L 1294 2753 
L 1863 2753 
Q 2328 2753 2575 2939 
Q 2822 3125 2822 3475 
Q 2822 3834 2567 4026 
Q 2313 4219 1838 4219 
Q 1578 4219 1281 4162 
Q 984 4106 628 3988 
L 628 4550 
Q 988 4650 1302 4700 
Q 1616 4750 1894 4750 
Q 2613 4750 3031 4423 
Q 3450 4097 3450 3541 
Q 3450 3153 3228 2886 
Q 3006 2619 2597 2516 
z
" transform="scale(0.015625)"/>
        <path id="DejaVuSans-35" d="M 691 4666 
L 3169 4666 
L 3169 4134 
L 1269 4134 
L 1269 2991 
Q 1406 3038 1543 3061 
Q 1681 3084 1819 3084 
Q 2600 3084 3056 2656 
Q 3513 2228 3513 1497 
Q 3513 744 3044 326 
Q 2575 -91 1722 -91 
Q 1428 -91 1123 -41 
Q 819 9 494 109 
L 494 744 
Q 775 591 1075 516 
Q 1375 441 1709 441 
Q 2250 441 2565 725 
Q 2881 1009 2881 1497 
Q 2881 1984 2565 2268 
Q 2250 2553 1709 2553 
Q 1456 2553 1204 2497 
Q 953 2441 691 2322 
L 691 4666 
z
" transform="scale(0.015625)"/>
        <path id="DejaVuSans-30" d="M 2034 4250 
Q 1547 4250 1301 3770 
Q 1056 3291 1056 2328 
Q 1056 1369 1301 889 
Q 1547 409 2034 409 
Q 2525 409 2770 889 
Q 3016 1369 3016 2328 
Q 3016 3291 2770 3770 
Q 2525 4250 2034 4250 
z
M 2034 4750 
Q 2819 4750 3233 4129 
Q 3647 3509 3647 2328 
Q 3647 1150 3233 529 
Q 2819 -91 2034 -91 
Q 1250 -91 836 529 
Q 422 1150 422 2328 
Q 422 3509 836 4129 
Q 1250 4750 2034 4750 
z
" transform="scale(0.015625)"/>
       </defs>
       <use xlink:href="#DejaVuSans-33"/>
       <use xlink:href="#DejaVuSans-35" x="63.623047"/>
       <use xlink:href="#DejaVuSans-30" x="127.246094"/>
      </g>
     </g>
    </g>
    <g id="xtick_2">
     <g id="line2d_2">
      <path d="M 139.090152 307.584 
L 139.090152 41.472 
" clip-path="url(#pbae486923d)" style="fill: none; stroke: #ffffff; stroke-width: 0.8; stroke-linecap: round"/>
     </g>
     <g id="text_2">
      <!-- 400 -->
      <g style="fill: #262626" transform="translate(129.546402 322.182437) scale(0.1 -0.1)">
       <defs>
        <path id="DejaVuSans-34" d="M 2419 4116 
L 825 1625 
L 2419 1625 
L 2419 4116 
z
M 2253 4666 
L 3047 4666 
L 3047 1625 
L 3713 1625 
L 3713 1100 
L 3047 1100 
L 3047 0 
L 2419 0 
L 2419 1100 
L 313 1100 
L 313 1709 
L 2253 4666 
z
" transform="scale(0.015625)"/>
       </defs>
       <use xlink:href="#DejaVuSans-34"/>
       <use xlink:href="#DejaVuSans-30" x="63.623047"/>
       <use xlink:href="#DejaVuSans-30" x="127.246094"/>
      </g>
     </g>
    </g>
    <g id="xtick_3">
     <g id="line2d_3">
      <path d="M 204.275524 307.584 
L 204.275524 41.472 
" clip-path="url(#pbae486923d)" style="fill: none; stroke: #ffffff; stroke-width: 0.8; stroke-linecap: round"/>
     </g>
     <g id="text_3">
      <!-- 450 -->
      <g style="fill: #262626" transform="translate(194.731774 322.182437) scale(0.1 -0.1)">
       <use xlink:href="#DejaVuSans-34"/>
       <use xlink:href="#DejaVuSans-35" x="63.623047"/>
       <use xlink:href="#DejaVuSans-30" x="127.246094"/>
      </g>
     </g>
    </g>
    <g id="xtick_4">
     <g id="line2d_4">
      <path d="M 269.460897 307.584 
L 269.460897 41.472 
" clip-path="url(#pbae486923d)" style="fill: none; stroke: #ffffff; stroke-width: 0.8; stroke-linecap: round"/>
     </g>
     <g id="text_4">
      <!-- 500 -->
      <g style="fill: #262626" transform="translate(259.917147 322.182437) scale(0.1 -0.1)">
       <use xlink:href="#DejaVuSans-35"/>
       <use xlink:href="#DejaVuSans-30" x="63.623047"/>
       <use xlink:href="#DejaVuSans-30" x="127.246094"/>
      </g>
     </g>
    </g>
    <g id="xtick_5">
     <g id="line2d_5">
      <path d="M 334.646269 307.584 
L 334.646269 41.472 
" clip-path="url(#pbae486923d)" style="fill: none; stroke: #ffffff; stroke-width: 0.8; stroke-linecap: round"/>
     </g>
     <g id="text_5">
      <!-- 550 -->
      <g style="fill: #262626" transform="translate(325.102519 322.182437) scale(0.1 -0.1)">
       <use xlink:href="#DejaVuSans-35"/>
       <use xlink:href="#DejaVuSans-35" x="63.623047"/>
       <use xlink:href="#DejaVuSans-30" x="127.246094"/>
      </g>
     </g>
    </g>
    <g id="xtick_6">
     <g id="line2d_6">
      <path d="M 399.831642 307.584 
L 399.831642 41.472 
" clip-path="url(#pbae486923d)" style="fill: none; stroke: #ffffff; stroke-width: 0.8; stroke-linecap: round"/>
     </g>
     <g id="text_6">
      <!-- 600 -->
      <g style="fill: #262626" transform="translate(390.287892 322.182437) scale(0.1 -0.1)">
       <defs>
        <path id="DejaVuSans-36" d="M 2113 2584 
Q 1688 2584 1439 2293 
Q 1191 2003 1191 1497 
Q 1191 994 1439 701 
Q 1688 409 2113 409 
Q 2538 409 2786 701 
Q 3034 994 3034 1497 
Q 3034 2003 2786 2293 
Q 2538 2584 2113 2584 
z
M 3366 4563 
L 3366 3988 
Q 3128 4100 2886 4159 
Q 2644 4219 2406 4219 
Q 1781 4219 1451 3797 
Q 1122 3375 1075 2522 
Q 1259 2794 1537 2939 
Q 1816 3084 2150 3084 
Q 2853 3084 3261 2657 
Q 3669 2231 3669 1497 
Q 3669 778 3244 343 
Q 2819 -91 2113 -91 
Q 1303 -91 875 529 
Q 447 1150 447 2328 
Q 447 3434 972 4092 
Q 1497 4750 2381 4750 
Q 2619 4750 2861 4703 
Q 3103 4656 3366 4563 
z
" transform="scale(0.015625)"/>
       </defs>
       <use xlink:href="#DejaVuSans-36"/>
       <use xlink:href="#DejaVuSans-30" x="63.623047"/>
       <use xlink:href="#DejaVuSans-30" x="127.246094"/>
      </g>
     </g>
    </g>
   </g>
   <g id="matplotlib.axis_2">
    <g id="ytick_1">
     <g id="line2d_7">
      <path d="M 57.6 295.549354 
L 414.72 295.549354 
" clip-path="url(#pbae486923d)" style="fill: none; stroke: #ffffff; stroke-width: 0.8; stroke-linecap: round"/>
     </g>
     <g id="text_7">
      <!-- 0.0 -->
      <g style="fill: #262626" transform="translate(34.696875 299.348573) scale(0.1 -0.1)">
       <defs>
        <path id="DejaVuSans-2e" d="M 684 794 
L 1344 794 
L 1344 0 
L 684 0 
L 684 794 
z
" transform="scale(0.015625)"/>
       </defs>
       <use xlink:href="#DejaVuSans-30"/>
       <use xlink:href="#DejaVuSans-2e" x="63.623047"/>
       <use xlink:href="#DejaVuSans-30" x="95.410156"/>
      </g>
     </g>
    </g>
    <g id="ytick_2">
     <g id="line2d_8">
      <path d="M 57.6 251.70513 
L 414.72 251.70513 
" clip-path="url(#pbae486923d)" style="fill: none; stroke: #ffffff; stroke-width: 0.8; stroke-linecap: round"/>
     </g>
     <g id="text_8">
      <!-- 0.1 -->
      <g style="fill: #262626" transform="translate(34.696875 255.504349) scale(0.1 -0.1)">
       <defs>
        <path id="DejaVuSans-31" d="M 794 531 
L 1825 531 
L 1825 4091 
L 703 3866 
L 703 4441 
L 1819 4666 
L 2450 4666 
L 2450 531 
L 3481 531 
L 3481 0 
L 794 0 
L 794 531 
z
" transform="scale(0.015625)"/>
       </defs>
       <use xlink:href="#DejaVuSans-30"/>
       <use xlink:href="#DejaVuSans-2e" x="63.623047"/>
       <use xlink:href="#DejaVuSans-31" x="95.410156"/>
      </g>
     </g>
    </g>
    <g id="ytick_3">
     <g id="line2d_9">
      <path d="M 57.6 207.860906 
L 414.72 207.860906 
" clip-path="url(#pbae486923d)" style="fill: none; stroke: #ffffff; stroke-width: 0.8; stroke-linecap: round"/>
     </g>
     <g id="text_9">
      <!-- 0.2 -->
      <g style="fill: #262626" transform="translate(34.696875 211.660125) scale(0.1 -0.1)">
       <defs>
        <path id="DejaVuSans-32" d="M 1228 531 
L 3431 531 
L 3431 0 
L 469 0 
L 469 531 
Q 828 903 1448 1529 
Q 2069 2156 2228 2338 
Q 2531 2678 2651 2914 
Q 2772 3150 2772 3378 
Q 2772 3750 2511 3984 
Q 2250 4219 1831 4219 
Q 1534 4219 1204 4116 
Q 875 4013 500 3803 
L 500 4441 
Q 881 4594 1212 4672 
Q 1544 4750 1819 4750 
Q 2544 4750 2975 4387 
Q 3406 4025 3406 3419 
Q 3406 3131 3298 2873 
Q 3191 2616 2906 2266 
Q 2828 2175 2409 1742 
Q 1991 1309 1228 531 
z
" transform="scale(0.015625)"/>
       </defs>
       <use xlink:href="#DejaVuSans-30"/>
       <use xlink:href="#DejaVuSans-2e" x="63.623047"/>
       <use xlink:href="#DejaVuSans-32" x="95.410156"/>
      </g>
     </g>
    </g>
    <g id="ytick_4">
     <g id="line2d_10">
      <path d="M 57.6 164.016682 
L 414.72 164.016682 
" clip-path="url(#pbae486923d)" style="fill: none; stroke: #ffffff; stroke-width: 0.8; stroke-linecap: round"/>
     </g>
     <g id="text_10">
      <!-- 0.3 -->
      <g style="fill: #262626" transform="translate(34.696875 167.815901) scale(0.1 -0.1)">
       <use xlink:href="#DejaVuSans-30"/>
       <use xlink:href="#DejaVuSans-2e" x="63.623047"/>
       <use xlink:href="#DejaVuSans-33" x="95.410156"/>
      </g>
     </g>
    </g>
    <g id="ytick_5">
     <g id="line2d_11">
      <path d="M 57.6 120.172459 
L 414.72 120.172459 
" clip-path="url(#pbae486923d)" style="fill: none; stroke: #ffffff; stroke-width: 0.8; stroke-linecap: round"/>
     </g>
     <g id="text_11">
      <!-- 0.4 -->
      <g style="fill: #262626" transform="translate(34.696875 123.971677) scale(0.1 -0.1)">
       <use xlink:href="#DejaVuSans-30"/>
       <use xlink:href="#DejaVuSans-2e" x="63.623047"/>
       <use xlink:href="#DejaVuSans-34" x="95.410156"/>
      </g>
     </g>
    </g>
    <g id="ytick_6">
     <g id="line2d_12">
      <path d="M 57.6 76.328235 
L 414.72 76.328235 
" clip-path="url(#pbae486923d)" style="fill: none; stroke: #ffffff; stroke-width: 0.8; stroke-linecap: round"/>
     </g>
     <g id="text_12">
      <!-- 0.5 -->
      <g style="fill: #262626" transform="translate(34.696875 80.127454) scale(0.1 -0.1)">
       <use xlink:href="#DejaVuSans-30"/>
       <use xlink:href="#DejaVuSans-2e" x="63.623047"/>
       <use xlink:href="#DejaVuSans-35" x="95.410156"/>
      </g>
     </g>
    </g>
   </g>
   <g id="PathCollection_1">
    <defs>
     <path id="mafaf57571d" d="M 0 3 
C 0.795609 3 1.55874 2.683901 2.12132 2.12132 
C 2.683901 1.55874 3 0.795609 3 0 
C 3 -0.795609 2.683901 -1.55874 2.12132 -2.12132 
C 1.55874 -2.683901 0.795609 -3 0 -3 
C -0.795609 -3 -1.55874 -2.683901 -2.12132 -2.12132 
C -2.683901 -1.55874 -3 -0.795609 -3 0 
C -3 0.795609 -2.683901 1.55874 -2.12132 2.12132 
C -1.55874 2.683901 -0.795609 3 0 3 
z
" style="stroke: #0000ff"/>
    </defs>
    <g clip-path="url(#pbae486923d)">
     <use xlink:href="#mafaf57571d" x="395.97423" y="286.121547" style="fill: #0000ff; stroke: #0000ff"/>
     <use xlink:href="#mafaf57571d" x="393.266475" y="286.178626" style="fill: #0000ff; stroke: #0000ff"/>
     <use xlink:href="#mafaf57571d" x="384.165509" y="285.881095" style="fill: #0000ff; stroke: #0000ff"/>
     <use xlink:href="#mafaf57571d" x="380.287806" y="285.717951" style="fill: #0000ff; stroke: #0000ff"/>
     <use xlink:href="#mafaf57571d" x="375.04823" y="285.787086" style="fill: #0000ff; stroke: #0000ff"/>
     <use xlink:href="#mafaf57571d" x="371.163605" y="285.689123" style="fill: #0000ff; stroke: #0000ff"/>
     <use xlink:href="#mafaf57571d" x="367.276115" y="285.623277" style="fill: #0000ff; stroke: #0000ff"/>
     <use xlink:href="#mafaf57571d" x="363.385682" y="285.464088" style="fill: #0000ff; stroke: #0000ff"/>
     <use xlink:href="#mafaf57571d" x="360.660739" y="285.472274" style="fill: #0000ff; stroke: #0000ff"/>
     <use xlink:href="#mafaf57571d" x="356.765452" y="285.412037" style="fill: #0000ff; stroke: #0000ff"/>
     <use xlink:href="#mafaf57571d" x="348.966442" y="285.098223" style="fill: #0000ff; stroke: #0000ff"/>
     <use xlink:href="#mafaf57571d" x="346.429289" y="285.081867" style="fill: #0000ff; stroke: #0000ff"/>
     <use xlink:href="#mafaf57571d" x="342.523737" y="284.891117" style="fill: #0000ff; stroke: #0000ff"/>
     <use xlink:href="#mafaf57571d" x="339.788131" y="284.901223" style="fill: #0000ff; stroke: #0000ff"/>
     <use xlink:href="#mafaf57571d" x="329.419742" y="284.388914" style="fill: #0000ff; stroke: #0000ff"/>
     <use xlink:href="#mafaf57571d" x="145.612549" y="249.213496" style="fill: #0000ff; stroke: #0000ff"/>
     <use xlink:href="#mafaf57571d" x="141.78625" y="249.16398" style="fill: #0000ff; stroke: #0000ff"/>
     <use xlink:href="#mafaf57571d" x="136.54735" y="249.322501" style="fill: #0000ff; stroke: #0000ff"/>
    </g>
   </g>
   <g id="PathCollection_2">
    <g clip-path="url(#pbae486923d)">
     <use xlink:href="#mafaf57571d" x="395.97423" y="284.368418" style="fill: #0000ff; stroke: #0000ff"/>
     <use xlink:href="#mafaf57571d" x="393.266475" y="284.292866" style="fill: #0000ff; stroke: #0000ff"/>
     <use xlink:href="#mafaf57571d" x="386.878118" y="284.125162" style="fill: #0000ff; stroke: #0000ff"/>
     <use xlink:href="#mafaf57571d" x="382.808647" y="283.983748" style="fill: #0000ff; stroke: #0000ff"/>
     <use xlink:href="#mafaf57571d" x="380.287806" y="283.893226" style="fill: #0000ff; stroke: #0000ff"/>
     <use xlink:href="#mafaf57571d" x="377.571617" y="283.757617" style="fill: #0000ff; stroke: #0000ff"/>
     <use xlink:href="#mafaf57571d" x="375.04823" y="283.801853" style="fill: #0000ff; stroke: #0000ff"/>
     <use xlink:href="#mafaf57571d" x="372.52357" y="283.598178" style="fill: #0000ff; stroke: #0000ff"/>
     <use xlink:href="#mafaf57571d" x="363.385682" y="283.417705" style="fill: #0000ff; stroke: #0000ff"/>
     <use xlink:href="#mafaf57571d" x="351.502322" y="282.768015" style="fill: #0000ff; stroke: #0000ff"/>
     <use xlink:href="#mafaf57571d" x="348.966442" y="282.661539" style="fill: #0000ff; stroke: #0000ff"/>
     <use xlink:href="#mafaf57571d" x="339.788131" y="282.104116" style="fill: #0000ff; stroke: #0000ff"/>
     <use xlink:href="#mafaf57571d" x="145.612549" y="212.346178" style="fill: #0000ff; stroke: #0000ff"/>
     <use xlink:href="#mafaf57571d" x="141.78625" y="212.250504" style="fill: #0000ff; stroke: #0000ff"/>
    </g>
   </g>
   <g id="PathCollection_3">
    <g clip-path="url(#pbae486923d)">
     <use xlink:href="#mafaf57571d" x="395.97423" y="292.838742" style="fill: #0000ff; stroke: #0000ff"/>
     <use xlink:href="#mafaf57571d" x="393.266475" y="292.704543" style="fill: #0000ff; stroke: #0000ff"/>
     <use xlink:href="#mafaf57571d" x="386.878118" y="292.4505" style="fill: #0000ff; stroke: #0000ff"/>
     <use xlink:href="#mafaf57571d" x="384.165509" y="292.351486" style="fill: #0000ff; stroke: #0000ff"/>
     <use xlink:href="#mafaf57571d" x="380.287806" y="292.099156" style="fill: #0000ff; stroke: #0000ff"/>
     <use xlink:href="#mafaf57571d" x="371.163605" y="291.890715" style="fill: #0000ff; stroke: #0000ff"/>
     <use xlink:href="#mafaf57571d" x="362.023409" y="291.514386" style="fill: #0000ff; stroke: #0000ff"/>
     <use xlink:href="#mafaf57571d" x="355.5963" y="291.094969" style="fill: #0000ff; stroke: #0000ff"/>
     <use xlink:href="#mafaf57571d" x="351.502322" y="290.765449" style="fill: #0000ff; stroke: #0000ff"/>
     <use xlink:href="#mafaf57571d" x="141.78625" y="188.014502" style="fill: #0000ff; stroke: #0000ff"/>
    </g>
   </g>
   <g id="PathCollection_4">
    <g clip-path="url(#pbae486923d)">
     <use xlink:href="#mafaf57571d" x="395.97423" y="295.387589" style="fill: #0000ff; stroke: #0000ff"/>
     <use xlink:href="#mafaf57571d" x="393.266475" y="295.2731" style="fill: #0000ff; stroke: #0000ff"/>
     <use xlink:href="#mafaf57571d" x="385.521972" y="294.93202" style="fill: #0000ff; stroke: #0000ff"/>
     <use xlink:href="#mafaf57571d" x="382.808647" y="295.010501" style="fill: #0000ff; stroke: #0000ff"/>
     <use xlink:href="#mafaf57571d" x="380.287806" y="294.734558" style="fill: #0000ff; stroke: #0000ff"/>
     <use xlink:href="#mafaf57571d" x="371.163605" y="294.425302" style="fill: #0000ff; stroke: #0000ff"/>
     <use xlink:href="#mafaf57571d" x="348.966442" y="292.881264" style="fill: #0000ff; stroke: #0000ff"/>
     <use xlink:href="#mafaf57571d" x="145.612549" y="159.74488" style="fill: #0000ff; stroke: #0000ff"/>
     <use xlink:href="#mafaf57571d" x="142.994749" y="159.708411" style="fill: #0000ff; stroke: #0000ff"/>
    </g>
   </g>
   <g id="PathCollection_5">
    <g clip-path="url(#pbae486923d)">
     <use xlink:href="#mafaf57571d" x="395.97423" y="295.372651" style="fill: #0000ff; stroke: #0000ff"/>
     <use xlink:href="#mafaf57571d" x="393.266475" y="295.357417" style="fill: #0000ff; stroke: #0000ff"/>
     <use xlink:href="#mafaf57571d" x="382.808647" y="294.885854" style="fill: #0000ff; stroke: #0000ff"/>
     <use xlink:href="#mafaf57571d" x="376.40716" y="294.551198" style="fill: #0000ff; stroke: #0000ff"/>
     <use xlink:href="#mafaf57571d" x="373.688902" y="294.354597" style="fill: #0000ff; stroke: #0000ff"/>
     <use xlink:href="#mafaf57571d" x="371.163605" y="294.157335" style="fill: #0000ff; stroke: #0000ff"/>
     <use xlink:href="#mafaf57571d" x="363.385682" y="293.616254" style="fill: #0000ff; stroke: #0000ff"/>
     <use xlink:href="#mafaf57571d" x="145.612549" y="125.92236" style="fill: #0000ff; stroke: #0000ff"/>
     <use xlink:href="#mafaf57571d" x="142.994749" y="125.819356" style="fill: #0000ff; stroke: #0000ff"/>
    </g>
   </g>
   <g id="PathCollection_6">
    <g clip-path="url(#pbae486923d)">
     <use xlink:href="#mafaf57571d" x="392.105599" y="293.4464" style="fill: #0000ff; stroke: #0000ff"/>
     <use xlink:href="#mafaf57571d" x="380.287806" y="292.709451" style="fill: #0000ff; stroke: #0000ff"/>
     <use xlink:href="#mafaf57571d" x="377.571617" y="292.442448" style="fill: #0000ff; stroke: #0000ff"/>
     <use xlink:href="#mafaf57571d" x="375.04823" y="292.280665" style="fill: #0000ff; stroke: #0000ff"/>
     <use xlink:href="#mafaf57571d" x="145.612549" y="88.428518" style="fill: #0000ff; stroke: #0000ff"/>
     <use xlink:href="#mafaf57571d" x="141.78625" y="88.367863" style="fill: #0000ff; stroke: #0000ff"/>
    </g>
   </g>
   <g id="PathCollection_7">
    <g clip-path="url(#pbae486923d)">
     <use xlink:href="#mafaf57571d" x="392.105599" y="289.563189" style="fill: #0000ff; stroke: #0000ff"/>
     <use xlink:href="#mafaf57571d" x="385.521972" y="289.226254" style="fill: #0000ff; stroke: #0000ff"/>
     <use xlink:href="#mafaf57571d" x="380.287806" y="288.927422" style="fill: #0000ff; stroke: #0000ff"/>
     <use xlink:href="#mafaf57571d" x="373.688902" y="288.361399" style="fill: #0000ff; stroke: #0000ff"/>
     <use xlink:href="#mafaf57571d" x="371.163605" y="288.165259" style="fill: #0000ff; stroke: #0000ff"/>
     <use xlink:href="#mafaf57571d" x="145.612549" y="53.877495" style="fill: #0000ff; stroke: #0000ff"/>
     <use xlink:href="#mafaf57571d" x="141.78625" y="53.568" style="fill: #0000ff; stroke: #0000ff"/>
    </g>
   </g>
   <g id="PathCollection_8"/>
   <g id="PathCollection_9">
    <defs>
     <path id="mde9ee0ecdf" d="M 0 3 
C 0.795609 3 1.55874 2.683901 2.12132 2.12132 
C 2.683901 1.55874 3 0.795609 3 0 
C 3 -0.795609 2.683901 -1.55874 2.12132 -2.12132 
C 1.55874 -2.683901 0.795609 -3 0 -3 
C -0.795609 -3 -1.55874 -2.683901 -2.12132 -2.12132 
C -2.683901 -1.55874 -3 -0.795609 -3 0 
C -3 0.795609 -2.683901 1.55874 -2.12132 2.12132 
C -1.55874 2.683901 -0.795609 3 0 3 
z
" style="stroke: #ffa500"/>
    </defs>
    <g clip-path="url(#pbae486923d)">
     <use xlink:href="#mde9ee0ecdf" x="135.1363" y="170.478528" style="fill: #ffa500; stroke: #ffa500"/>
     <use xlink:href="#mde9ee0ecdf" x="132.515079" y="170.495083" style="fill: #ffa500; stroke: #ffa500"/>
     <use xlink:href="#mde9ee0ecdf" x="102.615944" y="173.745843" style="fill: #ffa500; stroke: #ffa500"/>
    </g>
   </g>
   <g id="line2d_13">
    <path d="M 398.487273 286.179211 
L 397.13431 286.24446 
L 395.97423 286.121547 
L 394.620552 286.282224 
L 392.105599 286.192145 
L 390.750886 286.309795 
L 384.165509 285.881095 
L 381.645305 285.956175 
L 380.287806 285.717951 
L 378.929911 285.999163 
L 375.04823 285.787086 
L 372.52357 285.788627 
L 371.163605 285.689123 
L 368.637035 285.738554 
L 367.276115 285.623277 
L 365.914798 285.683159 
L 363.385682 285.464088 
L 359.492463 285.551953 
L 355.5963 285.43332 
L 352.867379 285.378004 
L 348.966442 285.098223 
L 345.06264 285.119515 
L 341.156133 284.936831 
L 334.704198 284.686261 
L 329.419742 284.388914 
L 328.048956 284.414113 
L 322.95428 284.06938 
L 319.032176 283.840599 
L 315.107368 283.63792 
L 302.136497 282.612312 
L 292.882195 281.74707 
L 290.319898 281.451241 
L 288.939801 281.434594 
L 287.756566 281.192698 
L 285.19212 280.965064 
L 282.429221 280.562265 
L 278.677561 280.033662 
L 277.294759 279.974524 
L 274.725937 279.514675 
L 264.241969 277.877018 
L 249.971608 275.030168 
L 247.391646 274.421995 
L 246.002001 274.201212 
L 243.420447 273.528226 
L 235.470847 271.540758 
L 231.691456 270.546729 
L 230.298509 270.229022 
L 227.710828 269.40359 
L 223.92706 268.421857 
L 210.767206 264.406077 
L 208.172125 263.682717 
L 204.17789 262.297351 
L 201.580421 261.595995 
L 197.782371 260.306142 
L 193.782287 259.157973 
L 189.980138 257.895969 
L 185.975758 256.811085 
L 183.371724 255.965392 
L 182.169511 255.726685 
L 178.160873 254.532548 
L 175.554095 253.852344 
L 172.946402 253.338823 
L 170.337793 252.673965 
L 163.912793 251.31649 
L 150.84556 249.522214 
L 146.820491 249.314932 
L 145.612549 249.213496 
L 144.404447 249.274083 
L 140.376115 249.208848 
L 131.305028 249.656826 
L 128.682614 250.072321 
L 126.059404 250.396183 
L 124.848398 250.706309 
L 123.435318 250.857336 
L 112.930901 253.005413 
L 111.717985 253.517754 
L 110.50495 253.778116 
L 105.246395 255.314666 
L 103.830093 255.728616 
L 102.615944 256.263686 
L 101.199205 256.732797 
L 99.984698 256.978073 
L 80.327035 264.145647 
L 77.892212 264.937244 
L 73.832727 266.397776 
L 73.832727 266.397776 
" clip-path="url(#pbae486923d)" style="fill: none; stroke: #808080; stroke-width: 1.5; stroke-linecap: round"/>
   </g>
   <g id="line2d_14">
    <path d="M 398.487273 284.248563 
L 397.13431 284.415978 
L 395.97423 284.368418 
L 394.620552 284.486346 
L 393.266475 284.292866 
L 390.750886 284.330104 
L 388.040267 284.225607 
L 386.878118 284.125162 
L 384.165509 284.137562 
L 382.808647 283.983748 
L 378.929911 283.947563 
L 377.571617 283.757617 
L 376.40716 283.916235 
L 375.04823 283.801853 
L 373.688902 283.819923 
L 372.52357 283.598178 
L 367.276115 283.550861 
L 364.553162 283.439755 
L 359.492463 283.274941 
L 356.765452 283.069271 
L 352.867379 282.946013 
L 351.502322 282.768015 
L 350.332056 282.823184 
L 348.966442 282.661539 
L 347.60043 282.744127 
L 346.429289 282.495187 
L 345.06264 282.482327 
L 339.788131 282.104116 
L 338.61532 282.129484 
L 337.246761 281.918112 
L 335.877805 281.839007 
L 333.334684 281.500085 
L 329.419742 281.271227 
L 322.95428 280.702597 
L 320.209046 280.378347 
L 319.032176 280.14404 
L 316.481337 279.913559 
L 313.733 279.560141 
L 312.554778 279.472283 
L 308.625513 278.832227 
L 307.249713 278.829761 
L 305.873516 278.674537 
L 304.693622 278.322612 
L 302.136497 277.965853 
L 299.381396 277.415439 
L 294.261416 276.523931 
L 285.19212 274.644458 
L 279.862547 273.430821 
L 278.677561 272.917247 
L 277.294759 272.659146 
L 270.771766 270.773312 
L 269.387253 270.254196 
L 265.627636 269.170611 
L 264.241969 268.717504 
L 260.281194 267.182128 
L 259.092468 266.901196 
L 256.516126 265.797431 
L 255.12847 265.187558 
L 252.550536 264.440266 
L 249.971608 263.049787 
L 248.58252 262.707848 
L 244.612037 260.994908 
L 243.420447 260.238078 
L 236.86272 257.1175 
L 234.277585 255.742117 
L 232.885195 254.987302 
L 231.691456 254.530549 
L 219.941896 247.739453 
L 218.546522 246.863714 
L 217.350276 246.332965 
L 214.757701 244.819046 
L 213.361253 243.78177 
L 206.974089 239.990354 
L 204.17789 238.098056 
L 201.580421 236.6227 
L 196.38262 233.378296 
L 195.182595 232.855097 
L 189.980138 229.516575 
L 188.578876 228.835648 
L 183.371724 225.677236 
L 182.169511 225.161073 
L 176.957864 222.166189 
L 174.350648 221.077147 
L 171.742517 219.680524 
L 165.117911 216.917448 
L 162.506636 216.015664 
L 159.894447 215.357839 
L 157.281422 214.455708 
L 154.667483 213.824513 
L 149.437017 212.794695 
L 146.820491 212.510653 
L 145.612549 212.346178 
L 144.404447 212.428171 
L 140.376115 212.325265 
L 136.54735 212.542353 
L 131.305028 213.340232 
L 128.682614 214.074804 
L 126.059404 214.705175 
L 122.223954 216.122339 
L 118.184721 217.680609 
L 115.558209 218.99882 
L 110.50495 221.617098 
L 107.87609 223.108722 
L 105.246395 224.601195 
L 101.199205 227.351087 
L 99.984698 228.061328 
L 97.352655 229.931629 
L 96.137591 231.084442 
L 93.504435 232.696253 
L 92.086223 233.560131 
L 90.870482 234.754888 
L 87.019477 237.592476 
L 85.60027 238.51522 
L 84.383615 239.558999 
L 80.327035 242.575763 
L 79.109703 243.274568 
L 75.253764 246.216015 
L 73.832727 247.211755 
L 73.832727 247.211755 
" clip-path="url(#pbae486923d)" style="fill: none; stroke: #808080; stroke-width: 1.5; stroke-linecap: round"/>
   </g>
   <g id="line2d_15">
    <path d="M 398.487273 292.798883 
L 394.620552 292.96836 
L 393.266475 292.704543 
L 392.105599 292.828208 
L 390.750886 292.811836 
L 388.040267 292.474896 
L 384.165509 292.351486 
L 382.808647 292.5456 
L 381.645305 292.401271 
L 380.287806 292.099156 
L 378.929911 292.252721 
L 376.40716 292.354314 
L 375.04823 292.095203 
L 371.163605 291.890715 
L 369.803322 291.974415 
L 368.637035 291.829467 
L 367.276115 291.823413 
L 363.385682 291.546889 
L 360.660739 291.528285 
L 359.492463 291.330602 
L 358.129156 291.307729 
L 355.5963 291.094969 
L 354.232039 291.142261 
L 351.502322 290.765449 
L 350.332056 290.777006 
L 346.429289 290.406479 
L 345.06264 290.388894 
L 342.523737 290.052624 
L 339.788131 289.899716 
L 337.246761 289.6727 
L 335.877805 289.419898 
L 331.964773 288.989176 
L 330.79029 288.799244 
L 326.873598 288.389164 
L 322.95428 287.835247 
L 320.209046 287.466832 
L 316.481337 286.706516 
L 311.179853 285.806929 
L 308.625513 285.229298 
L 305.873516 284.789269 
L 304.693622 284.430393 
L 303.316868 284.182601 
L 299.381396 283.101054 
L 296.821963 282.538356 
L 294.261416 281.818027 
L 286.375832 279.463429 
L 282.429221 277.994605 
L 281.244752 277.627154 
L 279.862547 277.046669 
L 278.677561 276.406174 
L 277.294759 276.089026 
L 270.771766 273.379824 
L 269.387253 272.613063 
L 268.200238 272.225616 
L 264.241969 270.231419 
L 260.281194 268.133941 
L 257.705329 266.871012 
L 256.516126 265.953767 
L 255.12847 265.119592 
L 252.550536 263.849365 
L 248.58252 261.28433 
L 244.612037 258.867281 
L 243.420447 257.79319 
L 238.254315 254.399455 
L 234.277585 251.108244 
L 232.885195 250.062175 
L 231.691456 249.363223 
L 230.298509 248.24746 
L 227.710828 245.978259 
L 223.92706 243.090224 
L 218.546522 238.099571 
L 217.350276 237.414058 
L 215.954385 236.216832 
L 214.757701 234.996503 
L 213.361253 233.770947 
L 212.164132 232.554807 
L 210.767206 231.318151 
L 209.569608 230.432099 
L 202.979177 224.403798 
L 200.381271 222.028696 
L 196.38262 218.428176 
L 195.182595 217.468454 
L 191.181039 213.730577 
L 185.975758 209.334811 
L 183.371724 206.951986 
L 182.169511 206.314107 
L 180.766737 205.254792 
L 179.564165 204.14255 
L 175.554095 201.113615 
L 174.350648 200.42328 
L 170.337793 197.515192 
L 169.133511 196.794353 
L 167.728309 196.088398 
L 165.117911 194.44328 
L 162.506636 193.097153 
L 159.894447 192.228316 
L 158.688534 191.468304 
L 156.075071 190.469545 
L 152.052668 189.330112 
L 150.84556 188.89063 
L 148.229472 188.481502 
L 146.820491 188.216113 
L 144.404447 188.103041 
L 141.78625 188.014502 
L 139.167217 188.184296 
L 136.54735 188.490662 
L 135.1363 188.885325 
L 133.926606 189.010856 
L 131.305028 189.786874 
L 126.059404 191.871676 
L 123.435318 193.277492 
L 120.810437 194.712433 
L 118.184721 196.3342 
L 115.558209 198.355295 
L 114.345691 199.065008 
L 112.930901 200.149267 
L 111.717985 201.283507 
L 110.50495 202.229705 
L 106.460186 205.79535 
L 105.246395 206.757248 
L 101.199205 211.07794 
L 99.984698 211.996444 
L 94.719817 217.943483 
L 93.504435 218.968943 
L 92.086223 220.5295 
L 90.870482 222.053875 
L 89.451873 223.499021 
L 88.235734 225.048491 
L 87.019477 226.13803 
L 84.383615 229.132593 
L 81.747037 232.229096 
L 80.327035 233.711612 
L 79.109703 234.785196 
L 76.471573 237.8862 
L 73.832727 240.662748 
L 73.832727 240.662748 
" clip-path="url(#pbae486923d)" style="fill: none; stroke: #808080; stroke-width: 1.5; stroke-linecap: round"/>
   </g>
   <g id="line2d_16">
    <path d="M 398.487273 295.357701 
L 397.13431 295.465622 
L 393.266475 295.2731 
L 390.750886 295.484628 
L 385.521972 294.93202 
L 384.165509 295.044836 
L 382.808647 295.010501 
L 381.645305 295.092329 
L 380.287806 294.734558 
L 377.571617 294.800393 
L 375.04823 294.694375 
L 371.163605 294.425302 
L 369.803322 294.516888 
L 365.914798 294.225096 
L 362.023409 294.06052 
L 358.129156 293.758966 
L 352.867379 293.327729 
L 351.502322 293.130101 
L 350.332056 293.082519 
L 348.966442 292.881264 
L 347.60043 292.898677 
L 346.429289 292.675636 
L 345.06264 292.636619 
L 343.695673 292.403486 
L 342.523737 292.354152 
L 339.788131 292.043246 
L 338.61532 291.972206 
L 331.964773 290.896951 
L 324.130354 289.751179 
L 313.733 287.640966 
L 312.554778 287.452905 
L 302.136497 284.568349 
L 299.381396 283.681821 
L 296.821963 282.864362 
L 295.443299 282.440567 
L 294.261416 281.886886 
L 291.699755 281.019068 
L 290.319898 280.425121 
L 288.939801 280.053953 
L 287.756566 279.414678 
L 282.429221 277.179468 
L 281.244752 276.534579 
L 279.862547 275.930719 
L 278.677561 275.233337 
L 277.294759 274.672259 
L 270.771766 271.117304 
L 269.387253 270.189232 
L 266.815128 268.866448 
L 256.516126 261.607023 
L 255.12847 260.549997 
L 252.550536 258.92874 
L 249.971608 256.454792 
L 248.58252 255.551622 
L 244.612037 252.331131 
L 243.420447 250.985643 
L 239.44686 247.450636 
L 238.254315 246.599383 
L 235.470847 243.526087 
L 234.277585 242.428669 
L 232.885195 240.960483 
L 231.691456 239.946875 
L 230.298509 238.577365 
L 229.104332 237.105216 
L 225.122192 232.976734 
L 223.92706 231.768165 
L 218.546522 225.382689 
L 217.350276 224.409606 
L 215.954385 222.851963 
L 212.164132 218.234679 
L 208.172125 213.714753 
L 204.17789 208.655661 
L 202.979177 207.466986 
L 195.182595 198.395717 
L 192.581824 195.228733 
L 191.181039 193.474242 
L 187.377538 189.370135 
L 183.371724 184.710469 
L 182.169511 183.699193 
L 180.766737 182.325632 
L 179.564165 180.816061 
L 171.742517 173.344228 
L 167.728309 170.190122 
L 166.523629 169.311994 
L 165.117911 168.131884 
L 162.506636 166.459752 
L 159.894447 165.090595 
L 158.688534 164.153968 
L 156.075071 162.880707 
L 153.460773 161.811833 
L 152.052668 161.352816 
L 150.84556 160.802739 
L 145.612549 159.74488 
L 144.404447 159.829957 
L 142.994749 159.708411 
L 140.376115 159.816955 
L 136.54735 160.405775 
L 135.1363 160.855658 
L 133.926606 161.100226 
L 132.515079 161.581756 
L 129.893063 162.794153 
L 126.059404 164.832804 
L 124.848398 165.850234 
L 122.223954 167.685987 
L 118.184721 170.856165 
L 115.558209 173.572463 
L 114.345691 174.634346 
L 111.717985 177.427618 
L 107.87609 181.946087 
L 105.246395 184.92757 
L 101.199205 190.677938 
L 99.984698 191.886526 
L 97.352655 195.717809 
L 94.719817 199.860515 
L 93.504435 201.253787 
L 92.086223 203.096954 
L 90.870482 205.293541 
L 89.451873 207.232029 
L 88.235734 209.337241 
L 87.019477 210.687876 
L 82.964011 217.068773 
L 80.327035 221.014656 
L 79.109703 222.410214 
L 76.471573 226.739766 
L 73.832727 230.404587 
L 73.832727 230.404587 
" clip-path="url(#pbae486923d)" style="fill: none; stroke: #808080; stroke-width: 1.5; stroke-linecap: round"/>
   </g>
   <g id="line2d_17">
    <path d="M 398.487273 295.468324 
L 393.266475 295.357417 
L 392.105599 295.448566 
L 390.750886 295.416859 
L 388.040267 295.017 
L 384.165509 294.926474 
L 382.808647 294.885854 
L 381.645305 294.963011 
L 380.287806 294.717448 
L 377.571617 294.659486 
L 376.40716 294.551198 
L 375.04823 294.587499 
L 373.688902 294.354597 
L 372.52357 294.421809 
L 371.163605 294.157335 
L 369.803322 294.174392 
L 368.637035 294.017118 
L 367.276115 294.016671 
L 365.914798 293.890158 
L 364.553162 293.880472 
L 363.385682 293.616254 
L 362.023409 293.647666 
L 359.492463 293.397336 
L 354.232039 292.95169 
L 351.502322 292.535615 
L 350.332056 292.505402 
L 347.60043 292.024957 
L 345.06264 291.858051 
L 343.695673 291.565676 
L 342.523737 291.483571 
L 341.156133 291.193291 
L 338.61532 290.90008 
L 333.334684 289.965468 
L 321.581822 287.640788 
L 313.733 285.463981 
L 312.554778 285.238895 
L 307.249713 283.487244 
L 305.873516 283.084079 
L 304.693622 282.593385 
L 303.316868 282.151331 
L 300.759106 281.017426 
L 298.20023 280.060318 
L 295.443299 278.882651 
L 286.375832 274.419064 
L 282.429221 272.202355 
L 281.244752 271.602984 
L 279.862547 270.750807 
L 278.677561 269.786188 
L 277.294759 269.097008 
L 270.771766 264.641606 
L 268.200238 262.699851 
L 266.815128 261.750886 
L 264.241969 259.583582 
L 260.281194 256.15832 
L 259.092468 255.26186 
L 257.705329 254.033195 
L 255.12847 251.290817 
L 252.550536 249.309712 
L 249.971608 246.251057 
L 247.391646 243.881887 
L 246.002001 242.519302 
L 244.612037 240.993287 
L 243.420447 239.389303 
L 239.44686 234.908976 
L 238.254315 233.80869 
L 235.470847 229.960369 
L 232.885195 226.760228 
L 231.691456 225.595243 
L 230.298509 223.728418 
L 229.104332 221.921302 
L 223.92706 215.308218 
L 222.532521 213.167668 
L 221.137704 211.305998 
L 219.941896 209.313623 
L 218.546522 207.305 
L 217.350276 206.072983 
L 213.361253 200.042396 
L 210.767206 196.317762 
L 209.569608 194.667693 
L 205.576129 188.569146 
L 204.17789 186.242906 
L 202.979177 184.847394 
L 198.981998 178.880362 
L 197.782371 176.953105 
L 193.782287 171.448696 
L 189.980138 165.715374 
L 187.377538 162.297361 
L 183.371724 156.427611 
L 182.169511 155.33212 
L 180.766737 153.526722 
L 179.564165 151.72689 
L 176.957864 148.330019 
L 174.350648 145.636183 
L 170.337793 141.006805 
L 169.133511 139.78351 
L 167.728309 138.613619 
L 165.117911 136.035775 
L 163.912793 134.965673 
L 162.506636 133.901752 
L 161.301121 133.183533 
L 159.894447 132.201892 
L 158.688534 131.142583 
L 156.075071 129.507573 
L 150.84556 127.085248 
L 145.612549 125.92236 
L 144.404447 125.997114 
L 142.994749 125.819356 
L 140.376115 126.024188 
L 137.756605 126.557671 
L 136.54735 126.826986 
L 135.1363 127.261268 
L 131.305028 128.964734 
L 127.270211 131.770198 
L 126.059404 132.579033 
L 124.848398 133.83621 
L 122.223954 136.163632 
L 119.598675 138.683708 
L 118.184721 140.181911 
L 114.345691 144.981899 
L 112.930901 146.667464 
L 106.460186 156.159354 
L 105.246395 157.820079 
L 101.199205 165.072563 
L 99.984698 166.545586 
L 94.719817 176.343783 
L 92.086223 180.634827 
L 90.870482 183.430256 
L 89.451873 185.817667 
L 88.235734 188.460053 
L 87.019477 190.203 
L 80.327035 202.874639 
L 79.109703 204.714932 
L 77.892212 207.349589 
L 73.832727 214.861099 
L 73.832727 214.861099 
" clip-path="url(#pbae486923d)" style="fill: none; stroke: #808080; stroke-width: 1.5; stroke-linecap: round"/>
   </g>
   <g id="line2d_18">
    <path d="M 398.487273 293.601669 
L 394.620552 293.538194 
L 392.105599 293.4464 
L 390.750886 293.549526 
L 388.040267 293.061673 
L 382.808647 292.908033 
L 380.287806 292.709451 
L 378.929911 292.754224 
L 377.571617 292.442448 
L 376.40716 292.460017 
L 375.04823 292.280665 
L 373.688902 292.35466 
L 371.163605 291.995195 
L 367.276115 291.759006 
L 365.914798 291.58073 
L 364.553162 291.53517 
L 362.023409 291.231329 
L 351.502322 290.028756 
L 345.06264 288.991666 
L 343.695673 288.803842 
L 342.523737 288.524107 
L 339.788131 288.151667 
L 334.704198 287.10533 
L 333.334684 286.680454 
L 331.964773 286.481074 
L 320.209046 283.385296 
L 319.032176 282.884899 
L 316.481337 282.180249 
L 315.107368 281.621413 
L 312.554778 280.903936 
L 308.625513 279.167381 
L 305.873516 278.299837 
L 304.693622 277.667053 
L 302.136497 276.517421 
L 294.261416 272.494386 
L 288.939801 269.472765 
L 287.756566 268.482009 
L 286.375832 267.756307 
L 282.429221 264.987541 
L 281.244752 264.203431 
L 277.294759 261.15321 
L 274.725937 259.208832 
L 269.387253 254.392987 
L 266.815128 252.316591 
L 264.241969 249.716694 
L 260.281194 245.460332 
L 259.092468 244.390043 
L 257.705329 242.89496 
L 256.516126 241.253645 
L 255.12847 239.643181 
L 252.550536 237.181101 
L 249.971608 233.440428 
L 248.58252 232.061223 
L 244.612037 227.213443 
L 243.420447 225.113693 
L 239.44686 219.871878 
L 238.254315 218.457131 
L 235.470847 213.866241 
L 232.885195 210.000717 
L 231.691456 208.670779 
L 227.710828 201.837145 
L 222.532521 193.626448 
L 218.546522 186.414353 
L 217.350276 184.844428 
L 215.954385 182.563248 
L 213.361253 177.676942 
L 210.767206 173.060252 
L 208.172125 168.658455 
L 205.576129 163.757096 
L 204.17789 161.154792 
L 201.580421 156.894428 
L 196.38262 147.50221 
L 195.182595 145.680348 
L 192.581824 140.926798 
L 189.980138 136.394584 
L 187.377538 132.253897 
L 184.773982 127.644668 
L 183.371724 125.252448 
L 180.766737 121.660807 
L 179.564165 119.501591 
L 178.160873 117.392655 
L 176.957864 115.383156 
L 172.946402 110.264957 
L 171.742517 108.34797 
L 169.133511 105.084247 
L 167.728309 103.66089 
L 165.117911 100.718907 
L 163.912793 99.321565 
L 162.506636 98.054052 
L 161.301121 97.319684 
L 159.894447 96.070687 
L 158.688534 94.744937 
L 157.281422 93.612337 
L 154.667483 91.977275 
L 152.052668 90.590425 
L 150.84556 89.87026 
L 149.437017 89.411426 
L 148.229472 89.137799 
L 146.820491 88.617003 
L 145.612549 88.428518 
L 142.994749 88.458349 
L 141.78625 88.367863 
L 139.167217 88.730369 
L 136.54735 89.593326 
L 135.1363 90.22379 
L 133.926606 90.492596 
L 132.515079 91.312629 
L 129.893063 93.145729 
L 126.059404 96.357054 
L 124.848398 97.800443 
L 123.435318 99.150745 
L 122.223954 100.665281 
L 119.598675 103.516426 
L 118.184721 105.343214 
L 114.345691 111.176966 
L 112.930901 113.194331 
L 105.246395 126.437589 
L 101.199205 134.942611 
L 99.984698 136.920449 
L 98.769991 139.429314 
L 94.719817 148.557168 
L 93.504435 150.75531 
L 92.086223 153.632313 
L 90.870482 156.796912 
L 89.451873 159.650082 
L 88.235734 162.74744 
L 87.019477 164.815778 
L 80.327035 180.110517 
L 79.109703 182.182435 
L 77.892212 185.167147 
L 76.471573 188.290024 
L 75.253764 191.323173 
L 73.832727 194.015918 
L 73.832727 194.015918 
" clip-path="url(#pbae486923d)" style="fill: none; stroke: #808080; stroke-width: 1.5; stroke-linecap: round"/>
   </g>
   <g id="line2d_19">
    <path d="M 398.487273 289.815977 
L 397.13431 289.927235 
L 393.266475 289.73571 
L 392.105599 289.563189 
L 390.750886 289.673262 
L 385.521972 289.226254 
L 384.165509 289.318498 
L 365.914798 287.774489 
L 364.553162 287.526882 
L 362.023409 287.444225 
L 360.660739 287.153517 
L 358.129156 286.898652 
L 354.232039 286.288766 
L 352.867379 286.210134 
L 348.966442 285.43478 
L 347.60043 285.274068 
L 346.429289 284.997589 
L 342.523737 284.35005 
L 339.788131 283.816013 
L 338.61532 283.695229 
L 330.79029 281.646212 
L 329.419742 281.366917 
L 320.209046 278.633695 
L 319.032176 278.11826 
L 316.481337 277.286379 
L 315.107368 276.663234 
L 312.554778 275.966786 
L 308.625513 273.96225 
L 305.873516 273.024215 
L 304.693622 272.354113 
L 303.316868 271.714795 
L 299.381396 269.373458 
L 298.20023 268.907208 
L 288.939801 263.155137 
L 287.756566 262.04019 
L 286.375832 261.252846 
L 281.244752 257.380756 
L 275.911679 252.690854 
L 274.725937 251.696581 
L 270.771766 247.827636 
L 268.200238 245.240966 
L 266.815128 243.879518 
L 257.705329 233.253661 
L 255.12847 229.567587 
L 252.550536 226.815892 
L 249.971608 222.538835 
L 248.58252 221.043344 
L 246.002001 217.624345 
L 244.612037 215.466631 
L 243.420447 213.100062 
L 238.254315 205.486704 
L 234.277585 198.258988 
L 232.885195 195.917389 
L 231.691456 194.348528 
L 226.516173 184.442891 
L 223.92706 180.037998 
L 221.137704 174.292262 
L 218.546522 169.156698 
L 217.350276 167.417128 
L 214.757701 162.00676 
L 209.569608 151.482557 
L 206.974089 146.00078 
L 205.576129 143.060953 
L 204.17789 139.842192 
L 202.979177 137.806743 
L 198.981998 129.672355 
L 197.782371 126.949486 
L 196.38262 124.102862 
L 195.182595 122.051315 
L 192.581824 116.558719 
L 191.181039 113.417261 
L 187.377538 106.542898 
L 185.975758 103.345763 
L 183.371724 98.304056 
L 180.766737 93.899946 
L 179.564165 91.391473 
L 176.957864 86.711449 
L 175.554095 84.498608 
L 174.350648 82.83702 
L 170.337793 76.225923 
L 169.133511 74.708029 
L 165.117911 69.076953 
L 163.912793 67.465998 
L 162.506636 65.919593 
L 161.301121 65.085212 
L 159.894447 63.641118 
L 158.688534 62.053291 
L 156.075071 59.490174 
L 150.84556 55.886432 
L 149.437017 55.205872 
L 148.229472 54.77227 
L 146.820491 54.147922 
L 145.612549 53.877495 
L 144.404447 53.91288 
L 142.994749 53.58909 
L 140.376115 53.601999 
L 139.167217 53.800272 
L 136.54735 54.49727 
L 132.515079 56.241765 
L 128.682614 59.44478 
L 127.270211 60.820144 
L 126.059404 61.727463 
L 123.435318 65.07685 
L 119.598675 69.935115 
L 118.184721 72.116243 
L 116.972601 74.196785 
L 114.345691 78.355165 
L 112.930901 80.694294 
L 106.460186 93.38426 
L 102.615944 102.013754 
L 101.199205 105.663411 
L 99.984698 107.889594 
L 98.769991 110.75813 
L 96.137591 117.571445 
L 94.719817 121.191834 
L 92.086223 127.272401 
L 90.870482 130.921797 
L 89.451873 134.365916 
L 88.235734 138.025125 
L 87.019477 140.381372 
L 85.60027 143.963306 
L 81.747037 154.772478 
L 80.327035 158.145293 
L 79.109703 160.643731 
L 76.471573 168.03787 
L 75.253764 171.264065 
L 73.832727 174.672957 
L 73.832727 174.672957 
" clip-path="url(#pbae486923d)" style="fill: none; stroke: #808080; stroke-width: 1.5; stroke-linecap: round"/>
   </g>
   <g id="line2d_20">
    <path d="M 268.200238 283.221743 
L 266.815128 283.090671 
L 264.241969 282.699316 
L 261.667736 282.387234 
L 259.092468 282.082995 
L 257.705329 281.952209 
L 255.12847 281.47281 
L 252.550536 281.197092 
L 249.971608 280.680326 
L 247.391646 280.467827 
L 244.612037 280.000906 
L 242.029966 279.470518 
L 240.837898 279.362552 
L 232.885195 277.914774 
L 230.298509 277.476437 
L 229.104332 277.172706 
L 223.92706 276.2842 
L 222.532521 275.934633 
L 221.137704 275.755937 
L 218.546522 275.095284 
L 215.954385 274.752575 
L 212.164132 273.904858 
L 210.767206 273.678879 
L 208.172125 273.065971 
L 202.979177 272.036624 
L 197.782371 270.845675 
L 192.581824 269.790969 
L 180.766737 267.419617 
L 179.564165 267.216137 
L 178.160873 266.801701 
L 170.337793 265.403215 
L 166.523629 264.750748 
L 163.912793 264.225964 
L 157.281422 263.376573 
L 154.667483 262.944085 
L 145.612549 261.766131 
L 144.404447 261.755371 
L 131.305028 260.076277 
L 129.893063 259.775122 
L 126.059404 259.338991 
L 123.435318 258.831952 
L 122.223954 258.486484 
L 118.184721 257.700519 
L 114.345691 256.415919 
L 112.930901 256.009946 
L 109.089484 254.477989 
L 105.246395 252.641465 
L 101.199205 249.937631 
L 99.984698 249.248237 
L 98.769991 248.312443 
L 92.086223 242.225411 
L 90.870482 240.432841 
L 89.451873 238.928987 
L 88.235734 237.227173 
L 87.019477 235.718785 
L 84.383615 231.817609 
L 80.327035 224.533471 
L 79.109703 222.463846 
L 77.892212 219.548042 
L 76.471573 216.441752 
L 75.253764 213.179108 
L 73.832727 209.979353 
L 73.832727 209.979353 
" clip-path="url(#pbae486923d)" style="fill: none; stroke: #ff0000; stroke-width: 1.5; stroke-linecap: round"/>
   </g>
   <g id="line2d_21">
    <path d="M 268.200238 248.44746 
L 266.815128 247.946196 
L 264.241969 246.631579 
L 261.667736 245.526142 
L 257.705329 243.596084 
L 255.12847 242.178084 
L 252.550536 241.008415 
L 247.391646 238.029012 
L 244.612037 236.512163 
L 243.420447 235.60749 
L 240.837898 234.004964 
L 238.254315 232.540675 
L 232.885195 228.755086 
L 231.691456 228.129131 
L 230.298509 227.14551 
L 229.104332 226.05292 
L 223.92706 222.533694 
L 222.532521 221.294628 
L 215.954385 216.38424 
L 214.757701 215.315327 
L 208.172125 210.121184 
L 205.576129 207.977452 
L 204.17789 206.737707 
L 200.381271 203.809489 
L 189.980138 195.438844 
L 184.773982 191.296543 
L 183.371724 190.113853 
L 182.169511 189.49466 
L 178.160873 186.515809 
L 176.957864 185.641778 
L 171.742517 182.289607 
L 170.337793 181.365655 
L 166.523629 179.262181 
L 163.912793 177.674394 
L 158.688534 175.498335 
L 156.075071 174.309027 
L 154.667483 173.857746 
L 153.460773 173.602385 
L 150.84556 172.674395 
L 149.437017 172.231268 
L 144.404447 171.237658 
L 139.167217 170.725329 
L 135.1363 170.478528 
L 132.515079 170.495083 
L 128.682614 170.682745 
L 127.270211 170.837232 
L 126.059404 171.134745 
L 124.848398 171.190343 
L 123.435318 171.452094 
L 122.223954 171.543978 
L 109.089484 173.524247 
L 105.246395 173.786141 
L 103.830093 173.873569 
L 102.615944 173.745843 
L 101.199205 173.842026 
L 97.352655 173.283547 
L 96.137591 173.078075 
L 92.086223 171.76155 
L 89.451873 170.312739 
L 85.60027 167.790716 
L 84.383615 166.881868 
L 81.747037 163.677299 
L 79.109703 160.847074 
L 75.253764 154.514151 
L 73.832727 152.012669 
L 73.832727 152.012669 
" clip-path="url(#pbae486923d)" style="fill: none; stroke: #ff0000; stroke-width: 1.5; stroke-linecap: round"/>
   </g>
   <g id="patch_3">
    <path d="M 57.6 307.584 
L 57.6 41.472 
" style="fill: none; stroke: #ffffff; stroke-width: 0.8; stroke-linejoin: miter; stroke-linecap: square"/>
   </g>
   <g id="patch_4">
    <path d="M 414.72 307.584 
L 414.72 41.472 
" style="fill: none; stroke: #ffffff; stroke-width: 0.8; stroke-linejoin: miter; stroke-linecap: square"/>
   </g>
   <g id="patch_5">
    <path d="M 57.6 307.584 
L 414.72 307.584 
" style="fill: none; stroke: #ffffff; stroke-width: 0.8; stroke-linejoin: miter; stroke-linecap: square"/>
   </g>
   <g id="patch_6">
    <path d="M 57.6 41.472 
L 414.72 41.472 
" style="fill: none; stroke: #ffffff; stroke-width: 0.8; stroke-linejoin: miter; stroke-linecap: square"/>
   </g>
   <g id="legend_1">
    <g id="patch_7">
     <path d="M 288.518438 78.82825 
L 407.72 78.82825 
Q 409.72 78.82825 409.72 76.82825 
L 409.72 48.472 
Q 409.72 46.472 407.72 46.472 
L 288.518438 46.472 
Q 286.518438 46.472 286.518438 48.472 
L 286.518438 76.82825 
Q 286.518438 78.82825 288.518438 78.82825 
z
" style="fill: #eaeaf2; opacity: 0.8; stroke: #cccccc; stroke-linejoin: miter"/>
    </g>
    <g id="line2d_22">
     <path d="M 290.518438 54.570437 
L 300.518438 54.570437 
L 310.518438 54.570437 
" style="fill: none; stroke: #808080; stroke-width: 1.5; stroke-linecap: round"/>
    </g>
    <g id="text_13">
     <!-- Calibration series -->
     <g style="fill: #262626" transform="translate(318.518438 58.070437) scale(0.1 -0.1)">
      <defs>
       <path id="DejaVuSans-43" d="M 4122 4306 
L 4122 3641 
Q 3803 3938 3442 4084 
Q 3081 4231 2675 4231 
Q 1875 4231 1450 3742 
Q 1025 3253 1025 2328 
Q 1025 1406 1450 917 
Q 1875 428 2675 428 
Q 3081 428 3442 575 
Q 3803 722 4122 1019 
L 4122 359 
Q 3791 134 3420 21 
Q 3050 -91 2638 -91 
Q 1578 -91 968 557 
Q 359 1206 359 2328 
Q 359 3453 968 4101 
Q 1578 4750 2638 4750 
Q 3056 4750 3426 4639 
Q 3797 4528 4122 4306 
z
" transform="scale(0.015625)"/>
       <path id="DejaVuSans-61" d="M 2194 1759 
Q 1497 1759 1228 1600 
Q 959 1441 959 1056 
Q 959 750 1161 570 
Q 1363 391 1709 391 
Q 2188 391 2477 730 
Q 2766 1069 2766 1631 
L 2766 1759 
L 2194 1759 
z
M 3341 1997 
L 3341 0 
L 2766 0 
L 2766 531 
Q 2569 213 2275 61 
Q 1981 -91 1556 -91 
Q 1019 -91 701 211 
Q 384 513 384 1019 
Q 384 1609 779 1909 
Q 1175 2209 1959 2209 
L 2766 2209 
L 2766 2266 
Q 2766 2663 2505 2880 
Q 2244 3097 1772 3097 
Q 1472 3097 1187 3025 
Q 903 2953 641 2809 
L 641 3341 
Q 956 3463 1253 3523 
Q 1550 3584 1831 3584 
Q 2591 3584 2966 3190 
Q 3341 2797 3341 1997 
z
" transform="scale(0.015625)"/>
       <path id="DejaVuSans-6c" d="M 603 4863 
L 1178 4863 
L 1178 0 
L 603 0 
L 603 4863 
z
" transform="scale(0.015625)"/>
       <path id="DejaVuSans-69" d="M 603 3500 
L 1178 3500 
L 1178 0 
L 603 0 
L 603 3500 
z
M 603 4863 
L 1178 4863 
L 1178 4134 
L 603 4134 
L 603 4863 
z
" transform="scale(0.015625)"/>
       <path id="DejaVuSans-62" d="M 3116 1747 
Q 3116 2381 2855 2742 
Q 2594 3103 2138 3103 
Q 1681 3103 1420 2742 
Q 1159 2381 1159 1747 
Q 1159 1113 1420 752 
Q 1681 391 2138 391 
Q 2594 391 2855 752 
Q 3116 1113 3116 1747 
z
M 1159 2969 
Q 1341 3281 1617 3432 
Q 1894 3584 2278 3584 
Q 2916 3584 3314 3078 
Q 3713 2572 3713 1747 
Q 3713 922 3314 415 
Q 2916 -91 2278 -91 
Q 1894 -91 1617 61 
Q 1341 213 1159 525 
L 1159 0 
L 581 0 
L 581 4863 
L 1159 4863 
L 1159 2969 
z
" transform="scale(0.015625)"/>
       <path id="DejaVuSans-72" d="M 2631 2963 
Q 2534 3019 2420 3045 
Q 2306 3072 2169 3072 
Q 1681 3072 1420 2755 
Q 1159 2438 1159 1844 
L 1159 0 
L 581 0 
L 581 3500 
L 1159 3500 
L 1159 2956 
Q 1341 3275 1631 3429 
Q 1922 3584 2338 3584 
Q 2397 3584 2469 3576 
Q 2541 3569 2628 3553 
L 2631 2963 
z
" transform="scale(0.015625)"/>
       <path id="DejaVuSans-74" d="M 1172 4494 
L 1172 3500 
L 2356 3500 
L 2356 3053 
L 1172 3053 
L 1172 1153 
Q 1172 725 1289 603 
Q 1406 481 1766 481 
L 2356 481 
L 2356 0 
L 1766 0 
Q 1100 0 847 248 
Q 594 497 594 1153 
L 594 3053 
L 172 3053 
L 172 3500 
L 594 3500 
L 594 4494 
L 1172 4494 
z
" transform="scale(0.015625)"/>
       <path id="DejaVuSans-6f" d="M 1959 3097 
Q 1497 3097 1228 2736 
Q 959 2375 959 1747 
Q 959 1119 1226 758 
Q 1494 397 1959 397 
Q 2419 397 2687 759 
Q 2956 1122 2956 1747 
Q 2956 2369 2687 2733 
Q 2419 3097 1959 3097 
z
M 1959 3584 
Q 2709 3584 3137 3096 
Q 3566 2609 3566 1747 
Q 3566 888 3137 398 
Q 2709 -91 1959 -91 
Q 1206 -91 779 398 
Q 353 888 353 1747 
Q 353 2609 779 3096 
Q 1206 3584 1959 3584 
z
" transform="scale(0.015625)"/>
       <path id="DejaVuSans-6e" d="M 3513 2113 
L 3513 0 
L 2938 0 
L 2938 2094 
Q 2938 2591 2744 2837 
Q 2550 3084 2163 3084 
Q 1697 3084 1428 2787 
Q 1159 2491 1159 1978 
L 1159 0 
L 581 0 
L 581 3500 
L 1159 3500 
L 1159 2956 
Q 1366 3272 1645 3428 
Q 1925 3584 2291 3584 
Q 2894 3584 3203 3211 
Q 3513 2838 3513 2113 
z
" transform="scale(0.015625)"/>
       <path id="DejaVuSans-20" transform="scale(0.015625)"/>
       <path id="DejaVuSans-73" d="M 2834 3397 
L 2834 2853 
Q 2591 2978 2328 3040 
Q 2066 3103 1784 3103 
Q 1356 3103 1142 2972 
Q 928 2841 928 2578 
Q 928 2378 1081 2264 
Q 1234 2150 1697 2047 
L 1894 2003 
Q 2506 1872 2764 1633 
Q 3022 1394 3022 966 
Q 3022 478 2636 193 
Q 2250 -91 1575 -91 
Q 1294 -91 989 -36 
Q 684 19 347 128 
L 347 722 
Q 666 556 975 473 
Q 1284 391 1588 391 
Q 1994 391 2212 530 
Q 2431 669 2431 922 
Q 2431 1156 2273 1281 
Q 2116 1406 1581 1522 
L 1381 1569 
Q 847 1681 609 1914 
Q 372 2147 372 2553 
Q 372 3047 722 3315 
Q 1072 3584 1716 3584 
Q 2034 3584 2315 3537 
Q 2597 3491 2834 3397 
z
" transform="scale(0.015625)"/>
       <path id="DejaVuSans-65" d="M 3597 1894 
L 3597 1613 
L 953 1613 
Q 991 1019 1311 708 
Q 1631 397 2203 397 
Q 2534 397 2845 478 
Q 3156 559 3463 722 
L 3463 178 
Q 3153 47 2828 -22 
Q 2503 -91 2169 -91 
Q 1331 -91 842 396 
Q 353 884 353 1716 
Q 353 2575 817 3079 
Q 1281 3584 2069 3584 
Q 2775 3584 3186 3129 
Q 3597 2675 3597 1894 
z
M 3022 2063 
Q 3016 2534 2758 2815 
Q 2500 3097 2075 3097 
Q 1594 3097 1305 2825 
Q 1016 2553 972 2059 
L 3022 2063 
z
" transform="scale(0.015625)"/>
      </defs>
      <use xlink:href="#DejaVuSans-43"/>
      <use xlink:href="#DejaVuSans-61" x="69.824219"/>
      <use xlink:href="#DejaVuSans-6c" x="131.103516"/>
      <use xlink:href="#DejaVuSans-69" x="158.886719"/>
      <use xlink:href="#DejaVuSans-62" x="186.669922"/>
      <use xlink:href="#DejaVuSans-72" x="250.146484"/>
      <use xlink:href="#DejaVuSans-61" x="291.259766"/>
      <use xlink:href="#DejaVuSans-74" x="352.539062"/>
      <use xlink:href="#DejaVuSans-69" x="391.748047"/>
      <use xlink:href="#DejaVuSans-6f" x="419.53125"/>
      <use xlink:href="#DejaVuSans-6e" x="480.712891"/>
      <use xlink:href="#DejaVuSans-20" x="544.091797"/>
      <use xlink:href="#DejaVuSans-73" x="575.878906"/>
      <use xlink:href="#DejaVuSans-65" x="627.978516"/>
      <use xlink:href="#DejaVuSans-72" x="689.501953"/>
      <use xlink:href="#DejaVuSans-69" x="730.615234"/>
      <use xlink:href="#DejaVuSans-65" x="758.398438"/>
      <use xlink:href="#DejaVuSans-73" x="819.921875"/>
     </g>
    </g>
    <g id="line2d_23">
     <path d="M 290.518438 69.248562 
L 300.518438 69.248562 
L 310.518438 69.248562 
" style="fill: none; stroke: #ff0000; stroke-width: 1.5; stroke-linecap: round"/>
    </g>
    <g id="text_14">
     <!-- Exercises -->
     <g style="fill: #262626" transform="translate(318.518438 72.748562) scale(0.1 -0.1)">
      <defs>
       <path id="DejaVuSans-45" d="M 628 4666 
L 3578 4666 
L 3578 4134 
L 1259 4134 
L 1259 2753 
L 3481 2753 
L 3481 2222 
L 1259 2222 
L 1259 531 
L 3634 531 
L 3634 0 
L 628 0 
L 628 4666 
z
" transform="scale(0.015625)"/>
       <path id="DejaVuSans-78" d="M 3513 3500 
L 2247 1797 
L 3578 0 
L 2900 0 
L 1881 1375 
L 863 0 
L 184 0 
L 1544 1831 
L 300 3500 
L 978 3500 
L 1906 2253 
L 2834 3500 
L 3513 3500 
z
" transform="scale(0.015625)"/>
       <path id="DejaVuSans-63" d="M 3122 3366 
L 3122 2828 
Q 2878 2963 2633 3030 
Q 2388 3097 2138 3097 
Q 1578 3097 1268 2742 
Q 959 2388 959 1747 
Q 959 1106 1268 751 
Q 1578 397 2138 397 
Q 2388 397 2633 464 
Q 2878 531 3122 666 
L 3122 134 
Q 2881 22 2623 -34 
Q 2366 -91 2075 -91 
Q 1284 -91 818 406 
Q 353 903 353 1747 
Q 353 2603 823 3093 
Q 1294 3584 2113 3584 
Q 2378 3584 2631 3529 
Q 2884 3475 3122 3366 
z
" transform="scale(0.015625)"/>
      </defs>
      <use xlink:href="#DejaVuSans-45"/>
      <use xlink:href="#DejaVuSans-78" x="63.183594"/>
      <use xlink:href="#DejaVuSans-65" x="119.238281"/>
      <use xlink:href="#DejaVuSans-72" x="180.761719"/>
      <use xlink:href="#DejaVuSans-63" x="219.625"/>
      <use xlink:href="#DejaVuSans-69" x="274.605469"/>
      <use xlink:href="#DejaVuSans-73" x="302.388672"/>
      <use xlink:href="#DejaVuSans-65" x="354.488281"/>
      <use xlink:href="#DejaVuSans-73" x="416.011719"/>
     </g>
    </g>
   </g>
  </g>
 </g>
 <defs>
  <clipPath id="pbae486923d">
   <rect x="57.6" y="41.472" width="357.12" height="266.112"/>
  </clipPath>
 </defs>
</svg>
