<?xml version="1.0" encoding="utf-8" standalone="no"?>
<!DOCTYPE svg PUBLIC "-//W3C//DTD SVG 1.1//EN"
  "http://www.w3.org/Graphics/SVG/1.1/DTD/svg11.dtd">
<svg xmlns:xlink="http://www.w3.org/1999/xlink" width="460.8pt" height="345.6pt" viewBox="0 0 460.8 345.6" xmlns="http://www.w3.org/2000/svg" version="1.1">
 <metadata>
  <rdf:RDF xmlns:dc="http://purl.org/dc/elements/1.1/" xmlns:cc="http://creativecommons.org/ns#" xmlns:rdf="http://www.w3.org/1999/02/22-rdf-syntax-ns#">
   <cc:Work>
    <dc:type rdf:resource="http://purl.org/dc/dcmitype/StillImage"/>
    <dc:date>2024-10-07T20:29:44.103554</dc:date>
    <dc:format>image/svg+xml</dc:format>
    <dc:creator>
     <cc:Agent>
      <dc:title>Matplotlib v3.9.2, https://matplotlib.org/</dc:title>
     </cc:Agent>
    </dc:creator>
   </cc:Work>
  </rdf:RDF>
 </metadata>
 <defs>
  <style type="text/css">*{stroke-linejoin: round; stroke-linecap: butt}</style>
 </defs>
 <g id="figure_1">
  <g id="patch_1">
   <path d="M 0 345.6 
L 460.8 345.6 
L 460.8 0 
L 0 0 
z
" style="fill: #ffffff"/>
  </g>
  <g id="axes_1">
   <g id="patch_2">
    <path d="M 57.6 307.584 
L 414.72 307.584 
L 414.72 41.472 
L 57.6 41.472 
z
" style="fill: #ffffff"/>
   </g>
   <g id="matplotlib.axis_1">
    <g id="xtick_1">
     <g id="line2d_1">
      <defs>
       <path id="m1127bc71d9" d="M 0 0 
L 0 3.5 
" style="stroke: #000000; stroke-width: 0.8"/>
      </defs>
      <g>
       <use xlink:href="#m1127bc71d9" x="81.408" y="307.584" style="stroke: #000000; stroke-width: 0.8"/>
      </g>
     </g>
     <g id="text_1">
      <!-- 360 -->
      <g transform="translate(71.86425 322.182437) scale(0.1 -0.1)">
       <defs>
        <path id="DejaVuSans-33" d="M 2597 2516 
Q 3050 2419 3304 2112 
Q 3559 1806 3559 1356 
Q 3559 666 3084 287 
Q 2609 -91 1734 -91 
Q 1441 -91 1130 -33 
Q 819 25 488 141 
L 488 750 
Q 750 597 1062 519 
Q 1375 441 1716 441 
Q 2309 441 2620 675 
Q 2931 909 2931 1356 
Q 2931 1769 2642 2001 
Q 2353 2234 1838 2234 
L 1294 2234 
L 1294 2753 
L 1863 2753 
Q 2328 2753 2575 2939 
Q 2822 3125 2822 3475 
Q 2822 3834 2567 4026 
Q 2313 4219 1838 4219 
Q 1578 4219 1281 4162 
Q 984 4106 628 3988 
L 628 4550 
Q 988 4650 1302 4700 
Q 1616 4750 1894 4750 
Q 2613 4750 3031 4423 
Q 3450 4097 3450 3541 
Q 3450 3153 3228 2886 
Q 3006 2619 2597 2516 
z
" transform="scale(0.015625)"/>
        <path id="DejaVuSans-36" d="M 2113 2584 
Q 1688 2584 1439 2293 
Q 1191 2003 1191 1497 
Q 1191 994 1439 701 
Q 1688 409 2113 409 
Q 2538 409 2786 701 
Q 3034 994 3034 1497 
Q 3034 2003 2786 2293 
Q 2538 2584 2113 2584 
z
M 3366 4563 
L 3366 3988 
Q 3128 4100 2886 4159 
Q 2644 4219 2406 4219 
Q 1781 4219 1451 3797 
Q 1122 3375 1075 2522 
Q 1259 2794 1537 2939 
Q 1816 3084 2150 3084 
Q 2853 3084 3261 2657 
Q 3669 2231 3669 1497 
Q 3669 778 3244 343 
Q 2819 -91 2113 -91 
Q 1303 -91 875 529 
Q 447 1150 447 2328 
Q 447 3434 972 4092 
Q 1497 4750 2381 4750 
Q 2619 4750 2861 4703 
Q 3103 4656 3366 4563 
z
" transform="scale(0.015625)"/>
        <path id="DejaVuSans-30" d="M 2034 4250 
Q 1547 4250 1301 3770 
Q 1056 3291 1056 2328 
Q 1056 1369 1301 889 
Q 1547 409 2034 409 
Q 2525 409 2770 889 
Q 3016 1369 3016 2328 
Q 3016 3291 2770 3770 
Q 2525 4250 2034 4250 
z
M 2034 4750 
Q 2819 4750 3233 4129 
Q 3647 3509 3647 2328 
Q 3647 1150 3233 529 
Q 2819 -91 2034 -91 
Q 1250 -91 836 529 
Q 422 1150 422 2328 
Q 422 3509 836 4129 
Q 1250 4750 2034 4750 
z
" transform="scale(0.015625)"/>
       </defs>
       <use xlink:href="#DejaVuSans-33"/>
       <use xlink:href="#DejaVuSans-36" x="63.623047"/>
       <use xlink:href="#DejaVuSans-30" x="127.246094"/>
      </g>
     </g>
    </g>
    <g id="xtick_2">
     <g id="line2d_2">
      <g>
       <use xlink:href="#m1127bc71d9" x="129.024" y="307.584" style="stroke: #000000; stroke-width: 0.8"/>
      </g>
     </g>
     <g id="text_2">
      <!-- 380 -->
      <g transform="translate(119.48025 322.182437) scale(0.1 -0.1)">
       <defs>
        <path id="DejaVuSans-38" d="M 2034 2216 
Q 1584 2216 1326 1975 
Q 1069 1734 1069 1313 
Q 1069 891 1326 650 
Q 1584 409 2034 409 
Q 2484 409 2743 651 
Q 3003 894 3003 1313 
Q 3003 1734 2745 1975 
Q 2488 2216 2034 2216 
z
M 1403 2484 
Q 997 2584 770 2862 
Q 544 3141 544 3541 
Q 544 4100 942 4425 
Q 1341 4750 2034 4750 
Q 2731 4750 3128 4425 
Q 3525 4100 3525 3541 
Q 3525 3141 3298 2862 
Q 3072 2584 2669 2484 
Q 3125 2378 3379 2068 
Q 3634 1759 3634 1313 
Q 3634 634 3220 271 
Q 2806 -91 2034 -91 
Q 1263 -91 848 271 
Q 434 634 434 1313 
Q 434 1759 690 2068 
Q 947 2378 1403 2484 
z
M 1172 3481 
Q 1172 3119 1398 2916 
Q 1625 2713 2034 2713 
Q 2441 2713 2670 2916 
Q 2900 3119 2900 3481 
Q 2900 3844 2670 4047 
Q 2441 4250 2034 4250 
Q 1625 4250 1398 4047 
Q 1172 3844 1172 3481 
z
" transform="scale(0.015625)"/>
       </defs>
       <use xlink:href="#DejaVuSans-33"/>
       <use xlink:href="#DejaVuSans-38" x="63.623047"/>
       <use xlink:href="#DejaVuSans-30" x="127.246094"/>
      </g>
     </g>
    </g>
    <g id="xtick_3">
     <g id="line2d_3">
      <g>
       <use xlink:href="#m1127bc71d9" x="176.64" y="307.584" style="stroke: #000000; stroke-width: 0.8"/>
      </g>
     </g>
     <g id="text_3">
      <!-- 400 -->
      <g transform="translate(167.09625 322.182437) scale(0.1 -0.1)">
       <defs>
        <path id="DejaVuSans-34" d="M 2419 4116 
L 825 1625 
L 2419 1625 
L 2419 4116 
z
M 2253 4666 
L 3047 4666 
L 3047 1625 
L 3713 1625 
L 3713 1100 
L 3047 1100 
L 3047 0 
L 2419 0 
L 2419 1100 
L 313 1100 
L 313 1709 
L 2253 4666 
z
" transform="scale(0.015625)"/>
       </defs>
       <use xlink:href="#DejaVuSans-34"/>
       <use xlink:href="#DejaVuSans-30" x="63.623047"/>
       <use xlink:href="#DejaVuSans-30" x="127.246094"/>
      </g>
     </g>
    </g>
    <g id="xtick_4">
     <g id="line2d_4">
      <g>
       <use xlink:href="#m1127bc71d9" x="224.256" y="307.584" style="stroke: #000000; stroke-width: 0.8"/>
      </g>
     </g>
     <g id="text_4">
      <!-- 420 -->
      <g transform="translate(214.71225 322.182437) scale(0.1 -0.1)">
       <defs>
        <path id="DejaVuSans-32" d="M 1228 531 
L 3431 531 
L 3431 0 
L 469 0 
L 469 531 
Q 828 903 1448 1529 
Q 2069 2156 2228 2338 
Q 2531 2678 2651 2914 
Q 2772 3150 2772 3378 
Q 2772 3750 2511 3984 
Q 2250 4219 1831 4219 
Q 1534 4219 1204 4116 
Q 875 4013 500 3803 
L 500 4441 
Q 881 4594 1212 4672 
Q 1544 4750 1819 4750 
Q 2544 4750 2975 4387 
Q 3406 4025 3406 3419 
Q 3406 3131 3298 2873 
Q 3191 2616 2906 2266 
Q 2828 2175 2409 1742 
Q 1991 1309 1228 531 
z
" transform="scale(0.015625)"/>
       </defs>
       <use xlink:href="#DejaVuSans-34"/>
       <use xlink:href="#DejaVuSans-32" x="63.623047"/>
       <use xlink:href="#DejaVuSans-30" x="127.246094"/>
      </g>
     </g>
    </g>
    <g id="xtick_5">
     <g id="line2d_5">
      <g>
       <use xlink:href="#m1127bc71d9" x="271.872" y="307.584" style="stroke: #000000; stroke-width: 0.8"/>
      </g>
     </g>
     <g id="text_5">
      <!-- 440 -->
      <g transform="translate(262.32825 322.182437) scale(0.1 -0.1)">
       <use xlink:href="#DejaVuSans-34"/>
       <use xlink:href="#DejaVuSans-34" x="63.623047"/>
       <use xlink:href="#DejaVuSans-30" x="127.246094"/>
      </g>
     </g>
    </g>
    <g id="xtick_6">
     <g id="line2d_6">
      <g>
       <use xlink:href="#m1127bc71d9" x="319.488" y="307.584" style="stroke: #000000; stroke-width: 0.8"/>
      </g>
     </g>
     <g id="text_6">
      <!-- 460 -->
      <g transform="translate(309.94425 322.182437) scale(0.1 -0.1)">
       <use xlink:href="#DejaVuSans-34"/>
       <use xlink:href="#DejaVuSans-36" x="63.623047"/>
       <use xlink:href="#DejaVuSans-30" x="127.246094"/>
      </g>
     </g>
    </g>
    <g id="xtick_7">
     <g id="line2d_7">
      <g>
       <use xlink:href="#m1127bc71d9" x="367.104" y="307.584" style="stroke: #000000; stroke-width: 0.8"/>
      </g>
     </g>
     <g id="text_7">
      <!-- 480 -->
      <g transform="translate(357.56025 322.182437) scale(0.1 -0.1)">
       <use xlink:href="#DejaVuSans-34"/>
       <use xlink:href="#DejaVuSans-38" x="63.623047"/>
       <use xlink:href="#DejaVuSans-30" x="127.246094"/>
      </g>
     </g>
    </g>
    <g id="xtick_8">
     <g id="line2d_8">
      <g>
       <use xlink:href="#m1127bc71d9" x="414.72" y="307.584" style="stroke: #000000; stroke-width: 0.8"/>
      </g>
     </g>
     <g id="text_8">
      <!-- 500 -->
      <g transform="translate(405.17625 322.182437) scale(0.1 -0.1)">
       <defs>
        <path id="DejaVuSans-35" d="M 691 4666 
L 3169 4666 
L 3169 4134 
L 1269 4134 
L 1269 2991 
Q 1406 3038 1543 3061 
Q 1681 3084 1819 3084 
Q 2600 3084 3056 2656 
Q 3513 2228 3513 1497 
Q 3513 744 3044 326 
Q 2575 -91 1722 -91 
Q 1428 -91 1123 -41 
Q 819 9 494 109 
L 494 744 
Q 775 591 1075 516 
Q 1375 441 1709 441 
Q 2250 441 2565 725 
Q 2881 1009 2881 1497 
Q 2881 1984 2565 2268 
Q 2250 2553 1709 2553 
Q 1456 2553 1204 2497 
Q 953 2441 691 2322 
L 691 4666 
z
" transform="scale(0.015625)"/>
       </defs>
       <use xlink:href="#DejaVuSans-35"/>
       <use xlink:href="#DejaVuSans-30" x="63.623047"/>
       <use xlink:href="#DejaVuSans-30" x="127.246094"/>
      </g>
     </g>
    </g>
   </g>
   <g id="matplotlib.axis_2">
    <g id="ytick_1">
     <g id="line2d_9">
      <defs>
       <path id="m30bbc6cb71" d="M 0 0 
L -3.5 0 
" style="stroke: #000000; stroke-width: 0.8"/>
      </defs>
      <g>
       <use xlink:href="#m30bbc6cb71" x="57.6" y="295.549354" style="stroke: #000000; stroke-width: 0.8"/>
      </g>
     </g>
     <g id="text_9">
      <!-- 0.0 -->
      <g transform="translate(34.696875 299.348573) scale(0.1 -0.1)">
       <defs>
        <path id="DejaVuSans-2e" d="M 684 794 
L 1344 794 
L 1344 0 
L 684 0 
L 684 794 
z
" transform="scale(0.015625)"/>
       </defs>
       <use xlink:href="#DejaVuSans-30"/>
       <use xlink:href="#DejaVuSans-2e" x="63.623047"/>
       <use xlink:href="#DejaVuSans-30" x="95.410156"/>
      </g>
     </g>
    </g>
    <g id="ytick_2">
     <g id="line2d_10">
      <g>
       <use xlink:href="#m30bbc6cb71" x="57.6" y="251.70513" style="stroke: #000000; stroke-width: 0.8"/>
      </g>
     </g>
     <g id="text_10">
      <!-- 0.1 -->
      <g transform="translate(34.696875 255.504349) scale(0.1 -0.1)">
       <defs>
        <path id="DejaVuSans-31" d="M 794 531 
L 1825 531 
L 1825 4091 
L 703 3866 
L 703 4441 
L 1819 4666 
L 2450 4666 
L 2450 531 
L 3481 531 
L 3481 0 
L 794 0 
L 794 531 
z
" transform="scale(0.015625)"/>
       </defs>
       <use xlink:href="#DejaVuSans-30"/>
       <use xlink:href="#DejaVuSans-2e" x="63.623047"/>
       <use xlink:href="#DejaVuSans-31" x="95.410156"/>
      </g>
     </g>
    </g>
    <g id="ytick_3">
     <g id="line2d_11">
      <g>
       <use xlink:href="#m30bbc6cb71" x="57.6" y="207.860906" style="stroke: #000000; stroke-width: 0.8"/>
      </g>
     </g>
     <g id="text_11">
      <!-- 0.2 -->
      <g transform="translate(34.696875 211.660125) scale(0.1 -0.1)">
       <use xlink:href="#DejaVuSans-30"/>
       <use xlink:href="#DejaVuSans-2e" x="63.623047"/>
       <use xlink:href="#DejaVuSans-32" x="95.410156"/>
      </g>
     </g>
    </g>
    <g id="ytick_4">
     <g id="line2d_12">
      <g>
       <use xlink:href="#m30bbc6cb71" x="57.6" y="164.016682" style="stroke: #000000; stroke-width: 0.8"/>
      </g>
     </g>
     <g id="text_12">
      <!-- 0.3 -->
      <g transform="translate(34.696875 167.815901) scale(0.1 -0.1)">
       <use xlink:href="#DejaVuSans-30"/>
       <use xlink:href="#DejaVuSans-2e" x="63.623047"/>
       <use xlink:href="#DejaVuSans-33" x="95.410156"/>
      </g>
     </g>
    </g>
    <g id="ytick_5">
     <g id="line2d_13">
      <g>
       <use xlink:href="#m30bbc6cb71" x="57.6" y="120.172459" style="stroke: #000000; stroke-width: 0.8"/>
      </g>
     </g>
     <g id="text_13">
      <!-- 0.4 -->
      <g transform="translate(34.696875 123.971677) scale(0.1 -0.1)">
       <use xlink:href="#DejaVuSans-30"/>
       <use xlink:href="#DejaVuSans-2e" x="63.623047"/>
       <use xlink:href="#DejaVuSans-34" x="95.410156"/>
      </g>
     </g>
    </g>
    <g id="ytick_6">
     <g id="line2d_14">
      <g>
       <use xlink:href="#m30bbc6cb71" x="57.6" y="76.328235" style="stroke: #000000; stroke-width: 0.8"/>
      </g>
     </g>
     <g id="text_14">
      <!-- 0.5 -->
      <g transform="translate(34.696875 80.127454) scale(0.1 -0.1)">
       <use xlink:href="#DejaVuSans-30"/>
       <use xlink:href="#DejaVuSans-2e" x="63.623047"/>
       <use xlink:href="#DejaVuSans-35" x="95.410156"/>
      </g>
     </g>
    </g>
   </g>
   <g id="line2d_15">
    <path d="M 461.8 282.066576 
L 455.332083 281.595524 
L 452.812219 281.451241 
L 450.291919 281.434594 
L 448.131122 281.192698 
L 443.447991 280.965064 
L 438.40245 280.562265 
L 431.551256 280.033662 
L 429.026016 279.974524 
L 424.334892 279.514675 
L 405.189316 277.877018 
L 379.129118 275.030168 
L 374.417651 274.421995 
L 371.879913 274.201212 
L 367.16554 273.528226 
L 355.189973 271.933223 
L 345.746332 270.546729 
L 343.202564 270.229022 
L 338.477002 269.40359 
L 331.567174 268.421857 
L 317.007661 266.012517 
L 312.272144 265.204878 
L 307.534957 264.406077 
L 302.795881 263.682717 
L 295.501702 262.297351 
L 290.758266 261.595995 
L 283.822355 260.306142 
L 276.517495 259.157973 
L 269.574101 257.895969 
L 262.261395 256.811085 
L 257.50597 255.965392 
L 255.310516 255.726685 
L 247.990036 254.532548 
L 243.229598 253.852344 
L 238.46749 253.338823 
L 233.70371 252.673965 
L 221.970525 251.31649 
L 198.107451 249.522214 
L 190.756964 249.314932 
L 188.551048 249.213496 
L 186.344841 249.274083 
L 178.988395 249.208848 
L 162.422988 249.656826 
L 157.633997 250.072321 
L 152.843552 250.396183 
L 150.632042 250.706309 
L 148.051509 250.857336 
L 128.868588 253.005413 
L 126.65359 253.517754 
L 124.438373 253.778116 
L 114.835324 255.314666 
L 112.248907 255.728616 
L 110.031656 256.263686 
L 107.44444 256.732797 
L 105.226535 256.978073 
L 69.328172 264.145647 
L 64.881755 264.937244 
L 60.063483 265.953714 
L 57.46842 266.397776 
L 57.46842 266.397776 
" clip-path="url(#p5527b77688)" style="fill: none; stroke: #808080; stroke-width: 1.5; stroke-linecap: square"/>
   </g>
   <g id="line2d_16">
    <path d="M 461.8 276.734837 
L 452.812219 275.688465 
L 450.291919 275.520722 
L 448.131122 275.14509 
L 443.447991 274.644458 
L 433.71525 273.430821 
L 431.551256 272.917247 
L 429.026016 272.659146 
L 417.113878 270.773312 
L 414.585513 270.254196 
L 407.719788 269.170611 
L 405.189316 268.717504 
L 397.956242 267.182128 
L 395.785418 266.901196 
L 391.080563 265.797431 
L 388.546458 265.187558 
L 383.838696 264.440266 
L 379.129118 263.049787 
L 376.592398 262.707848 
L 369.341595 260.994908 
L 367.16554 260.238078 
L 364.626277 259.601676 
L 362.44935 258.941381 
L 357.731271 257.90702 
L 350.469061 255.742117 
L 347.92631 254.987302 
L 345.746332 254.530549 
L 343.202564 253.735894 
L 341.021787 252.929051 
L 329.0205 249.325091 
L 321.741361 246.863714 
L 319.556805 246.332965 
L 314.822306 244.819046 
L 312.272144 243.78177 
L 300.608056 239.990354 
L 295.501702 238.098056 
L 290.758266 236.6227 
L 281.266163 233.378296 
L 279.074705 232.855097 
L 269.574101 229.516575 
L 267.015148 228.835648 
L 257.50597 225.677236 
L 255.310516 225.161073 
L 245.793129 222.166189 
L 241.031892 221.077147 
L 236.268984 219.680524 
L 224.171283 216.917448 
L 219.402635 216.015664 
L 214.632316 215.357839 
L 209.860472 214.455708 
L 205.086956 213.824513 
L 195.535202 212.794695 
L 190.756964 212.510653 
L 188.551048 212.346178 
L 186.344841 212.428171 
L 178.988395 212.325265 
L 171.996394 212.542353 
L 162.422988 213.340232 
L 157.633997 214.074804 
L 152.843552 214.705175 
L 148.051509 215.703424 
L 141.045122 217.102308 
L 138.462991 217.680609 
L 136.249446 218.343158 
L 128.868588 220.214719 
L 114.835324 224.601195 
L 107.44444 227.351087 
L 105.226535 228.061328 
L 100.419961 229.931629 
L 98.201039 231.084442 
L 93.392431 232.696253 
L 90.802526 233.560131 
L 88.582369 234.754888 
L 81.549752 237.592476 
L 78.958031 238.51522 
L 76.736203 239.558999 
L 69.328172 242.575763 
L 67.105109 243.274568 
L 60.063483 246.216015 
L 57.46842 247.211755 
L 57.46842 247.211755 
" clip-path="url(#p5527b77688)" style="fill: none; stroke: #808080; stroke-width: 1.5; stroke-linecap: square"/>
   </g>
   <g id="line2d_17">
    <path d="M 461.8 282.137565 
L 452.812219 280.634647 
L 450.291919 280.281963 
L 448.131122 279.799224 
L 445.609659 279.463429 
L 438.40245 277.994605 
L 436.239401 277.627154 
L 433.71525 277.046669 
L 431.551256 276.406174 
L 429.026016 276.089026 
L 417.113878 273.379824 
L 414.585513 272.613063 
L 412.417814 272.225616 
L 405.189316 270.231419 
L 397.956242 268.133941 
L 393.252258 266.871012 
L 391.080563 265.953767 
L 388.546458 265.119592 
L 383.838696 263.849365 
L 379.129118 261.991694 
L 374.417651 260.577901 
L 371.879913 259.813877 
L 369.341595 258.867281 
L 367.16554 257.79319 
L 357.731271 254.399455 
L 350.469061 251.108244 
L 347.92631 250.062175 
L 345.746332 249.363223 
L 343.202564 248.24746 
L 341.021787 247.138566 
L 336.295352 245.087414 
L 331.567174 243.090224 
L 321.741361 238.099571 
L 319.556805 237.414058 
L 317.007661 236.216832 
L 314.822306 234.996503 
L 312.272144 233.770947 
L 310.085991 232.554807 
L 307.534957 231.318151 
L 305.347931 230.432099 
L 293.312642 224.403798 
L 288.568406 222.028696 
L 281.266163 218.428176 
L 279.074705 217.468454 
L 271.767157 213.730577 
L 262.261395 209.334811 
L 257.50597 206.951986 
L 255.310516 206.314107 
L 252.748802 205.254792 
L 250.552695 204.14255 
L 243.229598 201.113615 
L 241.031892 200.42328 
L 233.70371 197.515192 
L 231.504478 196.794353 
L 228.938332 196.088398 
L 224.171283 194.44328 
L 221.970525 193.765033 
L 219.402635 193.097153 
L 214.632316 192.228316 
L 212.430105 191.468304 
L 207.657462 190.469545 
L 200.311842 189.330112 
L 198.107451 188.89063 
L 193.330012 188.481502 
L 190.756964 188.216113 
L 186.344841 188.103041 
L 181.563551 188.014502 
L 176.780735 188.184296 
L 171.996394 188.490662 
L 169.419567 188.885325 
L 167.210454 189.010856 
L 162.422988 189.786874 
L 152.843552 191.871676 
L 150.632042 192.577292 
L 145.839344 193.908334 
L 141.045122 195.452244 
L 138.462991 196.3342 
L 133.666516 198.355295 
L 131.452245 199.065008 
L 128.868588 200.149267 
L 126.65359 201.283507 
L 124.438373 202.229705 
L 119.637612 204.529883 
L 114.835324 206.757248 
L 107.44444 211.07794 
L 105.226535 211.996444 
L 100.419961 214.916645 
L 98.201039 216.441256 
L 95.611934 217.943483 
L 93.392431 218.968943 
L 90.802526 220.5295 
L 88.582369 222.053875 
L 85.991738 223.499021 
L 83.770854 225.048491 
L 81.549752 226.13803 
L 76.736203 229.132593 
L 71.921346 232.229096 
L 69.328172 233.711612 
L 67.105109 234.785196 
L 62.287418 237.8862 
L 57.46842 240.662748 
L 57.46842 240.662748 
" clip-path="url(#p5527b77688)" style="fill: none; stroke: #808080; stroke-width: 1.5; stroke-linecap: square"/>
   </g>
   <g id="line2d_18">
    <path d="M 461.8 282.346047 
L 460.010128 281.886886 
L 455.332083 281.019068 
L 452.812219 280.425121 
L 450.291919 280.053953 
L 448.131122 279.414678 
L 438.40245 277.179468 
L 436.239401 276.534579 
L 433.71525 275.930719 
L 431.551256 275.233337 
L 429.026016 274.672259 
L 417.113878 271.117304 
L 414.585513 270.189232 
L 409.888359 268.866448 
L 393.252258 262.679297 
L 391.080563 261.607023 
L 388.546458 260.549997 
L 383.838696 258.92874 
L 381.302993 257.667522 
L 379.129118 256.454792 
L 376.592398 255.551622 
L 371.879913 253.595722 
L 369.341595 252.331131 
L 367.16554 250.985643 
L 359.90907 247.450636 
L 357.731271 246.599383 
L 352.648167 243.526087 
L 350.469061 242.428669 
L 347.92631 240.960483 
L 345.746332 239.946875 
L 343.202564 238.577365 
L 341.021787 237.105216 
L 336.295352 234.409956 
L 331.567174 231.768165 
L 321.741361 225.382689 
L 319.556805 224.409606 
L 317.007661 222.851963 
L 314.822306 221.33908 
L 298.055133 210.517821 
L 295.501702 208.655661 
L 293.312642 207.466986 
L 286.013086 202.711411 
L 283.822355 201.164379 
L 279.074705 198.395717 
L 276.517495 196.762608 
L 271.767157 193.474242 
L 264.821292 189.370135 
L 260.06674 186.370756 
L 257.50597 184.710469 
L 255.310516 183.699193 
L 252.748802 182.325632 
L 250.552695 180.816061 
L 243.229598 176.836851 
L 241.031892 175.953379 
L 236.268984 173.344228 
L 228.938332 170.190122 
L 226.738373 169.311994 
L 224.171283 168.131884 
L 219.402635 166.459752 
L 214.632316 165.090595 
L 212.430105 164.153968 
L 207.657462 162.880707 
L 202.883292 161.811833 
L 200.311842 161.352816 
L 198.107451 160.802739 
L 188.551048 159.74488 
L 186.344841 159.829957 
L 183.770484 159.708411 
L 178.988395 159.816955 
L 171.996394 160.405775 
L 169.419567 160.855658 
L 167.210454 161.100226 
L 164.632755 161.581756 
L 159.844491 162.794153 
L 152.843552 164.832804 
L 150.632042 165.850234 
L 145.839344 167.685987 
L 138.462991 170.856165 
L 136.249446 172.171096 
L 133.666516 173.572463 
L 131.452245 174.634346 
L 128.868588 176.05509 
L 124.438373 178.889797 
L 119.637612 181.946087 
L 114.835324 184.92757 
L 110.031656 188.676508 
L 107.44444 190.677938 
L 105.226535 191.886526 
L 100.419961 195.717809 
L 95.611934 199.860515 
L 93.392431 201.253787 
L 90.802526 203.096954 
L 88.582369 205.293541 
L 85.991738 207.232029 
L 83.770854 209.337241 
L 81.549752 210.687876 
L 76.736203 214.815163 
L 71.921346 218.969518 
L 69.328172 221.014656 
L 67.105109 222.410214 
L 62.287418 226.739766 
L 57.46842 230.404587 
L 57.46842 230.404587 
" clip-path="url(#p5527b77688)" style="fill: none; stroke: #808080; stroke-width: 1.5; stroke-linecap: square"/>
   </g>
   <g id="line2d_19">
    <path d="M 461.8 278.784364 
L 445.609659 274.419064 
L 438.40245 272.202355 
L 436.239401 271.602984 
L 433.71525 270.750807 
L 431.551256 269.786188 
L 429.026016 269.097008 
L 419.641807 265.680391 
L 407.719788 260.776337 
L 393.252258 254.033195 
L 388.546458 251.290817 
L 383.838696 249.309712 
L 379.129118 246.251057 
L 376.592398 245.044373 
L 371.879913 242.519302 
L 369.341595 240.993287 
L 367.16554 239.389303 
L 359.90907 234.908976 
L 357.731271 233.80869 
L 355.189973 231.806091 
L 350.469061 228.47452 
L 347.92631 226.760228 
L 345.746332 225.595243 
L 343.202564 223.728418 
L 341.021787 221.921302 
L 331.567174 215.308218 
L 329.0205 213.167668 
L 326.473317 211.305998 
L 324.289561 209.313623 
L 321.741361 207.305 
L 319.556805 206.072983 
L 314.822306 202.202709 
L 310.085991 198.250018 
L 305.347931 194.667693 
L 298.055133 188.569146 
L 295.501702 186.242906 
L 293.312642 184.847394 
L 288.568406 180.998811 
L 281.266163 175.081968 
L 279.074705 173.557776 
L 269.574101 165.715374 
L 264.821292 162.297361 
L 257.50597 156.427611 
L 255.310516 155.33212 
L 252.748802 153.526722 
L 250.552695 151.72689 
L 245.793129 148.330019 
L 241.031892 145.636183 
L 233.70371 141.006805 
L 231.504478 139.78351 
L 228.938332 138.613619 
L 224.171283 136.035775 
L 221.970525 134.965673 
L 219.402635 133.901752 
L 217.201151 133.183533 
L 214.632316 132.201892 
L 212.430105 131.142583 
L 207.657462 129.507573 
L 198.107451 127.085248 
L 188.551048 125.92236 
L 186.344841 125.997114 
L 183.770484 125.819356 
L 178.988395 126.024188 
L 174.204708 126.557671 
L 171.996394 126.826986 
L 169.419567 127.261268 
L 162.422988 128.964734 
L 159.844491 129.982766 
L 157.633997 130.722649 
L 152.843552 132.579033 
L 150.632042 133.83621 
L 145.839344 136.163632 
L 141.045122 138.683708 
L 138.462991 140.181911 
L 131.452245 144.981899 
L 128.868588 146.667464 
L 121.853482 152.291536 
L 114.835324 157.820079 
L 107.44444 165.072563 
L 105.226535 166.545586 
L 95.611934 176.343783 
L 93.392431 178.254407 
L 90.802526 180.634827 
L 88.582369 183.430256 
L 85.991738 185.817667 
L 83.770854 188.460053 
L 81.549752 190.203 
L 76.736203 195.335533 
L 71.921346 200.47407 
L 69.328172 202.874639 
L 67.105109 204.714932 
L 64.881755 207.349589 
L 57.46842 214.861099 
L 57.46842 214.861099 
" clip-path="url(#p5527b77688)" style="fill: none; stroke: #808080; stroke-width: 1.5; stroke-linecap: square"/>
   </g>
   <g id="line2d_20">
    <path d="M 461.8 273.011051 
L 457.491427 271.709676 
L 455.332083 270.946257 
L 450.291919 269.472765 
L 448.131122 268.482009 
L 445.609659 267.756307 
L 443.447991 266.901817 
L 440.925511 266.029177 
L 424.334892 259.208832 
L 419.641807 256.947716 
L 407.719788 251.124469 
L 405.189316 249.716694 
L 400.488312 246.923516 
L 397.956242 245.460332 
L 395.785418 244.390043 
L 393.252258 242.89496 
L 391.080563 241.253645 
L 388.546458 239.643181 
L 383.838696 237.181101 
L 381.302993 235.254927 
L 379.129118 233.440428 
L 376.592398 232.061223 
L 369.341595 227.213443 
L 367.16554 225.113693 
L 362.44935 221.604299 
L 357.731271 218.457131 
L 352.648167 213.866241 
L 350.469061 211.998077 
L 347.92631 210.000717 
L 345.746332 208.670779 
L 338.477002 201.837145 
L 333.749695 197.799959 
L 331.567174 196.177179 
L 321.741361 186.414353 
L 319.556805 184.844428 
L 317.007661 182.563248 
L 314.822306 180.222393 
L 307.534957 173.060252 
L 305.347931 171.120084 
L 302.795881 168.658455 
L 298.055133 163.757096 
L 295.501702 161.154792 
L 293.312642 159.256738 
L 290.758266 156.894428 
L 281.266163 147.50221 
L 279.074705 145.680348 
L 276.517495 143.234059 
L 274.325238 140.926798 
L 269.574101 136.394584 
L 264.821292 132.253897 
L 262.261395 129.68273 
L 257.50597 125.252448 
L 252.748802 121.660807 
L 250.552695 119.501591 
L 247.990036 117.392655 
L 245.793129 115.383156 
L 238.46749 110.264957 
L 236.268984 108.34797 
L 231.504478 105.084247 
L 228.938332 103.66089 
L 226.738373 102.225106 
L 221.970525 99.321565 
L 219.402635 98.054052 
L 217.201151 97.319684 
L 214.632316 96.070687 
L 212.430105 94.744937 
L 209.860472 93.612337 
L 207.657462 92.798367 
L 202.883292 91.363929 
L 198.107451 89.87026 
L 195.535202 89.411426 
L 193.330012 89.137799 
L 190.756964 88.617003 
L 188.551048 88.428518 
L 183.770484 88.458349 
L 181.563551 88.367863 
L 176.780735 88.730369 
L 171.996394 89.593326 
L 169.419567 90.22379 
L 167.210454 90.492596 
L 164.632755 91.312629 
L 159.844491 93.145729 
L 152.843552 96.357054 
L 150.632042 97.800443 
L 148.051509 99.150745 
L 145.839344 100.665281 
L 141.045122 103.516426 
L 138.462991 105.343214 
L 133.666516 109.406482 
L 128.868588 113.194331 
L 114.835324 126.437589 
L 107.44444 134.942611 
L 105.226535 136.920449 
L 103.008267 139.429314 
L 95.611934 148.557168 
L 93.392431 150.75531 
L 90.802526 153.632313 
L 88.582369 156.796912 
L 85.991738 159.650082 
L 83.770854 162.74744 
L 81.549752 164.815778 
L 76.736203 171.019014 
L 71.921346 177.089363 
L 69.328172 180.110517 
L 67.105109 182.182435 
L 64.881755 185.167147 
L 62.287418 188.290024 
L 60.063483 191.323173 
L 57.46842 194.015918 
L 57.46842 194.015918 
" clip-path="url(#p5527b77688)" style="fill: none; stroke: #808080; stroke-width: 1.5; stroke-linecap: square"/>
   </g>
   <g id="line2d_21">
    <path d="M 461.8 267.107574 
L 457.491427 265.70393 
L 452.812219 263.994032 
L 450.291919 263.155137 
L 448.131122 262.04019 
L 445.609659 261.252846 
L 436.239401 257.380756 
L 429.026016 253.880724 
L 421.808053 250.365552 
L 409.888359 243.879518 
L 400.488312 237.885723 
L 397.956242 236.196199 
L 395.785418 235.091353 
L 393.252258 233.253661 
L 388.546458 229.567587 
L 383.838696 226.815892 
L 379.129118 222.538835 
L 376.592398 221.043344 
L 371.879913 217.624345 
L 369.341595 215.466631 
L 367.16554 213.100062 
L 364.626277 211.023074 
L 362.44935 209.08923 
L 357.731271 205.486704 
L 350.469061 198.258988 
L 347.92631 195.917389 
L 345.746332 194.348528 
L 338.477002 186.563992 
L 333.749695 182.071931 
L 331.567174 180.037998 
L 326.473317 174.292262 
L 321.741361 169.156698 
L 319.556805 167.417128 
L 317.007661 164.615415 
L 312.272144 159.118886 
L 310.085991 156.53264 
L 302.795881 148.665203 
L 295.501702 139.842192 
L 293.312642 137.806743 
L 290.758266 135.028118 
L 288.568406 132.472932 
L 286.013086 129.672355 
L 283.822355 126.949486 
L 281.266163 124.102862 
L 279.074705 122.051315 
L 276.517495 119.203463 
L 271.767157 113.417261 
L 267.015148 108.71488 
L 264.821292 106.542898 
L 262.261395 103.345763 
L 257.50597 98.304056 
L 255.310516 96.362751 
L 252.748802 93.899946 
L 250.552695 91.391473 
L 245.793129 86.711449 
L 243.229598 84.498608 
L 241.031892 82.83702 
L 238.46749 80.503143 
L 236.268984 78.339537 
L 233.70371 76.225923 
L 231.504478 74.708029 
L 228.938332 72.704998 
L 226.738373 71.159167 
L 224.171283 69.076953 
L 221.970525 67.465998 
L 219.402635 65.919593 
L 217.201151 65.085212 
L 214.632316 63.641118 
L 212.430105 62.053291 
L 207.657462 59.490174 
L 198.107451 55.886432 
L 195.535202 55.205872 
L 193.330012 54.77227 
L 190.756964 54.147922 
L 188.551048 53.877495 
L 186.344841 53.91288 
L 183.770484 53.58909 
L 178.988395 53.601999 
L 176.780735 53.800272 
L 171.996394 54.49727 
L 169.419567 55.113831 
L 167.210454 55.523625 
L 164.632755 56.241765 
L 157.633997 59.44478 
L 155.0547 60.820144 
L 152.843552 61.727463 
L 150.632042 63.33779 
L 143.258013 68.26442 
L 141.045122 69.935115 
L 138.462991 72.116243 
L 136.249446 74.196785 
L 131.452245 78.355165 
L 128.868588 80.694294 
L 124.438373 85.441833 
L 121.853482 88.437704 
L 117.051921 93.38426 
L 110.031656 102.013754 
L 107.44444 105.663411 
L 105.226535 107.889594 
L 103.008267 110.75813 
L 100.419961 114.547181 
L 93.392431 123.941385 
L 90.802526 127.272401 
L 88.582369 130.921797 
L 85.991738 134.365916 
L 83.770854 138.025125 
L 81.549752 140.381372 
L 78.958031 143.963306 
L 74.143755 151.444507 
L 71.921346 154.772478 
L 69.328172 158.145293 
L 67.105109 160.643731 
L 62.287418 168.03787 
L 60.063483 171.264065 
L 57.46842 174.672957 
L 57.46842 174.672957 
" clip-path="url(#p5527b77688)" style="fill: none; stroke: #808080; stroke-width: 1.5; stroke-linecap: square"/>
   </g>
   <g id="line2d_22">
    <path d="M 412.417814 283.221743 
L 409.888359 283.090671 
L 405.189316 282.699316 
L 400.488312 282.387234 
L 395.785418 282.082995 
L 393.252258 281.952209 
L 388.546458 281.47281 
L 383.838696 281.197092 
L 379.129118 280.680326 
L 374.417651 280.467827 
L 369.341595 280.000906 
L 364.626277 279.470518 
L 362.44935 279.362552 
L 347.92631 277.914774 
L 343.202564 277.476437 
L 341.021787 277.172706 
L 331.567174 276.2842 
L 329.0205 275.934633 
L 326.473317 275.755937 
L 321.741361 275.095284 
L 317.007661 274.752575 
L 310.085991 273.904858 
L 307.534957 273.678879 
L 302.795881 273.065971 
L 293.312642 272.036624 
L 283.822355 270.845675 
L 274.325238 269.790969 
L 252.748802 267.419617 
L 250.552695 267.216137 
L 247.990036 266.801701 
L 233.70371 265.403215 
L 226.738373 264.750748 
L 221.970525 264.225964 
L 209.860472 263.376573 
L 205.086956 262.944085 
L 188.551048 261.766131 
L 186.344841 261.755371 
L 162.422988 260.076277 
L 159.844491 259.775122 
L 152.843552 259.338991 
L 148.051509 258.831952 
L 145.839344 258.486484 
L 138.462991 257.700519 
L 131.452245 256.415919 
L 128.868588 256.009946 
L 121.853482 254.477989 
L 114.835324 252.641465 
L 107.44444 249.937631 
L 105.226535 249.248237 
L 103.008267 248.312443 
L 90.802526 242.225411 
L 88.582369 240.432841 
L 85.991738 238.928987 
L 83.770854 237.227173 
L 81.549752 235.718785 
L 76.736203 231.817609 
L 74.143755 229.208824 
L 71.921346 226.749331 
L 69.328172 224.533471 
L 67.105109 222.463846 
L 64.881755 219.548042 
L 62.287418 216.441752 
L 60.063483 213.179108 
L 57.46842 209.979353 
L 57.46842 209.979353 
" clip-path="url(#p5527b77688)" style="fill: none; stroke: #ff0000; stroke-width: 1.5; stroke-linecap: square"/>
   </g>
   <g id="line2d_23">
    <path d="M 412.417814 248.44746 
L 409.888359 247.946196 
L 405.189316 246.631579 
L 402.658191 245.972784 
L 400.488312 245.526142 
L 393.252258 243.596084 
L 388.546458 242.178084 
L 383.838696 241.008415 
L 374.417651 238.029012 
L 371.879913 237.330112 
L 369.341595 236.512163 
L 367.16554 235.60749 
L 362.44935 234.004964 
L 357.731271 232.540675 
L 347.92631 228.755086 
L 345.746332 228.129131 
L 343.202564 227.14551 
L 341.021787 226.05292 
L 331.567174 222.533694 
L 329.0205 221.294628 
L 317.007661 216.38424 
L 314.822306 215.315327 
L 302.795881 210.121184 
L 298.055133 207.977452 
L 295.501702 206.737707 
L 290.758266 204.73071 
L 286.013086 202.667547 
L 283.822355 201.582549 
L 279.074705 199.703154 
L 257.50597 190.113853 
L 255.310516 189.49466 
L 250.552695 187.574791 
L 245.793129 185.641778 
L 236.268984 182.289607 
L 233.70371 181.365655 
L 228.938332 179.927859 
L 224.171283 178.46244 
L 221.970525 177.674394 
L 214.632316 176.086894 
L 207.657462 174.309027 
L 205.086956 173.857746 
L 202.883292 173.602385 
L 198.107451 172.674395 
L 195.535202 172.231268 
L 186.344841 171.237658 
L 176.780735 170.725329 
L 169.419567 170.478528 
L 164.632755 170.495083 
L 157.633997 170.682745 
L 155.0547 170.837232 
L 152.843552 171.134745 
L 150.632042 171.190343 
L 148.051509 171.452094 
L 145.839344 171.543978 
L 121.853482 173.524247 
L 114.835324 173.786141 
L 112.248907 173.873569 
L 110.031656 173.745843 
L 107.44444 173.842026 
L 100.419961 173.283547 
L 98.201039 173.078075 
L 90.802526 171.76155 
L 85.991738 170.312739 
L 81.549752 168.816639 
L 76.736203 166.881868 
L 71.921346 163.677299 
L 67.105109 160.847074 
L 62.287418 156.72975 
L 57.46842 152.012669 
L 57.46842 152.012669 
" clip-path="url(#p5527b77688)" style="fill: none; stroke: #ff0000; stroke-width: 1.5; stroke-linecap: square"/>
   </g>
   <g id="patch_3">
    <path d="M 57.6 307.584 
L 57.6 41.472 
" style="fill: none; stroke: #000000; stroke-width: 0.8; stroke-linejoin: miter; stroke-linecap: square"/>
   </g>
   <g id="patch_4">
    <path d="M 414.72 307.584 
L 414.72 41.472 
" style="fill: none; stroke: #000000; stroke-width: 0.8; stroke-linejoin: miter; stroke-linecap: square"/>
   </g>
   <g id="patch_5">
    <path d="M 57.6 307.584 
L 414.72 307.584 
" style="fill: none; stroke: #000000; stroke-width: 0.8; stroke-linejoin: miter; stroke-linecap: square"/>
   </g>
   <g id="patch_6">
    <path d="M 57.6 41.472 
L 414.72 41.472 
" style="fill: none; stroke: #000000; stroke-width: 0.8; stroke-linejoin: miter; stroke-linecap: square"/>
   </g>
   <g id="legend_1">
    <g id="patch_7">
     <path d="M 288.518438 78.82825 
L 407.72 78.82825 
Q 409.72 78.82825 409.72 76.82825 
L 409.72 48.472 
Q 409.72 46.472 407.72 46.472 
L 288.518438 46.472 
Q 286.518438 46.472 286.518438 48.472 
L 286.518438 76.82825 
Q 286.518438 78.82825 288.518438 78.82825 
z
" style="fill: #ffffff; opacity: 0.8; stroke: #cccccc; stroke-linejoin: miter"/>
    </g>
    <g id="line2d_24">
     <path d="M 290.518438 54.570437 
L 300.518438 54.570437 
L 310.518438 54.570437 
" style="fill: none; stroke: #808080; stroke-width: 1.5; stroke-linecap: square"/>
    </g>
    <g id="text_15">
     <!-- Calibration series -->
     <g transform="translate(318.518438 58.070437) scale(0.1 -0.1)">
      <defs>
       <path id="DejaVuSans-43" d="M 4122 4306 
L 4122 3641 
Q 3803 3938 3442 4084 
Q 3081 4231 2675 4231 
Q 1875 4231 1450 3742 
Q 1025 3253 1025 2328 
Q 1025 1406 1450 917 
Q 1875 428 2675 428 
Q 3081 428 3442 575 
Q 3803 722 4122 1019 
L 4122 359 
Q 3791 134 3420 21 
Q 3050 -91 2638 -91 
Q 1578 -91 968 557 
Q 359 1206 359 2328 
Q 359 3453 968 4101 
Q 1578 4750 2638 4750 
Q 3056 4750 3426 4639 
Q 3797 4528 4122 4306 
z
" transform="scale(0.015625)"/>
       <path id="DejaVuSans-61" d="M 2194 1759 
Q 1497 1759 1228 1600 
Q 959 1441 959 1056 
Q 959 750 1161 570 
Q 1363 391 1709 391 
Q 2188 391 2477 730 
Q 2766 1069 2766 1631 
L 2766 1759 
L 2194 1759 
z
M 3341 1997 
L 3341 0 
L 2766 0 
L 2766 531 
Q 2569 213 2275 61 
Q 1981 -91 1556 -91 
Q 1019 -91 701 211 
Q 384 513 384 1019 
Q 384 1609 779 1909 
Q 1175 2209 1959 2209 
L 2766 2209 
L 2766 2266 
Q 2766 2663 2505 2880 
Q 2244 3097 1772 3097 
Q 1472 3097 1187 3025 
Q 903 2953 641 2809 
L 641 3341 
Q 956 3463 1253 3523 
Q 1550 3584 1831 3584 
Q 2591 3584 2966 3190 
Q 3341 2797 3341 1997 
z
" transform="scale(0.015625)"/>
       <path id="DejaVuSans-6c" d="M 603 4863 
L 1178 4863 
L 1178 0 
L 603 0 
L 603 4863 
z
" transform="scale(0.015625)"/>
       <path id="DejaVuSans-69" d="M 603 3500 
L 1178 3500 
L 1178 0 
L 603 0 
L 603 3500 
z
M 603 4863 
L 1178 4863 
L 1178 4134 
L 603 4134 
L 603 4863 
z
" transform="scale(0.015625)"/>
       <path id="DejaVuSans-62" d="M 3116 1747 
Q 3116 2381 2855 2742 
Q 2594 3103 2138 3103 
Q 1681 3103 1420 2742 
Q 1159 2381 1159 1747 
Q 1159 1113 1420 752 
Q 1681 391 2138 391 
Q 2594 391 2855 752 
Q 3116 1113 3116 1747 
z
M 1159 2969 
Q 1341 3281 1617 3432 
Q 1894 3584 2278 3584 
Q 2916 3584 3314 3078 
Q 3713 2572 3713 1747 
Q 3713 922 3314 415 
Q 2916 -91 2278 -91 
Q 1894 -91 1617 61 
Q 1341 213 1159 525 
L 1159 0 
L 581 0 
L 581 4863 
L 1159 4863 
L 1159 2969 
z
" transform="scale(0.015625)"/>
       <path id="DejaVuSans-72" d="M 2631 2963 
Q 2534 3019 2420 3045 
Q 2306 3072 2169 3072 
Q 1681 3072 1420 2755 
Q 1159 2438 1159 1844 
L 1159 0 
L 581 0 
L 581 3500 
L 1159 3500 
L 1159 2956 
Q 1341 3275 1631 3429 
Q 1922 3584 2338 3584 
Q 2397 3584 2469 3576 
Q 2541 3569 2628 3553 
L 2631 2963 
z
" transform="scale(0.015625)"/>
       <path id="DejaVuSans-74" d="M 1172 4494 
L 1172 3500 
L 2356 3500 
L 2356 3053 
L 1172 3053 
L 1172 1153 
Q 1172 725 1289 603 
Q 1406 481 1766 481 
L 2356 481 
L 2356 0 
L 1766 0 
Q 1100 0 847 248 
Q 594 497 594 1153 
L 594 3053 
L 172 3053 
L 172 3500 
L 594 3500 
L 594 4494 
L 1172 4494 
z
" transform="scale(0.015625)"/>
       <path id="DejaVuSans-6f" d="M 1959 3097 
Q 1497 3097 1228 2736 
Q 959 2375 959 1747 
Q 959 1119 1226 758 
Q 1494 397 1959 397 
Q 2419 397 2687 759 
Q 2956 1122 2956 1747 
Q 2956 2369 2687 2733 
Q 2419 3097 1959 3097 
z
M 1959 3584 
Q 2709 3584 3137 3096 
Q 3566 2609 3566 1747 
Q 3566 888 3137 398 
Q 2709 -91 1959 -91 
Q 1206 -91 779 398 
Q 353 888 353 1747 
Q 353 2609 779 3096 
Q 1206 3584 1959 3584 
z
" transform="scale(0.015625)"/>
       <path id="DejaVuSans-6e" d="M 3513 2113 
L 3513 0 
L 2938 0 
L 2938 2094 
Q 2938 2591 2744 2837 
Q 2550 3084 2163 3084 
Q 1697 3084 1428 2787 
Q 1159 2491 1159 1978 
L 1159 0 
L 581 0 
L 581 3500 
L 1159 3500 
L 1159 2956 
Q 1366 3272 1645 3428 
Q 1925 3584 2291 3584 
Q 2894 3584 3203 3211 
Q 3513 2838 3513 2113 
z
" transform="scale(0.015625)"/>
       <path id="DejaVuSans-20" transform="scale(0.015625)"/>
       <path id="DejaVuSans-73" d="M 2834 3397 
L 2834 2853 
Q 2591 2978 2328 3040 
Q 2066 3103 1784 3103 
Q 1356 3103 1142 2972 
Q 928 2841 928 2578 
Q 928 2378 1081 2264 
Q 1234 2150 1697 2047 
L 1894 2003 
Q 2506 1872 2764 1633 
Q 3022 1394 3022 966 
Q 3022 478 2636 193 
Q 2250 -91 1575 -91 
Q 1294 -91 989 -36 
Q 684 19 347 128 
L 347 722 
Q 666 556 975 473 
Q 1284 391 1588 391 
Q 1994 391 2212 530 
Q 2431 669 2431 922 
Q 2431 1156 2273 1281 
Q 2116 1406 1581 1522 
L 1381 1569 
Q 847 1681 609 1914 
Q 372 2147 372 2553 
Q 372 3047 722 3315 
Q 1072 3584 1716 3584 
Q 2034 3584 2315 3537 
Q 2597 3491 2834 3397 
z
" transform="scale(0.015625)"/>
       <path id="DejaVuSans-65" d="M 3597 1894 
L 3597 1613 
L 953 1613 
Q 991 1019 1311 708 
Q 1631 397 2203 397 
Q 2534 397 2845 478 
Q 3156 559 3463 722 
L 3463 178 
Q 3153 47 2828 -22 
Q 2503 -91 2169 -91 
Q 1331 -91 842 396 
Q 353 884 353 1716 
Q 353 2575 817 3079 
Q 1281 3584 2069 3584 
Q 2775 3584 3186 3129 
Q 3597 2675 3597 1894 
z
M 3022 2063 
Q 3016 2534 2758 2815 
Q 2500 3097 2075 3097 
Q 1594 3097 1305 2825 
Q 1016 2553 972 2059 
L 3022 2063 
z
" transform="scale(0.015625)"/>
      </defs>
      <use xlink:href="#DejaVuSans-43"/>
      <use xlink:href="#DejaVuSans-61" x="69.824219"/>
      <use xlink:href="#DejaVuSans-6c" x="131.103516"/>
      <use xlink:href="#DejaVuSans-69" x="158.886719"/>
      <use xlink:href="#DejaVuSans-62" x="186.669922"/>
      <use xlink:href="#DejaVuSans-72" x="250.146484"/>
      <use xlink:href="#DejaVuSans-61" x="291.259766"/>
      <use xlink:href="#DejaVuSans-74" x="352.539062"/>
      <use xlink:href="#DejaVuSans-69" x="391.748047"/>
      <use xlink:href="#DejaVuSans-6f" x="419.53125"/>
      <use xlink:href="#DejaVuSans-6e" x="480.712891"/>
      <use xlink:href="#DejaVuSans-20" x="544.091797"/>
      <use xlink:href="#DejaVuSans-73" x="575.878906"/>
      <use xlink:href="#DejaVuSans-65" x="627.978516"/>
      <use xlink:href="#DejaVuSans-72" x="689.501953"/>
      <use xlink:href="#DejaVuSans-69" x="730.615234"/>
      <use xlink:href="#DejaVuSans-65" x="758.398438"/>
      <use xlink:href="#DejaVuSans-73" x="819.921875"/>
     </g>
    </g>
    <g id="line2d_25">
     <path d="M 290.518438 69.248562 
L 300.518438 69.248562 
L 310.518438 69.248562 
" style="fill: none; stroke: #ff0000; stroke-width: 1.5; stroke-linecap: square"/>
    </g>
    <g id="text_16">
     <!-- Exercises -->
     <g transform="translate(318.518438 72.748562) scale(0.1 -0.1)">
      <defs>
       <path id="DejaVuSans-45" d="M 628 4666 
L 3578 4666 
L 3578 4134 
L 1259 4134 
L 1259 2753 
L 3481 2753 
L 3481 2222 
L 1259 2222 
L 1259 531 
L 3634 531 
L 3634 0 
L 628 0 
L 628 4666 
z
" transform="scale(0.015625)"/>
       <path id="DejaVuSans-78" d="M 3513 3500 
L 2247 1797 
L 3578 0 
L 2900 0 
L 1881 1375 
L 863 0 
L 184 0 
L 1544 1831 
L 300 3500 
L 978 3500 
L 1906 2253 
L 2834 3500 
L 3513 3500 
z
" transform="scale(0.015625)"/>
       <path id="DejaVuSans-63" d="M 3122 3366 
L 3122 2828 
Q 2878 2963 2633 3030 
Q 2388 3097 2138 3097 
Q 1578 3097 1268 2742 
Q 959 2388 959 1747 
Q 959 1106 1268 751 
Q 1578 397 2138 397 
Q 2388 397 2633 464 
Q 2878 531 3122 666 
L 3122 134 
Q 2881 22 2623 -34 
Q 2366 -91 2075 -91 
Q 1284 -91 818 406 
Q 353 903 353 1747 
Q 353 2603 823 3093 
Q 1294 3584 2113 3584 
Q 2378 3584 2631 3529 
Q 2884 3475 3122 3366 
z
" transform="scale(0.015625)"/>
      </defs>
      <use xlink:href="#DejaVuSans-45"/>
      <use xlink:href="#DejaVuSans-78" x="63.183594"/>
      <use xlink:href="#DejaVuSans-65" x="119.238281"/>
      <use xlink:href="#DejaVuSans-72" x="180.761719"/>
      <use xlink:href="#DejaVuSans-63" x="219.625"/>
      <use xlink:href="#DejaVuSans-69" x="274.605469"/>
      <use xlink:href="#DejaVuSans-73" x="302.388672"/>
      <use xlink:href="#DejaVuSans-65" x="354.488281"/>
      <use xlink:href="#DejaVuSans-73" x="416.011719"/>
     </g>
    </g>
   </g>
  </g>
 </g>
 <defs>
  <clipPath id="p5527b77688">
   <rect x="57.6" y="41.472" width="357.12" height="266.112"/>
  </clipPath>
 </defs>
</svg>
