<?xml version="1.0" encoding="utf-8" standalone="no"?>
<!DOCTYPE svg PUBLIC "-//W3C//DTD SVG 1.1//EN"
  "http://www.w3.org/Graphics/SVG/1.1/DTD/svg11.dtd">
<svg xmlns:xlink="http://www.w3.org/1999/xlink" width="460.8pt" height="345.6pt" viewBox="0 0 460.8 345.6" xmlns="http://www.w3.org/2000/svg" version="1.1">
 <metadata>
  <rdf:RDF xmlns:dc="http://purl.org/dc/elements/1.1/" xmlns:cc="http://creativecommons.org/ns#" xmlns:rdf="http://www.w3.org/1999/02/22-rdf-syntax-ns#">
   <cc:Work>
    <dc:type rdf:resource="http://purl.org/dc/dcmitype/StillImage"/>
    <dc:date>2024-10-20T15:23:54.898978</dc:date>
    <dc:format>image/svg+xml</dc:format>
    <dc:creator>
     <cc:Agent>
      <dc:title>Matplotlib v3.9.2, https://matplotlib.org/</dc:title>
     </cc:Agent>
    </dc:creator>
   </cc:Work>
  </rdf:RDF>
 </metadata>
 <defs>
  <style type="text/css">*{stroke-linejoin: round; stroke-linecap: butt}</style>
 </defs>
 <g id="figure_1">
  <g id="patch_1">
   <path d="M 0 345.6 
L 460.8 345.6 
L 460.8 0 
L 0 0 
z
" style="fill: #ffffff"/>
  </g>
  <g id="axes_1">
   <g id="patch_2">
    <path d="M 57.6 307.584 
L 414.72 307.584 
L 414.72 41.472 
L 57.6 41.472 
z
" style="fill: #ffffff"/>
   </g>
   <g id="matplotlib.axis_1">
    <g id="xtick_1">
     <g id="line2d_1">
      <defs>
       <path id="m832fae3740" d="M 0 0 
L 0 3.5 
" style="stroke: #000000; stroke-width: 0.8"/>
      </defs>
      <g>
       <use xlink:href="#m832fae3740" x="60.322486" y="307.584" style="stroke: #000000; stroke-width: 0.8"/>
      </g>
     </g>
     <g id="text_1">
      <!-- $\mathdefault{200}$ -->
      <g transform="translate(52.850483 321.502498) scale(0.1 -0.1)">
       <defs>
        <path id="CMR17-32" d="M 2669 989 
L 2554 989 
C 2490 536 2438 459 2413 420 
C 2381 369 1920 369 1830 369 
L 602 369 
C 832 619 1280 1072 1824 1597 
C 2214 1967 2669 2402 2669 3035 
C 2669 3790 2067 4224 1395 4224 
C 691 4224 262 3604 262 3030 
C 262 2780 448 2748 525 2748 
C 589 2748 781 2787 781 3010 
C 781 3207 614 3264 525 3264 
C 486 3264 448 3258 422 3245 
C 544 3790 915 4058 1306 4058 
C 1862 4058 2227 3617 2227 3035 
C 2227 2479 1901 2000 1536 1584 
L 262 146 
L 262 0 
L 2515 0 
L 2669 989 
z
" transform="scale(0.015625)"/>
        <path id="CMR17-30" d="M 2688 2025 
C 2688 2416 2682 3080 2413 3591 
C 2176 4039 1798 4198 1466 4198 
C 1158 4198 768 4058 525 3597 
C 269 3118 243 2524 243 2025 
C 243 1661 250 1106 448 619 
C 723 -39 1216 -128 1466 -128 
C 1760 -128 2208 -7 2470 600 
C 2662 1042 2688 1559 2688 2025 
z
M 1466 -26 
C 1056 -26 813 325 723 812 
C 653 1188 653 1738 653 2096 
C 653 2588 653 2997 736 3387 
C 858 3929 1216 4096 1466 4096 
C 1728 4096 2067 3923 2189 3400 
C 2272 3036 2278 2607 2278 2096 
C 2278 1680 2278 1169 2202 792 
C 2067 95 1690 -26 1466 -26 
z
" transform="scale(0.015625)"/>
       </defs>
       <use xlink:href="#CMR17-32" transform="scale(0.996264)"/>
       <use xlink:href="#CMR17-30" transform="translate(45.690477 0) scale(0.996264)"/>
       <use xlink:href="#CMR17-30" transform="translate(91.380954 0) scale(0.996264)"/>
      </g>
     </g>
    </g>
    <g id="xtick_2">
     <g id="line2d_2">
      <g>
       <use xlink:href="#m832fae3740" x="127.949846" y="307.584" style="stroke: #000000; stroke-width: 0.8"/>
      </g>
     </g>
     <g id="text_2">
      <!-- $\mathdefault{300}$ -->
      <g transform="translate(120.477844 321.502498) scale(0.1 -0.1)">
       <defs>
        <path id="CMR17-33" d="M 1414 2157 
C 1984 2157 2234 1662 2234 1090 
C 2234 320 1824 25 1453 25 
C 1114 25 563 194 390 693 
C 422 680 454 680 486 680 
C 640 680 755 782 755 948 
C 755 1133 614 1216 486 1216 
C 378 1216 211 1165 211 926 
C 211 335 787 -128 1466 -128 
C 2176 -128 2720 430 2720 1085 
C 2720 1707 2208 2157 1600 2227 
C 2086 2328 2554 2756 2554 3329 
C 2554 3820 2048 4179 1472 4179 
C 890 4179 378 3829 378 3329 
C 378 3110 544 3072 627 3072 
C 762 3072 877 3155 877 3321 
C 877 3486 762 3569 627 3569 
C 602 3569 570 3569 544 3557 
C 730 3959 1235 4032 1459 4032 
C 1683 4032 2106 3925 2106 3320 
C 2106 3143 2080 2828 1862 2550 
C 1670 2304 1453 2304 1242 2284 
C 1210 2284 1062 2269 1037 2269 
C 992 2263 966 2257 966 2208 
C 966 2163 973 2157 1101 2157 
L 1414 2157 
z
" transform="scale(0.015625)"/>
       </defs>
       <use xlink:href="#CMR17-33" transform="scale(0.996264)"/>
       <use xlink:href="#CMR17-30" transform="translate(45.690477 0) scale(0.996264)"/>
       <use xlink:href="#CMR17-30" transform="translate(91.380954 0) scale(0.996264)"/>
      </g>
     </g>
    </g>
    <g id="xtick_3">
     <g id="line2d_3">
      <g>
       <use xlink:href="#m832fae3740" x="195.577207" y="307.584" style="stroke: #000000; stroke-width: 0.8"/>
      </g>
     </g>
     <g id="text_3">
      <!-- $\mathdefault{400}$ -->
      <g transform="translate(188.105204 321.502498) scale(0.1 -0.1)">
       <defs>
        <path id="CMR17-34" d="M 2150 4122 
C 2150 4256 2144 4256 2029 4256 
L 128 1254 
L 128 1088 
L 1779 1088 
L 1779 457 
C 1779 224 1766 160 1318 160 
L 1197 160 
L 1197 0 
C 1402 0 1747 0 1965 0 
C 2182 0 2528 0 2733 0 
L 2733 160 
L 2611 160 
C 2163 160 2150 224 2150 457 
L 2150 1088 
L 2803 1088 
L 2803 1254 
L 2150 1254 
L 2150 4122 
z
M 1798 3703 
L 1798 1254 
L 256 1254 
L 1798 3703 
z
" transform="scale(0.015625)"/>
       </defs>
       <use xlink:href="#CMR17-34" transform="scale(0.996264)"/>
       <use xlink:href="#CMR17-30" transform="translate(45.690477 0) scale(0.996264)"/>
       <use xlink:href="#CMR17-30" transform="translate(91.380954 0) scale(0.996264)"/>
      </g>
     </g>
    </g>
    <g id="xtick_4">
     <g id="line2d_4">
      <g>
       <use xlink:href="#m832fae3740" x="263.204567" y="307.584" style="stroke: #000000; stroke-width: 0.8"/>
      </g>
     </g>
     <g id="text_4">
      <!-- $\mathdefault{500}$ -->
      <g transform="translate(255.732564 321.502498) scale(0.1 -0.1)">
       <defs>
        <path id="CMR17-35" d="M 730 3692 
C 794 3666 1056 3584 1325 3584 
C 1920 3584 2246 3911 2432 4100 
C 2432 4157 2432 4192 2394 4192 
C 2387 4192 2374 4192 2323 4163 
C 2099 4058 1837 3973 1517 3973 
C 1325 3973 1037 3999 723 4139 
C 653 4171 640 4171 634 4171 
C 602 4171 595 4164 595 4037 
L 595 2203 
C 595 2089 595 2057 659 2057 
C 691 2057 704 2070 736 2114 
C 941 2401 1222 2522 1542 2522 
C 1766 2522 2246 2382 2246 1289 
C 2246 1085 2246 715 2054 421 
C 1894 159 1645 25 1370 25 
C 947 25 518 320 403 814 
C 429 807 480 795 506 795 
C 589 795 749 840 749 1038 
C 749 1210 627 1280 506 1280 
C 358 1280 262 1190 262 1011 
C 262 454 704 -128 1382 -128 
C 2042 -128 2669 440 2669 1264 
C 2669 2030 2170 2624 1549 2624 
C 1222 2624 947 2503 730 2274 
L 730 3692 
z
" transform="scale(0.015625)"/>
       </defs>
       <use xlink:href="#CMR17-35" transform="scale(0.996264)"/>
       <use xlink:href="#CMR17-30" transform="translate(45.690477 0) scale(0.996264)"/>
       <use xlink:href="#CMR17-30" transform="translate(91.380954 0) scale(0.996264)"/>
      </g>
     </g>
    </g>
    <g id="xtick_5">
     <g id="line2d_5">
      <g>
       <use xlink:href="#m832fae3740" x="330.831927" y="307.584" style="stroke: #000000; stroke-width: 0.8"/>
      </g>
     </g>
     <g id="text_5">
      <!-- $\mathdefault{600}$ -->
      <g transform="translate(323.359924 321.502498) scale(0.1 -0.1)">
       <defs>
        <path id="CMR17-36" d="M 678 2176 
C 678 3690 1395 4032 1811 4032 
C 1946 4032 2272 4009 2400 3776 
C 2298 3776 2106 3776 2106 3553 
C 2106 3381 2246 3323 2336 3323 
C 2394 3323 2566 3348 2566 3560 
C 2566 3954 2246 4179 1805 4179 
C 1043 4179 243 3390 243 1984 
C 243 253 966 -128 1478 -128 
C 2099 -128 2688 427 2688 1283 
C 2688 2081 2170 2662 1517 2662 
C 1126 2662 838 2407 678 1960 
L 678 2176 
z
M 1478 25 
C 691 25 691 1200 691 1436 
C 691 1896 909 2560 1504 2560 
C 1613 2560 1926 2560 2138 2120 
C 2253 1870 2253 1609 2253 1289 
C 2253 944 2253 690 2118 434 
C 1978 171 1773 25 1478 25 
z
" transform="scale(0.015625)"/>
       </defs>
       <use xlink:href="#CMR17-36" transform="scale(0.996264)"/>
       <use xlink:href="#CMR17-30" transform="translate(45.690477 0) scale(0.996264)"/>
       <use xlink:href="#CMR17-30" transform="translate(91.380954 0) scale(0.996264)"/>
      </g>
     </g>
    </g>
    <g id="xtick_6">
     <g id="line2d_6">
      <g>
       <use xlink:href="#m832fae3740" x="398.459287" y="307.584" style="stroke: #000000; stroke-width: 0.8"/>
      </g>
     </g>
     <g id="text_6">
      <!-- $\mathdefault{700}$ -->
      <g transform="translate(390.987284 321.502498) scale(0.1 -0.1)">
       <defs>
        <path id="CMR17-37" d="M 2886 3941 
L 2886 4081 
L 1382 4081 
C 634 4081 621 4165 595 4288 
L 480 4288 
L 294 3094 
L 410 3094 
C 429 3215 474 3540 550 3661 
C 589 3712 1062 3712 1171 3712 
L 2579 3712 
L 1869 2661 
C 1395 1954 1069 999 1069 165 
C 1069 89 1069 -128 1299 -128 
C 1530 -128 1530 89 1530 171 
L 1530 465 
C 1530 1508 1709 2196 2003 2636 
L 2886 3941 
z
" transform="scale(0.015625)"/>
       </defs>
       <use xlink:href="#CMR17-37" transform="scale(0.996264)"/>
       <use xlink:href="#CMR17-30" transform="translate(45.690477 0) scale(0.996264)"/>
       <use xlink:href="#CMR17-30" transform="translate(91.380954 0) scale(0.996264)"/>
      </g>
     </g>
    </g>
    <g id="text_7">
     <!-- Wavelength, $nm$ -->
     <g transform="translate(201.440581 334.358175) scale(0.1 -0.1)">
      <defs>
       <path id="CMSS17-57" d="M 5581 4416 
L 5094 4416 
L 4557 2437 
C 4474 2118 4397 1801 4320 1482 
C 4205 1011 4122 681 4109 515 
L 4102 515 
C 4090 687 4006 1049 3904 1457 
C 3827 1795 3744 2131 3654 2462 
L 3123 4416 
L 2586 4416 
L 2080 2562 
L 1824 1549 
C 1632 747 1626 632 1613 505 
L 1606 505 
C 1606 543 1581 753 1402 1498 
C 1312 1868 1222 2244 1126 2601 
L 634 4416 
L 83 4416 
L 1299 0 
L 1830 0 
L 2336 1839 
L 2592 2851 
C 2765 3564 2803 3742 2816 3901 
L 2822 3901 
C 2822 3876 2880 3474 3130 2545 
L 3808 0 
L 4365 0 
L 5581 4416 
z
" transform="scale(0.015625)"/>
       <path id="CMSS17-61" d="M 2406 1791 
C 2406 2392 1978 2808 1402 2808 
C 1120 2808 813 2757 461 2553 
L 499 2135 
C 659 2248 934 2432 1395 2432 
C 1722 2432 1920 2180 1920 1782 
L 1920 1536 
C 896 1536 256 1238 256 726 
C 256 461 416 -64 947 -64 
C 1043 -64 1562 -64 1933 217 
L 1933 -19 
L 2406 -19 
L 2406 1791 
z
M 1920 816 
C 1920 701 1920 548 1728 434 
C 1562 325 1350 325 1261 325 
C 941 325 723 511 723 744 
C 723 1211 1722 1211 1920 1211 
L 1920 816 
z
" transform="scale(0.015625)"/>
       <path id="CMSS17-76" d="M 2675 2752 
L 2176 2752 
L 1747 1556 
C 1613 1165 1421 627 1389 352 
L 1382 352 
C 1370 468 1318 634 1286 749 
C 1248 890 1197 1056 1158 1172 
L 595 2752 
L 83 2752 
L 1094 0 
L 1664 0 
L 2675 2752 
z
" transform="scale(0.015625)"/>
       <path id="CMSS17-65" d="M 2502 1377 
C 2502 1590 2490 2003 2285 2345 
C 2061 2713 1696 2816 1421 2816 
C 755 2816 192 2188 192 1375 
C 192 582 774 -64 1510 -64 
C 1798 -64 2150 19 2470 248 
C 2470 274 2458 414 2451 420 
C 2451 433 2432 630 2432 656 
C 2125 407 1773 325 1517 325 
C 1107 325 666 667 646 1377 
L 2502 1377 
z
M 698 1728 
C 781 2084 1062 2421 1421 2421 
C 1517 2421 1965 2421 2080 1728 
L 698 1728 
z
" transform="scale(0.015625)"/>
       <path id="CMSS17-6c" d="M 947 4416 
L 474 4416 
L 474 0 
L 947 0 
L 947 4416 
z
" transform="scale(0.015625)"/>
       <path id="CMSS17-6e" d="M 2618 1877 
C 2618 2283 2522 2816 1798 2816 
C 1389 2816 1120 2606 941 2389 
L 941 2758 
L 474 2758 
L 474 0 
L 960 0 
L 960 1559 
C 960 1964 1114 2428 1549 2428 
C 2112 2428 2131 2048 2131 1829 
L 2131 0 
L 2618 0 
L 2618 1877 
z
" transform="scale(0.015625)"/>
       <path id="CMSS17-67" d="M 2848 2808 
C 2483 2808 2170 2738 1914 2617 
C 1702 2777 1485 2808 1338 2808 
C 781 2808 358 2349 358 1814 
C 358 1468 550 1207 563 1195 
C 448 1035 384 863 384 672 
C 384 448 474 289 544 200 
C 211 -3 166 -314 166 -435 
C 166 -898 749 -1280 1498 -1280 
C 2253 -1280 2835 -898 2835 -428 
C 2835 448 1856 448 1587 448 
L 1069 448 
C 973 448 717 448 717 791 
C 717 921 774 1004 781 1010 
C 877 940 1075 832 1338 832 
C 1869 832 2310 1278 2310 1827 
C 2310 2132 2170 2355 2112 2432 
L 2131 2432 
C 2150 2432 2419 2432 2515 2432 
C 2720 2432 2739 2429 2918 2419 
L 2848 2808 
z
M 1338 1182 
C 1120 1182 813 1315 813 1823 
C 813 2375 1165 2464 1331 2464 
C 1549 2464 1856 2331 1856 1823 
C 1856 1271 1504 1182 1338 1182 
z
M 1581 -10 
C 1734 -10 2381 -10 2381 -442 
C 2381 -714 1984 -929 1504 -929 
C 1018 -929 621 -720 621 -435 
C 621 -403 621 -10 1062 -10 
L 1581 -10 
z
" transform="scale(0.015625)"/>
       <path id="CMSS17-74" d="M 1069 2368 
L 1901 2368 
L 1901 2737 
L 1069 2737 
L 1069 3520 
L 614 3520 
L 614 2737 
L 109 2737 
L 109 2368 
L 602 2368 
L 602 749 
C 602 384 685 -64 1107 -64 
C 1427 -64 1722 25 2003 172 
L 1901 548 
C 1747 414 1562 337 1363 337 
C 1082 337 1069 696 1069 856 
L 1069 2368 
z
" transform="scale(0.015625)"/>
       <path id="CMSS17-68" d="M 2618 1891 
C 2618 2292 2522 2820 1798 2820 
C 1395 2820 1133 2623 947 2407 
L 947 4448 
L 474 4448 
L 474 32 
L 960 32 
L 960 1573 
C 960 1973 1114 2432 1549 2432 
C 2112 2432 2131 2056 2131 1839 
L 2131 32 
L 2618 32 
L 2618 1891 
z
" transform="scale(0.015625)"/>
       <path id="CMSS17-2c" d="M 1088 6 
L 1088 510 
L 576 510 
L 576 0 
L 736 0 
L 570 -800 
L 826 -800 
L 1088 6 
z
" transform="scale(0.015625)"/>
       <path id="CMMI12-6e" d="M 1318 1871 
C 1331 1910 1491 2229 1728 2433 
C 1894 2586 2112 2689 2362 2689 
C 2618 2689 2707 2497 2707 2242 
C 2707 1878 2445 1150 2317 805 
C 2259 651 2227 568 2227 453 
C 2227 166 2426 -64 2733 -64 
C 3328 -64 3552 875 3552 913 
C 3552 945 3526 971 3488 971 
C 3430 971 3424 952 3392 843 
C 3245 319 3002 64 2752 64 
C 2688 64 2586 64 2586 269 
C 2586 429 2656 621 2694 710 
C 2822 1063 3091 1780 3091 2145 
C 3091 2528 2867 2816 2381 2816 
C 1811 2816 1510 2415 1395 2255 
C 1376 2618 1114 2816 832 2816 
C 627 2816 486 2695 378 2478 
C 262 2248 173 1865 173 1839 
C 173 1814 198 1782 243 1782 
C 294 1782 301 1788 339 1935 
C 442 2325 557 2689 813 2689 
C 960 2689 1011 2586 1011 2395 
C 1011 2254 947 2005 902 1807 
L 723 1118 
C 698 996 627 709 595 594 
C 550 428 480 128 480 96 
C 480 6 550 -64 646 -64 
C 723 -64 813 -26 864 70 
C 877 102 934 326 966 453 
L 1107 1028 
L 1318 1871 
z
" transform="scale(0.015625)"/>
       <path id="CMMI12-6d" d="M 1318 1871 
C 1331 1910 1491 2229 1728 2433 
C 1894 2586 2112 2689 2362 2689 
C 2618 2689 2707 2497 2707 2242 
C 2707 2203 2707 2076 2630 1775 
L 2470 1118 
C 2419 926 2298 453 2285 383 
C 2259 287 2221 121 2221 96 
C 2221 6 2291 -64 2387 -64 
C 2579 -64 2611 83 2669 313 
L 3053 1839 
C 3066 1890 3398 2689 4102 2689 
C 4358 2689 4448 2497 4448 2242 
C 4448 1884 4198 1188 4058 805 
C 4000 651 3968 568 3968 453 
C 3968 166 4166 -64 4474 -64 
C 5069 -64 5293 875 5293 913 
C 5293 945 5267 971 5229 971 
C 5171 971 5165 952 5133 843 
C 4986 332 4749 64 4493 64 
C 4429 64 4326 64 4326 269 
C 4326 436 4403 640 4429 710 
C 4544 1018 4832 1773 4832 2145 
C 4832 2528 4608 2816 4122 2816 
C 3693 2816 3347 2574 3091 2197 
C 3072 2542 2861 2816 2381 2816 
C 1811 2816 1510 2415 1395 2255 
C 1376 2618 1114 2816 832 2816 
C 646 2816 499 2727 378 2484 
C 262 2254 173 1865 173 1839 
C 173 1814 198 1782 243 1782 
C 294 1782 301 1788 339 1935 
C 435 2312 557 2689 813 2689 
C 960 2689 1011 2586 1011 2395 
C 1011 2254 947 2005 902 1807 
L 723 1118 
C 698 996 627 709 595 594 
C 550 428 480 128 480 96 
C 480 6 550 -64 646 -64 
C 723 -64 813 -26 864 70 
C 877 102 934 326 966 453 
L 1107 1028 
L 1318 1871 
z
" transform="scale(0.015625)"/>
      </defs>
      <use xlink:href="#CMSS17-57" transform="scale(0.996264)"/>
      <use xlink:href="#CMSS17-61" transform="translate(85.639712 0) scale(0.996264)"/>
      <use xlink:href="#CMSS17-76" transform="translate(130.561633 0) scale(0.996264)"/>
      <use xlink:href="#CMSS17-65" transform="translate(173.561775 0) scale(0.996264)"/>
      <use xlink:href="#CMSS17-6c" transform="translate(215.200597 0) scale(0.996264)"/>
      <use xlink:href="#CMSS17-65" transform="translate(237.38132 0) scale(0.996264)"/>
      <use xlink:href="#CMSS17-6e" transform="translate(279.020142 0) scale(0.996264)"/>
      <use xlink:href="#CMSS17-67" transform="translate(327.225085 0) scale(0.996264)"/>
      <use xlink:href="#CMSS17-74" transform="translate(374.068708 0) scale(0.996264)"/>
      <use xlink:href="#CMSS17-68" transform="translate(407.900275 0) scale(0.996264)"/>
      <use xlink:href="#CMSS17-2c" transform="translate(456.105218 0) scale(0.996264)"/>
      <use xlink:href="#CMMI12-6e" transform="translate(513.358536 0) scale(0.996264)"/>
      <use xlink:href="#CMMI12-6d" transform="translate(571.588583 0) scale(0.996264)"/>
     </g>
    </g>
   </g>
   <g id="matplotlib.axis_2">
    <g id="ytick_1">
     <g id="line2d_7">
      <defs>
       <path id="m084273498e" d="M 0 0 
L -3.5 0 
" style="stroke: #000000; stroke-width: 0.8"/>
      </defs>
      <g>
       <use xlink:href="#m084273498e" x="57.6" y="295.252218" style="stroke: #000000; stroke-width: 0.8"/>
      </g>
     </g>
     <g id="text_8">
      <!-- $\mathdefault{0.0}$ -->
      <g transform="translate(37.869921 298.711468) scale(0.1 -0.1)">
       <defs>
        <path id="CMMI12-3a" d="M 1178 307 
C 1178 492 1024 619 870 619 
C 685 619 557 466 557 313 
C 557 128 710 0 864 0 
C 1050 0 1178 153 1178 307 
z
" transform="scale(0.015625)"/>
       </defs>
       <use xlink:href="#CMR17-30" transform="scale(0.996264)"/>
       <use xlink:href="#CMMI12-3a" transform="translate(45.690477 0) scale(0.996264)"/>
       <use xlink:href="#CMR17-30" transform="translate(72.787654 0) scale(0.996264)"/>
      </g>
     </g>
    </g>
    <g id="ytick_2">
     <g id="line2d_8">
      <g>
       <use xlink:href="#m084273498e" x="57.6" y="247.691179" style="stroke: #000000; stroke-width: 0.8"/>
      </g>
     </g>
     <g id="text_9">
      <!-- $\mathdefault{0.2}$ -->
      <g transform="translate(37.869921 251.150428) scale(0.1 -0.1)">
       <use xlink:href="#CMR17-30" transform="scale(0.996264)"/>
       <use xlink:href="#CMMI12-3a" transform="translate(45.690477 0) scale(0.996264)"/>
       <use xlink:href="#CMR17-32" transform="translate(72.787654 0) scale(0.996264)"/>
      </g>
     </g>
    </g>
    <g id="ytick_3">
     <g id="line2d_9">
      <g>
       <use xlink:href="#m084273498e" x="57.6" y="200.13014" style="stroke: #000000; stroke-width: 0.8"/>
      </g>
     </g>
     <g id="text_10">
      <!-- $\mathdefault{0.4}$ -->
      <g transform="translate(37.869921 203.589389) scale(0.1 -0.1)">
       <use xlink:href="#CMR17-30" transform="scale(0.996264)"/>
       <use xlink:href="#CMMI12-3a" transform="translate(45.690477 0) scale(0.996264)"/>
       <use xlink:href="#CMR17-34" transform="translate(72.787654 0) scale(0.996264)"/>
      </g>
     </g>
    </g>
    <g id="ytick_4">
     <g id="line2d_10">
      <g>
       <use xlink:href="#m084273498e" x="57.6" y="152.569101" style="stroke: #000000; stroke-width: 0.8"/>
      </g>
     </g>
     <g id="text_11">
      <!-- $\mathdefault{0.6}$ -->
      <g transform="translate(37.869921 156.02835) scale(0.1 -0.1)">
       <use xlink:href="#CMR17-30" transform="scale(0.996264)"/>
       <use xlink:href="#CMMI12-3a" transform="translate(45.690477 0) scale(0.996264)"/>
       <use xlink:href="#CMR17-36" transform="translate(72.787654 0) scale(0.996264)"/>
      </g>
     </g>
    </g>
    <g id="ytick_5">
     <g id="line2d_11">
      <g>
       <use xlink:href="#m084273498e" x="57.6" y="105.008062" style="stroke: #000000; stroke-width: 0.8"/>
      </g>
     </g>
     <g id="text_12">
      <!-- $\mathdefault{0.8}$ -->
      <g transform="translate(37.869921 108.467311) scale(0.1 -0.1)">
       <defs>
        <path id="CMR17-38" d="M 1741 2264 
C 2144 2467 2554 2773 2554 3263 
C 2554 3841 1990 4179 1472 4179 
C 890 4179 378 3759 378 3180 
C 378 3021 416 2747 666 2505 
C 730 2442 998 2251 1171 2130 
C 883 1983 211 1634 211 934 
C 211 279 838 -128 1459 -128 
C 2144 -128 2720 362 2720 1010 
C 2720 1590 2330 1857 2074 2029 
L 1741 2264 
z
M 902 2822 
C 851 2854 595 3051 595 3351 
C 595 3739 998 4032 1459 4032 
C 1965 4032 2336 3676 2336 3262 
C 2336 2669 1670 2331 1638 2331 
C 1632 2331 1626 2331 1574 2370 
L 902 2822 
z
M 2080 1519 
C 2176 1449 2483 1240 2483 851 
C 2483 381 2010 25 1472 25 
C 890 25 448 438 448 940 
C 448 1443 838 1862 1280 2060 
L 2080 1519 
z
" transform="scale(0.015625)"/>
       </defs>
       <use xlink:href="#CMR17-30" transform="scale(0.996264)"/>
       <use xlink:href="#CMMI12-3a" transform="translate(45.690477 0) scale(0.996264)"/>
       <use xlink:href="#CMR17-38" transform="translate(72.787654 0) scale(0.996264)"/>
      </g>
     </g>
    </g>
    <g id="ytick_6">
     <g id="line2d_12">
      <g>
       <use xlink:href="#m084273498e" x="57.6" y="57.447022" style="stroke: #000000; stroke-width: 0.8"/>
      </g>
     </g>
     <g id="text_13">
      <!-- $\mathdefault{1.0}$ -->
      <g transform="translate(37.869921 60.906272) scale(0.1 -0.1)">
       <defs>
        <path id="CMR17-31" d="M 1702 4058 
C 1702 4192 1696 4192 1606 4192 
C 1357 3916 979 3827 621 3827 
C 602 3827 570 3827 563 3808 
C 557 3795 557 3782 557 3648 
C 755 3648 1088 3686 1344 3839 
L 1344 461 
C 1344 236 1331 160 781 160 
L 589 160 
L 589 0 
C 896 0 1216 0 1523 0 
C 1830 0 2150 0 2458 0 
L 2458 160 
L 2266 160 
C 1715 160 1702 230 1702 458 
L 1702 4058 
z
" transform="scale(0.015625)"/>
       </defs>
       <use xlink:href="#CMR17-31" transform="scale(0.996264)"/>
       <use xlink:href="#CMMI12-3a" transform="translate(45.690477 0) scale(0.996264)"/>
       <use xlink:href="#CMR17-30" transform="translate(72.787654 0) scale(0.996264)"/>
      </g>
     </g>
    </g>
    <g id="text_14">
     <!-- A, $a.u.$ -->
     <g transform="translate(31.932743 189.145107) rotate(-90) scale(0.1 -0.1)">
      <defs>
       <path id="CMSS17-41" d="M 2272 4416 
L 1722 4416 
L 166 0 
L 653 0 
L 1101 1280 
L 2816 1280 
L 3270 0 
L 3827 0 
L 2272 4416 
z
M 2694 1637 
L 1222 1637 
C 1530 2528 1914 3638 1958 3925 
L 1965 3925 
C 2010 3663 2138 3281 2246 2956 
L 2694 1637 
z
" transform="scale(0.015625)"/>
       <path id="CMMI12-61" d="M 1926 760 
C 1894 651 1894 639 1805 517 
C 1664 338 1382 64 1082 64 
C 819 64 672 300 672 677 
C 672 1028 870 1743 992 2012 
C 1210 2459 1510 2689 1760 2689 
C 2182 2689 2266 2165 2266 2114 
C 2266 2108 2246 2024 2240 2012 
L 1926 760 
z
M 2336 2395 
C 2266 2561 2093 2816 1760 2816 
C 1037 2816 256 1884 256 939 
C 256 307 627 -64 1062 -64 
C 1414 -64 1715 211 1894 422 
C 1958 45 2259 -64 2451 -64 
C 2643 -64 2797 51 2912 281 
C 3014 498 3104 888 3104 913 
C 3104 945 3078 971 3040 971 
C 2982 971 2976 939 2950 843 
C 2854 466 2733 64 2470 64 
C 2285 64 2272 230 2272 358 
C 2272 505 2291 575 2349 824 
C 2394 984 2426 1124 2477 1309 
C 2714 2267 2771 2497 2771 2535 
C 2771 2625 2701 2695 2605 2695 
C 2400 2695 2349 2472 2336 2395 
z
" transform="scale(0.015625)"/>
       <path id="CMMI12-75" d="M 2182 370 
C 2266 13 2573 -64 2726 -64 
C 2931 -64 3085 70 3187 287 
C 3296 517 3379 894 3379 913 
C 3379 945 3354 971 3315 971 
C 3258 971 3251 939 3226 843 
C 3110 402 2995 64 2739 64 
C 2547 64 2547 275 2547 358 
C 2547 505 2566 568 2630 837 
C 2675 1009 2720 1181 2758 1360 
L 3021 2401 
C 3066 2561 3066 2574 3066 2593 
C 3066 2689 2989 2753 2893 2753 
C 2707 2753 2662 2593 2624 2433 
C 2560 2184 2214 811 2170 588 
C 2163 588 1914 64 1446 64 
C 1114 64 1050 351 1050 588 
C 1050 952 1229 1462 1395 1890 
C 1472 2095 1504 2178 1504 2305 
C 1504 2580 1306 2816 998 2816 
C 410 2816 173 1890 173 1839 
C 173 1814 198 1782 243 1782 
C 301 1782 307 1807 333 1896 
C 486 2441 736 2682 979 2682 
C 1043 2682 1146 2682 1146 2478 
C 1146 2312 1075 2127 979 1884 
C 698 1124 666 881 666 690 
C 666 38 1158 -64 1421 -64 
C 1830 -64 2054 217 2182 370 
z
" transform="scale(0.015625)"/>
      </defs>
      <use xlink:href="#CMSS17-41" transform="scale(0.996264)"/>
      <use xlink:href="#CMSS17-2c" transform="translate(62.217855 0) scale(0.996264)"/>
      <use xlink:href="#CMMI12-61" transform="translate(119.471173 0) scale(0.996264)"/>
      <use xlink:href="#CMMI12-3a" transform="translate(170.67903 0) scale(0.996264)"/>
      <use xlink:href="#CMMI12-75" transform="translate(197.776207 0) scale(0.996264)"/>
      <use xlink:href="#CMMI12-3a" transform="translate(253.296537 0) scale(0.996264)"/>
     </g>
    </g>
   </g>
   <g id="line2d_13">
    <path d="M 398.487273 295.312885 
L 397.805468 295.44141 
L 395.758692 295.354797 
L 394.39306 295.314398 
L 393.02652 295.372126 
L 388.334625 295.488 
L 387.649518 295.329408 
L 386.964205 295.390963 
L 385.592918 295.197029 
L 383.534378 295.322998 
L 380.197341 295.320156 
L 379.509675 295.391947 
L 378.133724 295.332767 
L 376.855268 295.32023 
L 376.166529 295.196863 
L 375.477625 295.400492 
L 374.788514 295.282008 
L 374.099156 295.363714 
L 372.71982 295.309452 
L 371.438269 295.278857 
L 370.74792 295.164066 
L 369.366562 295.217315 
L 368.675552 295.173388 
L 367.984337 295.345732 
L 367.39173 295.201734 
L 366.700102 295.233977 
L 366.008308 295.088825 
L 365.316309 295.313943 
L 361.952153 295.214464 
L 361.258915 295.317105 
L 360.56547 295.21157 
L 359.277149 295.318188 
L 358.583126 295.258719 
L 357.888898 295.3229 
L 357.194462 295.168367 
L 356.499821 295.315776 
L 355.805014 295.231052 
L 355.209271 295.369125 
L 354.514051 295.205898 
L 353.123034 295.235516 
L 352.427196 295.211674 
L 351.830627 295.40236 
L 351.134417 295.310227 
L 349.74146 295.35139 
L 348.447236 295.209544 
L 347.750077 295.289036 
L 346.355139 295.201827 
L 345.757043 295.177441 
L 345.05914 295.278685 
L 344.36099 295.164264 
L 340.267975 295.151516 
L 339.668434 295.135376 
L 338.968757 295.25665 
L 336.868651 295.151047 
L 335.5677 295.174219 
L 334.866908 295.241599 
L 333.564924 295.019741 
L 332.16202 295.013645 
L 330.156603 294.988869 
L 329.454325 295.058214 
L 328.149576 294.931495 
L 326.743741 294.860076 
L 326.141022 294.934076 
L 325.437671 294.831845 
L 324.734114 294.929056 
L 323.427012 294.844929 
L 322.722918 294.700503 
L 320.710195 294.667048 
L 319.300397 294.468708 
L 318.695986 294.537945 
L 317.285115 294.360911 
L 314.562024 294.187741 
L 313.95654 294.025282 
L 311.230147 293.698496 
L 302.426744 292.061714 
L 295.628345 289.884827 
L 290.951473 287.841078 
L 290.239124 287.344992 
L 289.628398 287.064584 
L 288.915718 286.610857 
L 288.202874 286.31503 
L 285.553668 284.517832 
L 284.839998 284.093648 
L 283.514197 283.044529 
L 282.800073 282.62765 
L 282.187819 281.949569 
L 280.758787 280.786524 
L 279.431171 279.655481 
L 278.103018 278.246946 
L 276.774287 277.192849 
L 275.342696 275.414911 
L 274.012768 274.044593 
L 273.398739 273.525185 
L 271.96562 271.657885 
L 271.351179 270.701001 
L 270.634248 269.928304 
L 265.918763 263.153739 
L 261.196322 255.587245 
L 259.860471 253.326988 
L 258.421264 250.525329 
L 257.804264 249.727468 
L 257.084278 248.504429 
L 256.46703 247.021932 
L 255.129281 244.387473 
L 253.68801 241.870777 
L 252.349125 239.25269 
L 249.669766 234.045752 
L 248.329293 231.104182 
L 245.646776 225.897 
L 242.962176 220.604531 
L 240.89569 216.744424 
L 240.172114 215.567284 
L 239.551811 214.299217 
L 238.207437 212.097665 
L 236.138144 208.39675 
L 235.51714 207.583372 
L 234.171217 205.427781 
L 233.446299 204.360676 
L 232.099614 202.184065 
L 231.374283 201.202183 
L 230.752432 200.745877 
L 229.404756 198.847124 
L 228.678888 197.940047 
L 226.707917 196.231371 
L 225.358775 194.979313 
L 223.282197 193.554088 
L 222.658984 193.136485 
L 219.22957 192.070621 
L 218.605697 192.106255 
L 217.877725 192.008431 
L 217.253645 192.117205 
L 216.525405 192.099756 
L 215.901119 192.362526 
L 214.548097 192.586756 
L 213.819361 192.965217 
L 213.194621 193.070702 
L 212.465637 193.465074 
L 211.840691 194.213306 
L 211.111439 194.4404 
L 210.486266 194.88105 
L 209.131387 196.161698 
L 206.420245 198.688606 
L 205.690023 199.481785 
L 204.333513 201.169107 
L 201.619152 204.77998 
L 196.289597 213.14465 
L 185.400577 231.092899 
L 184.771523 231.780643 
L 182.044614 235.9047 
L 180.050796 238.430538 
L 178.686093 240.193877 
L 177.320977 241.485828 
L 175.955469 243.231953 
L 175.325095 243.484826 
L 174.589528 243.958814 
L 173.958968 244.657352 
L 173.223194 245.242275 
L 171.856468 245.773106 
L 171.225516 246.251595 
L 170.594502 246.983392 
L 169.858192 246.727911 
L 165.859122 248.121397 
L 164.49025 248.292895 
L 163.120986 248.064866 
L 162.488878 248.295581 
L 161.751329 247.965497 
L 160.381281 248.03241 
L 159.010861 247.770813 
L 158.378237 247.933733 
L 157.745531 247.505226 
L 157.00726 247.726678 
L 156.374368 247.732766 
L 155.002854 247.050189 
L 154.369715 247.286931 
L 153.630949 247.294539 
L 152.997623 247.52445 
L 152.258671 247.541625 
L 151.625181 247.70368 
L 150.991628 247.423366 
L 150.252367 247.674811 
L 148.879202 247.869123 
L 148.245299 247.99729 
L 147.611313 248.314823 
L 146.871577 248.393419 
L 146.237446 248.83907 
L 145.497504 249.137651 
L 144.863208 249.799236 
L 144.22881 249.672118 
L 143.488599 249.860742 
L 142.854056 250.25769 
L 142.113659 250.569446 
L 141.47893 251.051393 
L 140.84416 251.330999 
L 139.468519 252.627518 
L 138.092547 253.89897 
L 136.716225 254.475889 
L 136.080877 254.863024 
L 134.704059 256.284865 
L 134.068484 256.278501 
L 132.69115 257.158625 
L 132.055348 257.961291 
L 130.677519 258.712553 
L 129.935492 258.741409 
L 129.29938 259.434571 
L 128.663186 259.172137 
L 127.284552 259.52564 
L 126.648152 259.799605 
L 125.905588 259.413777 
L 125.269023 259.783396 
L 123.252812 257.68121 
L 122.509815 256.489957 
L 121.235899 253.978555 
L 119.855511 250.628921 
L 119.112101 248.00453 
L 118.474813 246.304093 
L 117.837463 245.031812 
L 117.093806 242.479574 
L 116.456312 241.962241 
L 115.818755 241.096492 
L 115.07483 240.765881 
L 114.437129 240.358192 
L 113.799366 240.392689 
L 113.055213 240.233211 
L 112.417306 240.382207 
L 111.672988 240.400038 
L 111.034937 240.926787 
L 110.396803 241.270904 
L 109.652258 242.317494 
L 109.014 242.79958 
L 107.630887 245.185872 
L 106.992423 245.705062 
L 106.353917 246.377785 
L 105.608898 248.142158 
L 103.586269 250.531487 
L 102.947412 251.414167 
L 101.56302 253.841876 
L 100.923957 254.553709 
L 100.178339 254.670941 
L 99.539152 255.454145 
L 98.154048 256.114703 
L 97.514686 256.416605 
L 96.875252 256.126825 
L 96.129169 255.458996 
L 95.489611 255.701047 
L 94.849991 255.34118 
L 94.103899 255.056471 
L 93.467962 254.283069 
L 92.831975 254.220518 
L 92.089917 253.468982 
L 91.453805 252.569538 
L 90.711603 251.204019 
L 90.075357 249.774112 
L 89.43907 248.007272 
L 88.06024 242.461371 
L 86.681142 234.342044 
L 85.301785 224.116815 
L 84.028303 213.994087 
L 79.887985 172.603284 
L 77.232752 137.832847 
L 75.851673 114.197792 
L 73.832727 81.088144 
L 73.832727 81.088144 
" clip-path="url(#p55aa918598)" style="fill: none; stroke: #1f77b4; stroke-width: 1.5; stroke-linecap: square"/>
   </g>
   <g id="line2d_14">
    <path d="M 398.487273 289.599843 
L 397.805468 289.294912 
L 395.075979 287.260418 
L 393.709893 286.098198 
L 393.02652 285.298942 
L 392.342941 284.687058 
L 391.659114 283.764989 
L 390.388624 282.314466 
L 389.019525 280.427805 
L 388.334625 279.418042 
L 387.649518 278.023066 
L 386.964205 276.999393 
L 386.278685 275.473063 
L 384.906944 273.032653 
L 383.534378 270.11906 
L 382.259059 266.902565 
L 380.197341 260.83959 
L 379.509675 258.952538 
L 374.788514 239.609839 
L 373.409591 232.826096 
L 370.74792 218.300584 
L 370.057323 214.681533 
L 367.39173 196.718662 
L 366.008308 188.145574 
L 364.624061 178.313044 
L 361.258915 152.560066 
L 360.56547 147.770997 
L 357.888898 126.572816 
L 357.194462 122.095114 
L 355.209271 107.212743 
L 352.427196 89.863123 
L 351.134417 83.47046 
L 350.438042 79.426888 
L 349.74146 76.824303 
L 349.044631 73.775469 
L 348.447236 71.888885 
L 347.052711 67.066918 
L 346.355139 64.928087 
L 345.757043 63.49861 
L 343.662675 60.268713 
L 342.365232 59.612614 
L 341.666339 59.322778 
L 340.967239 59.359319 
L 340.267975 60.092144 
L 339.668434 61.057938 
L 338.968757 61.068385 
L 337.568865 63.30282 
L 336.868651 64.704871 
L 335.5677 68.202193 
L 334.866908 69.626398 
L 331.46032 79.575165 
L 330.858674 81.917 
L 328.852225 88.356183 
L 326.141022 98.563574 
L 325.437671 100.502249 
L 322.722918 111.137024 
L 321.314193 115.658184 
L 320.005399 120.512837 
L 319.300397 122.519435 
L 317.285115 129.407618 
L 315.268264 135.981415 
L 313.95654 140.405354 
L 311.937254 146.448295 
L 309.208838 155.093041 
L 307.793055 159.894413 
L 306.47774 164.171605 
L 301.10891 180.483454 
L 299.689041 184.474687 
L 297.659394 190.542724 
L 296.339373 193.445931 
L 295.018733 197.235152 
L 290.951473 207.601643 
L 286.87856 217.406009 
L 283.514197 224.759144 
L 278.103018 235.262417 
L 274.728956 241.280723 
L 274.012768 242.639598 
L 273.398739 243.480254 
L 271.96562 246.074501 
L 269.917111 249.269794 
L 269.302318 249.998296 
L 266.636787 254.173037 
L 264.584852 256.824913 
L 262.531616 259.642373 
L 257.804264 265.120777 
L 257.084278 265.785423 
L 255.746776 267.418671 
L 252.349125 270.644231 
L 251.730989 271.415829 
L 250.391341 272.379057 
L 247.607285 274.776919 
L 246.266006 275.77357 
L 244.304734 277.170792 
L 242.239033 278.451206 
L 240.89569 279.093257 
L 240.172114 279.61851 
L 239.551811 279.812773 
L 238.207437 280.578058 
L 236.862525 281.133775 
L 236.138144 281.234988 
L 235.51714 281.727765 
L 234.171217 282.024289 
L 232.721216 282.370227 
L 231.374283 282.569675 
L 230.752432 282.667738 
L 228.056584 282.488648 
L 227.330448 282.225634 
L 226.707917 282.254813 
L 224.632102 281.391514 
L 224.009117 281.260677 
L 223.282197 280.634262 
L 222.658984 280.307018 
L 220.580921 278.834295 
L 219.22957 277.358311 
L 218.605697 276.713783 
L 215.901119 273.232015 
L 212.465637 267.958167 
L 211.840691 266.79248 
L 210.486266 264.897478 
L 207.046058 258.730431 
L 205.690023 256.595608 
L 204.333513 254.426725 
L 202.97655 252.135248 
L 202.350117 251.431541 
L 200.261281 248.683234 
L 199.634435 247.903134 
L 199.007487 247.387735 
L 197.648749 245.857932 
L 195.557559 244.240216 
L 193.569953 243.41923 
L 192.20946 243.027804 
L 190.848554 242.946309 
L 190.115567 242.888354 
L 188.125422 243.316226 
L 185.400577 244.506874 
L 183.408286 245.687068 
L 180.050796 248.415648 
L 178.686093 249.779382 
L 177.320977 250.936869 
L 175.955469 252.574099 
L 174.589528 253.498628 
L 173.958968 254.114671 
L 173.223194 255.045334 
L 171.225516 256.791809 
L 170.594502 257.81817 
L 169.858192 257.973718 
L 168.490476 259.305453 
L 166.490776 260.857833 
L 165.859122 261.627146 
L 165.122089 261.916745 
L 163.75299 263.27432 
L 163.120986 263.727677 
L 162.488878 264.37018 
L 161.751329 264.881348 
L 161.119057 265.525789 
L 160.381281 265.711579 
L 159.748843 266.087075 
L 159.010861 266.392962 
L 158.378237 267.344743 
L 157.745531 267.271247 
L 156.374368 267.920733 
L 155.635911 267.954638 
L 155.002854 267.610504 
L 153.630949 267.910402 
L 152.258671 267.326835 
L 150.991628 266.403584 
L 150.252367 265.633778 
L 148.879202 263.212403 
L 148.245299 261.673468 
L 147.611313 260.659042 
L 146.871577 258.809151 
L 146.237446 256.779204 
L 144.863208 251.69918 
L 144.22881 249.725604 
L 143.488599 246.705073 
L 141.47893 236.318597 
L 140.84416 233.75851 
L 140.103475 231.299086 
L 139.468519 227.571225 
L 138.727647 223.961259 
L 138.092547 221.530637 
L 135.339551 213.133615 
L 134.068484 211.62997 
L 133.32689 210.793325 
L 132.055348 210.526983 
L 130.677519 211.48428 
L 129.935492 212.481399 
L 129.29938 213.963881 
L 128.663186 214.798683 
L 127.920891 216.842524 
L 126.648152 218.922751 
L 125.905588 221.032701 
L 125.269023 223.450566 
L 123.889584 226.587614 
L 123.252812 227.833499 
L 122.509815 229.673755 
L 121.235899 232.4467 
L 119.855511 235.516541 
L 119.112101 236.651965 
L 118.474813 237.90993 
L 117.837463 239.45613 
L 115.818755 243.152336 
L 115.07483 244.81846 
L 113.799366 246.834094 
L 113.055213 248.474843 
L 111.034937 251.664449 
L 110.396803 252.045539 
L 109.014 254.63041 
L 107.630887 256.295694 
L 106.353917 257.123296 
L 105.608898 257.308519 
L 104.331515 258.078239 
L 103.586269 257.789474 
L 102.947412 258.060674 
L 102.202 258.089058 
L 101.56302 257.991794 
L 100.923957 258.029122 
L 98.899904 255.520134 
L 97.514686 252.835317 
L 96.129169 250.789622 
L 94.103899 245.176885 
L 93.467962 242.986436 
L 92.089917 239.143431 
L 90.075357 231.303083 
L 88.696651 225.117357 
L 86.044545 208.66626 
L 84.028303 194.596409 
L 82.648451 182.909342 
L 80.631291 164.817585 
L 79.887985 158.100911 
L 79.250821 149.731033 
L 77.870092 129.119596 
L 77.232752 120.877003 
L 73.832727 53.568 
L 73.832727 53.568 
" clip-path="url(#p55aa918598)" style="fill: none; stroke: #ff7f0e; stroke-width: 1.5; stroke-linecap: square"/>
   </g>
   <g id="line2d_15">
    <path d="M 398.487273 293.10304 
L 396.441157 292.61795 
L 394.39306 292.031324 
L 393.02652 291.520893 
L 391.659114 290.881256 
L 390.97508 290.545093 
L 390.388624 290.440478 
L 389.704178 289.989345 
L 388.334625 289.314312 
L 384.906944 286.824211 
L 384.220764 286.458894 
L 383.534378 285.57948 
L 382.945858 285.267939 
L 382.259059 284.605022 
L 381.572054 283.632105 
L 380.197341 282.195286 
L 379.509675 281.491511 
L 375.477625 275.513149 
L 372.71982 270.209121 
L 372.128452 268.806972 
L 370.74792 266.093884 
L 370.057323 264.729286 
L 368.675552 261.102307 
L 367.984337 259.598755 
L 366.008308 254.592054 
L 365.316309 253.054813 
L 361.258915 241.435276 
L 360.56547 239.603677 
L 358.583126 233.322034 
L 357.194462 229.756901 
L 354.514051 222.56035 
L 353.818625 221.027074 
L 353.123034 219.129604 
L 352.427196 217.710955 
L 351.830627 216.801518 
L 350.438042 213.95072 
L 349.74146 212.910724 
L 349.044631 211.625661 
L 347.750077 210.096297 
L 345.757043 207.843208 
L 345.05914 207.530509 
L 344.36099 207.024374 
L 342.365232 206.40378 
L 340.267975 206.670753 
L 339.668434 207.032772 
L 338.968757 207.157576 
L 337.568865 208.006298 
L 335.5677 209.934682 
L 333.564924 211.785569 
L 330.858674 214.963098 
L 328.149576 218.519641 
L 326.141022 221.278568 
L 325.437671 221.931089 
L 323.427012 224.903488 
L 322.018659 226.696614 
L 320.710195 228.31607 
L 318.695986 230.82195 
L 315.97434 234.063675 
L 313.95654 236.459574 
L 312.543192 237.769725 
L 311.937254 238.654162 
L 309.916482 240.862227 
L 308.501029 242.3659 
L 307.186085 243.971298 
L 305.161805 245.962684 
L 300.399078 250.628921 
L 299.080295 251.808503 
L 297.659394 253.067715 
L 296.339373 253.901405 
L 295.018733 254.972095 
L 292.985825 256.341973 
L 292.27393 256.797099 
L 291.561911 257.47653 
L 290.951473 257.644308 
L 289.628398 258.40321 
L 288.915718 258.696675 
L 287.591734 259.40956 
L 285.553668 260.337285 
L 284.126204 260.787107 
L 283.514197 260.965331 
L 282.800073 261.321867 
L 276.774287 262.007053 
L 273.398739 261.905487 
L 272.682262 261.897702 
L 268.584892 260.731873 
L 266.636787 260.017584 
L 264.584852 258.89347 
L 263.250404 258.350577 
L 262.531616 257.735381 
L 261.812683 257.335971 
L 261.196322 257.201503 
L 259.860471 256.349833 
L 259.14094 255.664315 
L 257.804264 254.778542 
L 257.084278 254.444429 
L 255.746776 253.042559 
L 255.129281 252.495538 
L 254.408717 252.132059 
L 252.349125 250.272183 
L 251.730989 249.843169 
L 251.009704 248.934739 
L 250.391341 248.548716 
L 246.266006 244.450573 
L 238.827966 237.20826 
L 237.483323 235.972588 
L 236.138144 234.597997 
L 235.51714 234.301407 
L 234.792469 233.41776 
L 234.171217 233.05066 
L 232.721216 231.680736 
L 231.374283 230.605452 
L 230.752432 230.243979 
L 229.404756 228.940511 
L 228.678888 228.363866 
L 228.056584 228.1305 
L 227.330448 227.482409 
L 226.707917 227.197052 
L 225.358775 226.061485 
L 224.009117 225.467646 
L 222.658984 224.506806 
L 221.931796 224.026496 
L 221.308377 223.879332 
L 219.957275 223.244904 
L 218.605697 222.565523 
L 215.901119 221.504301 
L 215.172631 221.028435 
L 213.194621 220.509046 
L 212.465637 220.232463 
L 211.840691 220.204284 
L 210.486266 219.899119 
L 209.756787 219.76408 
L 209.131387 219.811451 
L 207.776053 219.629092 
L 205.064004 219.825611 
L 203.707288 220.13376 
L 202.350117 220.427586 
L 198.275924 222.548592 
L 196.289597 224.007028 
L 193.569953 226.360209 
L 192.83744 227.172757 
L 192.20946 227.518497 
L 190.848554 229.171099 
L 190.115567 229.740742 
L 189.487195 230.698698 
L 188.85874 231.255174 
L 186.134349 234.46979 
L 185.400577 235.338306 
L 184.771523 235.854371 
L 183.408286 237.566218 
L 178.686093 243.020759 
L 177.320977 244.356906 
L 176.690789 245.266258 
L 175.955469 245.999214 
L 175.325095 246.447285 
L 174.589528 246.738999 
L 173.958968 247.665463 
L 173.223194 248.297172 
L 171.856468 249.057637 
L 171.225516 249.570913 
L 170.594502 250.423472 
L 169.858192 250.089522 
L 169.226992 250.767142 
L 167.85909 251.4304 
L 167.122347 252.017035 
L 165.122089 252.836968 
L 163.120986 253.182428 
L 162.488878 253.789559 
L 161.751329 253.678925 
L 161.119057 253.819913 
L 159.748843 253.625973 
L 158.378237 254.595775 
L 157.745531 254.278841 
L 157.00726 254.573351 
L 155.635911 254.609361 
L 155.002854 254.134784 
L 154.369715 254.412887 
L 152.997623 253.945915 
L 152.258671 254.174015 
L 151.625181 253.999367 
L 150.991628 253.690736 
L 150.252367 253.559074 
L 149.618649 253.145798 
L 148.879202 252.80453 
L 148.245299 252.130397 
L 147.611313 251.904803 
L 146.237446 251.172686 
L 145.497504 250.039143 
L 144.863208 249.737677 
L 144.22881 248.727057 
L 143.488599 248.184189 
L 142.854056 246.838354 
L 141.47893 244.408252 
L 140.84416 243.982595 
L 140.103475 243.250758 
L 139.468519 242.439897 
L 138.727647 241.258983 
L 138.092547 241.196283 
L 137.457364 240.70958 
L 136.080877 239.470765 
L 135.339551 239.047088 
L 134.704059 238.97926 
L 134.068484 239.311708 
L 133.32689 239.147605 
L 132.69115 239.185273 
L 131.313486 240.278327 
L 130.677519 240.779339 
L 129.935492 241.219281 
L 129.29938 241.818162 
L 128.663186 242.026769 
L 127.920891 243.076804 
L 127.284552 243.668422 
L 126.648152 244.080018 
L 125.905588 244.324163 
L 125.269023 245.612575 
L 124.526294 245.268345 
L 123.889584 245.549212 
L 123.252812 246.064579 
L 122.509815 245.615502 
L 121.872898 245.487894 
L 121.235899 245.142771 
L 120.492655 244.599804 
L 119.855511 244.512168 
L 118.474813 242.673117 
L 117.837463 242.446601 
L 117.093806 241.435194 
L 116.456312 241.240967 
L 115.818755 241.430113 
L 115.07483 241.522735 
L 113.799366 242.251914 
L 113.055213 242.611593 
L 112.417306 243.374787 
L 111.672988 243.566101 
L 111.034937 244.392388 
L 110.396803 244.971599 
L 109.014 246.823333 
L 108.37568 247.90222 
L 107.630887 248.567841 
L 106.992423 249.502292 
L 106.353917 249.890228 
L 105.608898 251.013233 
L 101.56302 255.19612 
L 100.923957 255.673978 
L 100.178339 255.739555 
L 99.539152 256.004841 
L 98.899904 255.500098 
L 98.154048 255.438759 
L 96.129169 254.177435 
L 95.489611 253.676621 
L 94.849991 252.53765 
L 94.103899 251.612756 
L 92.831975 249.360102 
L 92.089917 248.280379 
L 91.453805 247.047283 
L 90.075357 243.100847 
L 89.43907 241.247271 
L 88.06024 234.836302 
L 86.681142 227.11876 
L 86.044545 221.916497 
L 85.301785 217.058009 
L 83.285337 200.451725 
L 79.887985 167.108533 
L 78.613594 151.929381 
L 75.851673 109.779169 
L 75.214168 97.875313 
L 74.576601 88.93336 
L 73.832727 76.829108 
L 73.832727 76.829108 
" clip-path="url(#p55aa918598)" style="fill: none; stroke: #2ca02c; stroke-width: 1.5; stroke-linecap: square"/>
   </g>
   <g id="line2d_16">
    <path d="M 398.468987 290.664706 
L 397.104883 290.279543 
L 394.373949 288.972313 
L 392.42116 287.85248 
L 391.053092 286.869674 
L 390.368729 286.448068 
L 387.629127 283.976752 
L 386.258006 282.456002 
L 384.886017 280.928521 
L 384.297745 280.319502 
L 381.550425 276.029019 
L 378.799637 271.094402 
L 377.521346 268.061321 
L 375.45484 263.178565 
L 372.795067 255.548511 
L 369.342539 244.276687 
L 368.750139 241.570977 
L 365.291501 228.494652 
L 364.005533 223.026216 
L 361.926685 213.148951 
L 361.233323 210.623602 
L 359.251186 201.905582 
L 357.168087 192.83307 
L 355.877661 187.653982 
L 353.791631 179.464585 
L 352.499347 174.826791 
L 351.106885 170.906238 
L 349.813157 167.293083 
L 348.419168 164.240535 
L 347.024354 161.748552 
L 346.426341 160.648301 
L 345.728479 159.704336 
L 343.633699 157.772861 
L 343.034819 157.587603 
L 341.636991 157.49479 
L 340.937768 157.703875 
L 340.338268 158.019381 
L 338.938872 159.122367 
L 337.638746 160.229465 
L 335.537155 163.323331 
L 334.235254 164.943424 
L 332.231075 168.497132 
L 330.125026 172.693857 
L 328.820401 174.766167 
L 328.117628 176.570272 
L 322.689938 187.728269 
L 321.381598 190.22376 
L 319.971883 193.015529 
L 313.215173 205.629006 
L 312.609276 206.429323 
L 309.173299 212.884027 
L 308.465366 213.854243 
L 307.150133 216.459712 
L 306.441705 217.498334 
L 305.834281 218.716189 
L 303.099426 223.124239 
L 300.361888 227.546533 
L 299.042858 229.498801 
L 297.723208 231.585314 
L 289.589185 241.839548 
L 288.265242 243.166372 
L 287.55215 243.814927 
L 286.838852 244.758758 
L 285.513712 245.830976 
L 284.799918 246.751299 
L 284.187953 247.15292 
L 282.861658 248.34417 
L 282.147245 248.803885 
L 281.432667 249.516013 
L 280.105133 250.141358 
L 278.777021 251.12365 
L 276.732681 252.39956 
L 275.403124 253.027985 
L 274.686978 253.359202 
L 274.07299 253.7752 
L 272.025513 254.622982 
L 267.926595 255.703007 
L 267.311307 255.699956 
L 266.593303 255.855926 
L 263.925068 255.974852 
L 263.206301 256.083247 
L 261.151847 255.80133 
L 259.815769 255.817535 
L 258.479113 255.60373 
L 257.759169 255.046344 
L 257.141942 255.234217 
L 256.421709 255.159072 
L 255.083691 254.6489 
L 254.363004 254.609726 
L 252.406066 253.761614 
L 251.684801 253.695835 
L 251.066438 253.234904 
L 250.344905 253.087024 
L 245.599474 250.870171 
L 243.6375 249.774523 
L 241.571056 248.749368 
L 240.227218 248.059235 
L 239.503394 247.525006 
L 238.882864 247.408536 
L 237.537994 246.641689 
L 236.813633 246.04432 
L 235.467979 245.557033 
L 234.846748 245.128321 
L 233.396788 244.426952 
L 232.775185 243.973048 
L 230.702446 242.993888 
L 229.354522 242.045897 
L 228.732238 241.651225 
L 228.006103 241.367785 
L 227.383592 240.964282 
L 226.657188 240.655055 
L 226.03445 240.183597 
L 223.957913 239.077403 
L 223.334721 238.500828 
L 217.929424 235.293451 
L 213.870461 232.327891 
L 213.141478 231.978814 
L 211.787279 230.901723 
L 211.162127 230.60429 
L 209.807247 229.657865 
L 207.096127 228.081684 
L 205.009395 227.16416 
L 202.295034 226.344341 
L 200.310317 226.26675 
L 198.324651 226.294851 
L 194.873587 227.390155 
L 193.513301 228.139189 
L 192.885341 228.680718 
L 192.152581 228.655785 
L 190.791428 230.127134 
L 190.163055 230.43125 
L 188.801262 231.687532 
L 188.172601 232.172293 
L 185.447343 234.862305 
L 184.713344 235.236301 
L 183.454742 236.81649 
L 182.720413 237.518146 
L 181.356309 239.256407 
L 180.726574 239.546296 
L 178.626841 241.962333 
L 177.366526 243.173994 
L 176.631185 244.193792 
L 175.265244 245.220043 
L 174.634663 245.285354 
L 173.89889 246.275889 
L 171.270136 248.387983 
L 170.533826 249.444691 
L 169.902606 249.445524 
L 167.797939 251.013119 
L 167.166348 251.20163 
L 166.534673 251.711108 
L 165.16578 252.64479 
L 164.428521 252.472058 
L 163.796475 252.838843 
L 163.164367 253.455077 
L 161.056729 254.220298 
L 160.42427 254.202041 
L 159.686268 254.737185 
L 159.053623 254.789644 
L 158.420897 255.172467 
L 157.682626 254.721976 
L 157.049713 255.338522 
L 156.311236 255.427572 
L 155.678158 255.318019 
L 155.044998 255.045344 
L 154.306211 255.133693 
L 153.672885 255.091227 
L 152.933913 254.816164 
L 152.300402 255.007021 
L 151.666829 254.793726 
L 150.927546 254.127789 
L 150.293808 253.840653 
L 149.55434 252.871511 
L 148.920416 252.572192 
L 148.286431 251.65906 
L 146.912502 250.310344 
L 146.17256 249.206464 
L 145.538223 247.709814 
L 144.903824 246.849403 
L 142.153842 240.170408 
L 141.519051 238.451633 
L 140.778345 237.086453 
L 140.143368 236.414316 
L 139.402476 233.73671 
L 138.767335 232.342725 
L 137.390971 230.186248 
L 136.755602 229.54951 
L 135.378723 227.260652 
L 134.743127 227.009902 
L 132.729909 226.741625 
L 131.988026 226.820568 
L 130.60997 228.286382 
L 129.973838 228.37877 
L 129.337623 229.501544 
L 128.595287 230.051578 
L 127.958927 231.09825 
L 127.322506 231.769679 
L 126.579901 232.91178 
L 125.943336 233.543854 
L 125.200566 235.287845 
L 124.563814 235.450304 
L 123.927022 236.084349 
L 123.184004 236.37771 
L 122.547046 236.263317 
L 121.910026 236.911358 
L 121.166741 237.369301 
L 120.529576 237.571824 
L 119.786125 237.555842 
L 119.148817 237.006085 
L 118.511425 236.903396 
L 117.767727 237.015033 
L 117.130212 236.560126 
L 116.492614 237.127098 
L 115.748668 237.395272 
L 115.110926 238.277062 
L 114.473122 238.645505 
L 113.091 239.822758 
L 112.346641 240.618808 
L 111.708548 241.13611 
L 109.049167 244.312569 
L 108.304354 245.585133 
L 107.027302 247.325269 
L 106.282241 248.461491 
L 105.643549 248.701536 
L 105.004796 249.461867 
L 104.259508 249.779417 
L 102.236136 251.262768 
L 101.597052 251.486888 
L 100.851373 251.876954 
L 99.572875 251.841281 
L 98.826989 251.143523 
L 98.187575 251.049324 
L 97.54811 250.301247 
L 96.801986 249.604811 
L 96.162387 248.577235 
L 95.522736 248.123115 
L 93.500581 243.48254 
L 92.758471 241.940922 
L 92.122319 240.948151 
L 91.380075 239.290691 
L 90.10746 235.189511 
L 88.092033 225.984455 
L 85.969917 212.886656 
L 85.333166 208.325262 
L 81.936216 178.493787 
L 81.299114 171.603273 
L 80.66196 166.009317 
L 79.281272 150.807131 
L 78.537728 141.56002 
L 77.900337 130.997194 
L 77.262905 123.478397 
L 74.500075 75.424804 
L 73.862353 66.477522 
L 73.862353 66.477522 
" clip-path="url(#p55aa918598)" style="fill: none; stroke: #d62728; stroke-width: 1.5; stroke-linecap: square"/>
   </g>
   <g id="patch_3">
    <path d="M 57.6 307.584 
L 57.6 41.472 
" style="fill: none; stroke: #000000; stroke-width: 0.8; stroke-linejoin: miter; stroke-linecap: square"/>
   </g>
   <g id="patch_4">
    <path d="M 414.72 307.584 
L 414.72 41.472 
" style="fill: none; stroke: #000000; stroke-width: 0.8; stroke-linejoin: miter; stroke-linecap: square"/>
   </g>
   <g id="patch_5">
    <path d="M 57.6 307.584 
L 414.72 307.584 
" style="fill: none; stroke: #000000; stroke-width: 0.8; stroke-linejoin: miter; stroke-linecap: square"/>
   </g>
   <g id="patch_6">
    <path d="M 57.6 41.472 
L 414.72 41.472 
" style="fill: none; stroke: #000000; stroke-width: 0.8; stroke-linejoin: miter; stroke-linecap: square"/>
   </g>
   <g id="legend_1">
    <g id="patch_7">
     <path d="M 183.234247 105.220713 
L 289.085753 105.220713 
Q 291.085753 105.220713 291.085753 103.220713 
L 291.085753 48.472 
Q 291.085753 46.472 289.085753 46.472 
L 183.234247 46.472 
Q 181.234247 46.472 181.234247 48.472 
L 181.234247 103.220713 
Q 181.234247 105.220713 183.234247 105.220713 
z
" style="fill: #ffffff; opacity: 0.8; stroke: #cccccc; stroke-linejoin: miter"/>
    </g>
    <g id="line2d_17">
     <path d="M 185.234247 53.972 
L 195.234247 53.972 
L 205.234247 53.972 
" style="fill: none; stroke: #1f77b4; stroke-width: 1.5; stroke-linecap: square"/>
    </g>
    <g id="text_15">
     <!-- Acidic -->
     <g transform="translate(213.234247 57.472) scale(0.1 -0.1)">
      <defs>
       <path id="CMSS17-63" d="M 2464 2541 
C 2464 2585 2170 2714 2093 2739 
C 1882 2816 1613 2816 1542 2816 
C 710 2816 211 2093 211 1363 
C 211 595 768 -64 1517 -64 
C 1946 -64 2253 76 2502 242 
L 2464 664 
C 2189 453 1869 337 1523 337 
C 1024 337 698 774 698 1369 
C 698 1831 909 2414 1549 2414 
C 1901 2414 2099 2343 2394 2145 
L 2464 2541 
z
" transform="scale(0.015625)"/>
       <path id="CMSS17-69" d="M 979 4183 
L 442 4183 
L 442 3648 
L 979 3648 
L 979 4183 
z
M 947 2739 
L 474 2739 
L 474 0 
L 947 0 
L 947 2739 
z
" transform="scale(0.015625)"/>
       <path id="CMSS17-64" d="M 2611 4416 
L 2138 4416 
L 2138 2438 
C 1939 2603 1613 2756 1254 2756 
C 672 2756 211 2131 211 1347 
C 211 562 666 -64 1235 -64 
C 1677 -64 1971 172 2125 306 
L 2125 -13 
L 2611 -13 
L 2611 4416 
z
M 2125 836 
C 2125 747 2125 653 1926 482 
C 1798 375 1645 325 1498 325 
C 1152 325 698 576 698 1340 
C 698 2134 1210 2368 1562 2368 
C 1798 2368 1990 2254 2125 2065 
L 2125 836 
z
" transform="scale(0.015625)"/>
      </defs>
      <use xlink:href="#CMSS17-41" transform="scale(0.996264)"/>
      <use xlink:href="#CMSS17-63" transform="translate(62.217855 0) scale(0.996264)"/>
      <use xlink:href="#CMSS17-69" transform="translate(103.856677 0) scale(0.996264)"/>
      <use xlink:href="#CMSS17-64" transform="translate(126.0374 0) scale(0.996264)"/>
      <use xlink:href="#CMSS17-69" transform="translate(174.242343 0) scale(0.996264)"/>
      <use xlink:href="#CMSS17-63" transform="translate(196.423066 0) scale(0.996264)"/>
     </g>
    </g>
    <g id="line2d_18">
     <path d="M 185.234247 67.909178 
L 195.234247 67.909178 
L 205.234247 67.909178 
" style="fill: none; stroke: #ff7f0e; stroke-width: 1.5; stroke-linecap: square"/>
    </g>
    <g id="text_16">
     <!-- Basic -->
     <g transform="translate(213.234247 71.409178) scale(0.1 -0.1)">
      <defs>
       <path id="CMSS17-42" d="M 570 4416 
L 570 0 
L 2163 0 
C 3034 0 3667 574 3667 1200 
C 3667 1685 3251 2176 2502 2317 
C 3334 2558 3501 3040 3501 3313 
C 3501 3883 2874 4416 1997 4416 
L 570 4416 
z
M 1088 2496 
L 1088 4059 
L 1824 4059 
C 2483 4059 3002 3724 3002 3306 
C 3002 2926 2592 2496 1766 2496 
L 1088 2496 
z
M 1088 357 
L 1088 2107 
L 1939 2107 
C 2630 2107 3162 1679 3162 1206 
C 3162 772 2694 357 1984 357 
L 1088 357 
z
" transform="scale(0.015625)"/>
       <path id="CMSS17-73" d="M 2061 2627 
C 1683 2807 1389 2807 1197 2807 
C 742 2807 198 2648 198 2003 
C 198 1359 902 1218 1094 1179 
C 1389 1122 1715 1058 1715 740 
C 1715 337 1254 337 1171 337 
C 915 337 563 407 243 638 
L 166 210 
C 531 0 883 -64 1178 -64 
C 1965 -64 2163 416 2163 781 
C 2163 1094 1984 1305 1862 1401 
C 1651 1568 1574 1587 1050 1696 
C 960 1709 646 1779 646 2066 
C 646 2432 1050 2432 1139 2432 
C 1555 2432 1811 2303 1984 2208 
L 2061 2627 
z
" transform="scale(0.015625)"/>
      </defs>
      <use xlink:href="#CMSS17-42" transform="scale(0.996264)"/>
      <use xlink:href="#CMSS17-61" transform="translate(62.33804 0) scale(0.996264)"/>
      <use xlink:href="#CMSS17-73" transform="translate(107.259961 0) scale(0.996264)"/>
      <use xlink:href="#CMSS17-69" transform="translate(143.173503 0) scale(0.996264)"/>
      <use xlink:href="#CMSS17-63" transform="translate(165.354226 0) scale(0.996264)"/>
     </g>
    </g>
    <g id="line2d_19">
     <path d="M 185.234247 81.846357 
L 195.234247 81.846357 
L 205.234247 81.846357 
" style="fill: none; stroke: #2ca02c; stroke-width: 1.5; stroke-linecap: square"/>
    </g>
    <g id="text_17">
     <!-- Buffer $pH=6.86$ -->
     <g transform="translate(213.234247 85.346357) scale(0.1 -0.1)">
      <defs>
       <path id="CMSS17-75" d="M 2618 2739 
L 2131 2739 
L 2131 972 
C 2131 498 1786 306 1421 306 
C 998 306 960 447 960 709 
L 960 2739 
L 474 2739 
L 474 678 
C 474 179 646 -64 1088 -64 
C 1306 -64 1798 -13 2144 306 
L 2144 0 
L 2618 0 
L 2618 2739 
z
" transform="scale(0.015625)"/>
       <path id="CMSS17-b" d="M 1075 2368 
L 1734 2368 
L 1734 2737 
L 1062 2737 
L 1062 3559 
C 1062 4001 1395 4092 1613 4092 
C 1837 4092 2022 4034 2093 4009 
L 2093 4429 
C 2022 4442 1830 4480 1619 4480 
C 1030 4480 602 3999 602 3359 
L 602 2737 
L 160 2737 
L 160 2368 
L 602 2368 
L 602 0 
L 1075 0 
L 1075 2368 
z
M 2739 2368 
L 3398 2368 
L 3398 2737 
L 2726 2737 
L 2726 3559 
C 2726 4001 3059 4092 3277 4092 
C 3501 4092 3686 4034 3757 4009 
L 3757 4429 
C 3686 4442 3494 4480 3283 4480 
C 2694 4480 2266 4001 2266 3363 
L 2266 0 
L 2739 0 
L 2739 2368 
z
" transform="scale(0.015625)"/>
       <path id="CMSS17-72" d="M 954 1363 
C 954 1965 1395 2368 1958 2368 
L 1958 2789 
C 1549 2789 1165 2585 934 2253 
L 934 2758 
L 480 2758 
L 480 0 
L 954 0 
L 954 1363 
z
" transform="scale(0.015625)"/>
       <path id="CMMI12-70" d="M 275 -789 
C 230 -980 205 -1031 -58 -1031 
C -134 -1031 -198 -1031 -198 -1152 
C -198 -1165 -192 -1216 -122 -1216 
C -38 -1216 51 -1216 134 -1216 
L 410 -1216 
C 544 -1216 870 -1216 1005 -1216 
C 1043 -1216 1120 -1216 1120 -1101 
C 1120 -1031 1075 -1031 966 -1031 
C 672 -1031 653 -987 653 -937 
C 653 -861 941 219 979 364 
C 1050 185 1222 -64 1555 -64 
C 2278 -64 3059 875 3059 1814 
C 3059 2401 2726 2816 2246 2816 
C 1837 2816 1491 2420 1421 2331 
C 1370 2650 1120 2816 864 2816 
C 678 2816 531 2727 410 2484 
C 294 2254 205 1865 205 1839 
C 205 1814 230 1782 275 1782 
C 326 1782 333 1788 371 1935 
C 467 2312 589 2689 845 2689 
C 992 2689 1043 2587 1043 2397 
C 1043 2245 1024 2181 998 2067 
L 275 -789 
z
M 1382 1993 
C 1427 2171 1606 2357 1709 2446 
C 1779 2510 1990 2689 2234 2689 
C 2515 2689 2643 2408 2643 2076 
C 2643 1769 2464 1047 2304 715 
C 2144 370 1850 64 1555 64 
C 1120 64 1050 613 1050 639 
C 1050 658 1062 709 1069 741 
L 1382 1993 
z
" transform="scale(0.015625)"/>
       <path id="CMMI12-48" d="M 4787 3887 
C 4845 4103 4858 4167 5312 4167 
C 5427 4167 5491 4167 5491 4282 
C 5491 4352 5434 4352 5395 4352 
C 5280 4352 5146 4352 5024 4352 
L 4269 4352 
C 4147 4352 4013 4352 3891 4352 
C 3846 4352 3770 4352 3770 4231 
C 3770 4167 3814 4167 3936 4167 
C 4320 4167 4320 4116 4320 4046 
C 4320 4034 4320 3995 4294 3900 
L 3904 2361 
L 1971 2361 
L 2355 3887 
C 2413 4103 2426 4167 2880 4167 
C 2995 4167 3059 4167 3059 4282 
C 3059 4352 3002 4352 2963 4352 
C 2848 4352 2714 4352 2592 4352 
L 1837 4352 
C 1715 4352 1581 4352 1459 4352 
C 1414 4352 1338 4352 1338 4231 
C 1338 4167 1382 4167 1504 4167 
C 1888 4167 1888 4116 1888 4046 
C 1888 4034 1888 3995 1862 3899 
L 998 472 
C 941 249 928 185 486 185 
C 339 185 294 185 294 64 
C 294 0 365 0 384 0 
C 499 0 634 0 755 0 
L 1510 0 
C 1632 0 1766 0 1888 0 
C 1939 0 2010 0 2010 121 
C 2010 185 1952 185 1856 185 
C 1466 185 1466 236 1466 300 
C 1466 307 1466 351 1478 402 
L 1920 2176 
L 3859 2176 
C 3750 1753 3424 416 3411 376 
C 3341 185 3238 185 2861 185 
C 2784 185 2726 185 2726 64 
C 2726 0 2797 0 2816 0 
C 2931 0 3066 0 3187 0 
L 3942 0 
C 4064 0 4198 0 4320 0 
C 4371 0 4442 0 4442 121 
C 4442 185 4384 185 4288 185 
C 3898 185 3898 236 3898 300 
C 3898 307 3898 351 3910 402 
L 4787 3887 
z
" transform="scale(0.015625)"/>
       <path id="CMR17-3d" d="M 4115 2017 
C 4211 2017 4307 2017 4307 2125 
C 4307 2240 4198 2240 4090 2240 
L 512 2240 
C 403 2240 294 2240 294 2125 
C 294 2017 390 2017 486 2017 
L 4115 2017 
z
M 4090 896 
C 4198 896 4307 896 4307 1011 
C 4307 1119 4211 1119 4115 1119 
L 486 1119 
C 390 1119 294 1119 294 1011 
C 294 896 403 896 512 896 
L 4090 896 
z
" transform="scale(0.015625)"/>
      </defs>
      <use xlink:href="#CMSS17-42" transform="scale(0.996264)"/>
      <use xlink:href="#CMSS17-75" transform="translate(62.33804 0) scale(0.996264)"/>
      <use xlink:href="#CMSS17-b" transform="translate(110.542983 0) scale(0.996264)"/>
      <use xlink:href="#CMSS17-65" transform="translate(165.193953 0) scale(0.996264)"/>
      <use xlink:href="#CMSS17-72" transform="translate(206.832776 0) scale(0.996264)"/>
      <use xlink:href="#CMMI12-70" transform="translate(269.971661 0) scale(0.996264)"/>
      <use xlink:href="#CMMI12-48" transform="translate(318.931175 0) scale(0.996264)"/>
      <use xlink:href="#CMR17-3d" transform="translate(435.126956 0) scale(0.996264)"/>
      <use xlink:href="#CMR17-36" transform="translate(534.515753 0) scale(0.996264)"/>
      <use xlink:href="#CMMI12-3a" transform="translate(580.20623 0) scale(0.996264)"/>
      <use xlink:href="#CMR17-38" transform="translate(607.303408 0) scale(0.996264)"/>
      <use xlink:href="#CMR17-36" transform="translate(652.993885 0) scale(0.996264)"/>
     </g>
    </g>
    <g id="line2d_20">
     <path d="M 185.234247 95.783535 
L 195.234247 95.783535 
L 205.234247 95.783535 
" style="fill: none; stroke: #d62728; stroke-width: 1.5; stroke-linecap: square"/>
    </g>
    <g id="text_18">
     <!-- Buffer $pH=7.3$ -->
     <g transform="translate(213.234247 99.283535) scale(0.1 -0.1)">
      <use xlink:href="#CMSS17-42" transform="scale(0.996264)"/>
      <use xlink:href="#CMSS17-75" transform="translate(62.33804 0) scale(0.996264)"/>
      <use xlink:href="#CMSS17-b" transform="translate(110.542983 0) scale(0.996264)"/>
      <use xlink:href="#CMSS17-65" transform="translate(165.193953 0) scale(0.996264)"/>
      <use xlink:href="#CMSS17-72" transform="translate(206.832776 0) scale(0.996264)"/>
      <use xlink:href="#CMMI12-70" transform="translate(269.971661 0) scale(0.996264)"/>
      <use xlink:href="#CMMI12-48" transform="translate(318.931175 0) scale(0.996264)"/>
      <use xlink:href="#CMR17-3d" transform="translate(435.126956 0) scale(0.996264)"/>
      <use xlink:href="#CMR17-37" transform="translate(534.515753 0) scale(0.996264)"/>
      <use xlink:href="#CMMI12-3a" transform="translate(580.20623 0) scale(0.996264)"/>
      <use xlink:href="#CMR17-33" transform="translate(607.303408 0) scale(0.996264)"/>
     </g>
    </g>
   </g>
  </g>
 </g>
 <defs>
  <clipPath id="p55aa918598">
   <rect x="57.6" y="41.472" width="357.12" height="266.112"/>
  </clipPath>
 </defs>
</svg>
