<?xml version="1.0" encoding="utf-8" standalone="no"?>
<!DOCTYPE svg PUBLIC "-//W3C//DTD SVG 1.1//EN"
  "http://www.w3.org/Graphics/SVG/1.1/DTD/svg11.dtd">
<svg xmlns:xlink="http://www.w3.org/1999/xlink" width="460.8pt" height="345.6pt" viewBox="0 0 460.8 345.6" xmlns="http://www.w3.org/2000/svg" version="1.1">
 <metadata>
  <rdf:RDF xmlns:dc="http://purl.org/dc/elements/1.1/" xmlns:cc="http://creativecommons.org/ns#" xmlns:rdf="http://www.w3.org/1999/02/22-rdf-syntax-ns#">
   <cc:Work>
    <dc:type rdf:resource="http://purl.org/dc/dcmitype/StillImage"/>
    <dc:date>2024-10-06T14:18:36.537598</dc:date>
    <dc:format>image/svg+xml</dc:format>
    <dc:creator>
     <cc:Agent>
      <dc:title>Matplotlib v3.9.2, https://matplotlib.org/</dc:title>
     </cc:Agent>
    </dc:creator>
   </cc:Work>
  </rdf:RDF>
 </metadata>
 <defs>
  <style type="text/css">*{stroke-linejoin: round; stroke-linecap: butt}</style>
 </defs>
 <g id="figure_1">
  <g id="patch_1">
   <path d="M 0 345.6 
L 460.8 345.6 
L 460.8 0 
L 0 0 
z
" style="fill: #ffffff"/>
  </g>
  <g id="axes_1">
   <g id="patch_2">
    <path d="M 57.6 307.584 
L 414.72 307.584 
L 414.72 41.472 
L 57.6 41.472 
z
" style="fill: #eaeaf2"/>
   </g>
   <g id="matplotlib.axis_1">
    <g id="xtick_1">
     <g id="line2d_1">
      <path d="M 88.076084 307.584 
L 88.076084 41.472 
" clip-path="url(#paf1a45da72)" style="fill: none; stroke: #ffffff; stroke-width: 0.8; stroke-linecap: round"/>
     </g>
     <g id="text_1">
      <!-- $\mathdefault{16000}$ -->
      <g style="fill: #262626" transform="translate(75.622746 321.502498) scale(0.1 -0.1)">
       <defs>
        <path id="CMR17-31" d="M 1702 4058 
C 1702 4192 1696 4192 1606 4192 
C 1357 3916 979 3827 621 3827 
C 602 3827 570 3827 563 3808 
C 557 3795 557 3782 557 3648 
C 755 3648 1088 3686 1344 3839 
L 1344 461 
C 1344 236 1331 160 781 160 
L 589 160 
L 589 0 
C 896 0 1216 0 1523 0 
C 1830 0 2150 0 2458 0 
L 2458 160 
L 2266 160 
C 1715 160 1702 230 1702 458 
L 1702 4058 
z
" transform="scale(0.015625)"/>
        <path id="CMR17-36" d="M 678 2176 
C 678 3690 1395 4032 1811 4032 
C 1946 4032 2272 4009 2400 3776 
C 2298 3776 2106 3776 2106 3553 
C 2106 3381 2246 3323 2336 3323 
C 2394 3323 2566 3348 2566 3560 
C 2566 3954 2246 4179 1805 4179 
C 1043 4179 243 3390 243 1984 
C 243 253 966 -128 1478 -128 
C 2099 -128 2688 427 2688 1283 
C 2688 2081 2170 2662 1517 2662 
C 1126 2662 838 2407 678 1960 
L 678 2176 
z
M 1478 25 
C 691 25 691 1200 691 1436 
C 691 1896 909 2560 1504 2560 
C 1613 2560 1926 2560 2138 2120 
C 2253 1870 2253 1609 2253 1289 
C 2253 944 2253 690 2118 434 
C 1978 171 1773 25 1478 25 
z
" transform="scale(0.015625)"/>
        <path id="CMR17-30" d="M 2688 2025 
C 2688 2416 2682 3080 2413 3591 
C 2176 4039 1798 4198 1466 4198 
C 1158 4198 768 4058 525 3597 
C 269 3118 243 2524 243 2025 
C 243 1661 250 1106 448 619 
C 723 -39 1216 -128 1466 -128 
C 1760 -128 2208 -7 2470 600 
C 2662 1042 2688 1559 2688 2025 
z
M 1466 -26 
C 1056 -26 813 325 723 812 
C 653 1188 653 1738 653 2096 
C 653 2588 653 2997 736 3387 
C 858 3929 1216 4096 1466 4096 
C 1728 4096 2067 3923 2189 3400 
C 2272 3036 2278 2607 2278 2096 
C 2278 1680 2278 1169 2202 792 
C 2067 95 1690 -26 1466 -26 
z
" transform="scale(0.015625)"/>
       </defs>
       <use xlink:href="#CMR17-31" transform="scale(0.996264)"/>
       <use xlink:href="#CMR17-36" transform="translate(45.690477 0) scale(0.996264)"/>
       <use xlink:href="#CMR17-30" transform="translate(91.380954 0) scale(0.996264)"/>
       <use xlink:href="#CMR17-30" transform="translate(137.071431 0) scale(0.996264)"/>
       <use xlink:href="#CMR17-30" transform="translate(182.761908 0) scale(0.996264)"/>
      </g>
     </g>
    </g>
    <g id="xtick_2">
     <g id="line2d_2">
      <path d="M 134.365472 307.584 
L 134.365472 41.472 
" clip-path="url(#paf1a45da72)" style="fill: none; stroke: #ffffff; stroke-width: 0.8; stroke-linecap: round"/>
     </g>
     <g id="text_2">
      <!-- $\mathdefault{18000}$ -->
      <g style="fill: #262626" transform="translate(121.912134 321.502498) scale(0.1 -0.1)">
       <defs>
        <path id="CMR17-38" d="M 1741 2264 
C 2144 2467 2554 2773 2554 3263 
C 2554 3841 1990 4179 1472 4179 
C 890 4179 378 3759 378 3180 
C 378 3021 416 2747 666 2505 
C 730 2442 998 2251 1171 2130 
C 883 1983 211 1634 211 934 
C 211 279 838 -128 1459 -128 
C 2144 -128 2720 362 2720 1010 
C 2720 1590 2330 1857 2074 2029 
L 1741 2264 
z
M 902 2822 
C 851 2854 595 3051 595 3351 
C 595 3739 998 4032 1459 4032 
C 1965 4032 2336 3676 2336 3262 
C 2336 2669 1670 2331 1638 2331 
C 1632 2331 1626 2331 1574 2370 
L 902 2822 
z
M 2080 1519 
C 2176 1449 2483 1240 2483 851 
C 2483 381 2010 25 1472 25 
C 890 25 448 438 448 940 
C 448 1443 838 1862 1280 2060 
L 2080 1519 
z
" transform="scale(0.015625)"/>
       </defs>
       <use xlink:href="#CMR17-31" transform="scale(0.996264)"/>
       <use xlink:href="#CMR17-38" transform="translate(45.690477 0) scale(0.996264)"/>
       <use xlink:href="#CMR17-30" transform="translate(91.380954 0) scale(0.996264)"/>
       <use xlink:href="#CMR17-30" transform="translate(137.071431 0) scale(0.996264)"/>
       <use xlink:href="#CMR17-30" transform="translate(182.761908 0) scale(0.996264)"/>
      </g>
     </g>
    </g>
    <g id="xtick_3">
     <g id="line2d_3">
      <path d="M 180.65486 307.584 
L 180.65486 41.472 
" clip-path="url(#paf1a45da72)" style="fill: none; stroke: #ffffff; stroke-width: 0.8; stroke-linecap: round"/>
     </g>
     <g id="text_3">
      <!-- $\mathdefault{20000}$ -->
      <g style="fill: #262626" transform="translate(168.201521 321.502498) scale(0.1 -0.1)">
       <defs>
        <path id="CMR17-32" d="M 2669 989 
L 2554 989 
C 2490 536 2438 459 2413 420 
C 2381 369 1920 369 1830 369 
L 602 369 
C 832 619 1280 1072 1824 1597 
C 2214 1967 2669 2402 2669 3035 
C 2669 3790 2067 4224 1395 4224 
C 691 4224 262 3604 262 3030 
C 262 2780 448 2748 525 2748 
C 589 2748 781 2787 781 3010 
C 781 3207 614 3264 525 3264 
C 486 3264 448 3258 422 3245 
C 544 3790 915 4058 1306 4058 
C 1862 4058 2227 3617 2227 3035 
C 2227 2479 1901 2000 1536 1584 
L 262 146 
L 262 0 
L 2515 0 
L 2669 989 
z
" transform="scale(0.015625)"/>
       </defs>
       <use xlink:href="#CMR17-32" transform="scale(0.996264)"/>
       <use xlink:href="#CMR17-30" transform="translate(45.690477 0) scale(0.996264)"/>
       <use xlink:href="#CMR17-30" transform="translate(91.380954 0) scale(0.996264)"/>
       <use xlink:href="#CMR17-30" transform="translate(137.071431 0) scale(0.996264)"/>
       <use xlink:href="#CMR17-30" transform="translate(182.761908 0) scale(0.996264)"/>
      </g>
     </g>
    </g>
    <g id="xtick_4">
     <g id="line2d_4">
      <path d="M 226.944247 307.584 
L 226.944247 41.472 
" clip-path="url(#paf1a45da72)" style="fill: none; stroke: #ffffff; stroke-width: 0.8; stroke-linecap: round"/>
     </g>
     <g id="text_4">
      <!-- $\mathdefault{22000}$ -->
      <g style="fill: #262626" transform="translate(214.490909 321.502498) scale(0.1 -0.1)">
       <use xlink:href="#CMR17-32" transform="scale(0.996264)"/>
       <use xlink:href="#CMR17-32" transform="translate(45.690477 0) scale(0.996264)"/>
       <use xlink:href="#CMR17-30" transform="translate(91.380954 0) scale(0.996264)"/>
       <use xlink:href="#CMR17-30" transform="translate(137.071431 0) scale(0.996264)"/>
       <use xlink:href="#CMR17-30" transform="translate(182.761908 0) scale(0.996264)"/>
      </g>
     </g>
    </g>
    <g id="xtick_5">
     <g id="line2d_5">
      <path d="M 273.233635 307.584 
L 273.233635 41.472 
" clip-path="url(#paf1a45da72)" style="fill: none; stroke: #ffffff; stroke-width: 0.8; stroke-linecap: round"/>
     </g>
     <g id="text_5">
      <!-- $\mathdefault{24000}$ -->
      <g style="fill: #262626" transform="translate(260.780297 321.502498) scale(0.1 -0.1)">
       <defs>
        <path id="CMR17-34" d="M 2150 4122 
C 2150 4256 2144 4256 2029 4256 
L 128 1254 
L 128 1088 
L 1779 1088 
L 1779 457 
C 1779 224 1766 160 1318 160 
L 1197 160 
L 1197 0 
C 1402 0 1747 0 1965 0 
C 2182 0 2528 0 2733 0 
L 2733 160 
L 2611 160 
C 2163 160 2150 224 2150 457 
L 2150 1088 
L 2803 1088 
L 2803 1254 
L 2150 1254 
L 2150 4122 
z
M 1798 3703 
L 1798 1254 
L 256 1254 
L 1798 3703 
z
" transform="scale(0.015625)"/>
       </defs>
       <use xlink:href="#CMR17-32" transform="scale(0.996264)"/>
       <use xlink:href="#CMR17-34" transform="translate(45.690477 0) scale(0.996264)"/>
       <use xlink:href="#CMR17-30" transform="translate(91.380954 0) scale(0.996264)"/>
       <use xlink:href="#CMR17-30" transform="translate(137.071431 0) scale(0.996264)"/>
       <use xlink:href="#CMR17-30" transform="translate(182.761908 0) scale(0.996264)"/>
      </g>
     </g>
    </g>
    <g id="xtick_6">
     <g id="line2d_6">
      <path d="M 319.523023 307.584 
L 319.523023 41.472 
" clip-path="url(#paf1a45da72)" style="fill: none; stroke: #ffffff; stroke-width: 0.8; stroke-linecap: round"/>
     </g>
     <g id="text_6">
      <!-- $\mathdefault{26000}$ -->
      <g style="fill: #262626" transform="translate(307.069685 321.502498) scale(0.1 -0.1)">
       <use xlink:href="#CMR17-32" transform="scale(0.996264)"/>
       <use xlink:href="#CMR17-36" transform="translate(45.690477 0) scale(0.996264)"/>
       <use xlink:href="#CMR17-30" transform="translate(91.380954 0) scale(0.996264)"/>
       <use xlink:href="#CMR17-30" transform="translate(137.071431 0) scale(0.996264)"/>
       <use xlink:href="#CMR17-30" transform="translate(182.761908 0) scale(0.996264)"/>
      </g>
     </g>
    </g>
    <g id="xtick_7">
     <g id="line2d_7">
      <path d="M 365.812411 307.584 
L 365.812411 41.472 
" clip-path="url(#paf1a45da72)" style="fill: none; stroke: #ffffff; stroke-width: 0.8; stroke-linecap: round"/>
     </g>
     <g id="text_7">
      <!-- $\mathdefault{28000}$ -->
      <g style="fill: #262626" transform="translate(353.359073 321.502498) scale(0.1 -0.1)">
       <use xlink:href="#CMR17-32" transform="scale(0.996264)"/>
       <use xlink:href="#CMR17-38" transform="translate(45.690477 0) scale(0.996264)"/>
       <use xlink:href="#CMR17-30" transform="translate(91.380954 0) scale(0.996264)"/>
       <use xlink:href="#CMR17-30" transform="translate(137.071431 0) scale(0.996264)"/>
       <use xlink:href="#CMR17-30" transform="translate(182.761908 0) scale(0.996264)"/>
      </g>
     </g>
    </g>
    <g id="xtick_8">
     <g id="line2d_8">
      <path d="M 412.101799 307.584 
L 412.101799 41.472 
" clip-path="url(#paf1a45da72)" style="fill: none; stroke: #ffffff; stroke-width: 0.8; stroke-linecap: round"/>
     </g>
     <g id="text_8">
      <!-- $\mathdefault{30000}$ -->
      <g style="fill: #262626" transform="translate(399.64846 321.502498) scale(0.1 -0.1)">
       <defs>
        <path id="CMR17-33" d="M 1414 2157 
C 1984 2157 2234 1662 2234 1090 
C 2234 320 1824 25 1453 25 
C 1114 25 563 194 390 693 
C 422 680 454 680 486 680 
C 640 680 755 782 755 948 
C 755 1133 614 1216 486 1216 
C 378 1216 211 1165 211 926 
C 211 335 787 -128 1466 -128 
C 2176 -128 2720 430 2720 1085 
C 2720 1707 2208 2157 1600 2227 
C 2086 2328 2554 2756 2554 3329 
C 2554 3820 2048 4179 1472 4179 
C 890 4179 378 3829 378 3329 
C 378 3110 544 3072 627 3072 
C 762 3072 877 3155 877 3321 
C 877 3486 762 3569 627 3569 
C 602 3569 570 3569 544 3557 
C 730 3959 1235 4032 1459 4032 
C 1683 4032 2106 3925 2106 3320 
C 2106 3143 2080 2828 1862 2550 
C 1670 2304 1453 2304 1242 2284 
C 1210 2284 1062 2269 1037 2269 
C 992 2263 966 2257 966 2208 
C 966 2163 973 2157 1101 2157 
L 1414 2157 
z
" transform="scale(0.015625)"/>
       </defs>
       <use xlink:href="#CMR17-33" transform="scale(0.996264)"/>
       <use xlink:href="#CMR17-30" transform="translate(45.690477 0) scale(0.996264)"/>
       <use xlink:href="#CMR17-30" transform="translate(91.380954 0) scale(0.996264)"/>
       <use xlink:href="#CMR17-30" transform="translate(137.071431 0) scale(0.996264)"/>
       <use xlink:href="#CMR17-30" transform="translate(182.761908 0) scale(0.996264)"/>
      </g>
     </g>
    </g>
    <g id="text_9">
     <!-- Wavenumber, $cm^{-1}$ -->
     <g style="fill: #262626" transform="translate(194.283947 334.857447) scale(0.1 -0.1)">
      <defs>
       <path id="CMSS17-57" d="M 5581 4416 
L 5094 4416 
L 4557 2437 
C 4474 2118 4397 1801 4320 1482 
C 4205 1011 4122 681 4109 515 
L 4102 515 
C 4090 687 4006 1049 3904 1457 
C 3827 1795 3744 2131 3654 2462 
L 3123 4416 
L 2586 4416 
L 2080 2562 
L 1824 1549 
C 1632 747 1626 632 1613 505 
L 1606 505 
C 1606 543 1581 753 1402 1498 
C 1312 1868 1222 2244 1126 2601 
L 634 4416 
L 83 4416 
L 1299 0 
L 1830 0 
L 2336 1839 
L 2592 2851 
C 2765 3564 2803 3742 2816 3901 
L 2822 3901 
C 2822 3876 2880 3474 3130 2545 
L 3808 0 
L 4365 0 
L 5581 4416 
z
" transform="scale(0.015625)"/>
       <path id="CMSS17-61" d="M 2406 1791 
C 2406 2392 1978 2808 1402 2808 
C 1120 2808 813 2757 461 2553 
L 499 2135 
C 659 2248 934 2432 1395 2432 
C 1722 2432 1920 2180 1920 1782 
L 1920 1536 
C 896 1536 256 1238 256 726 
C 256 461 416 -64 947 -64 
C 1043 -64 1562 -64 1933 217 
L 1933 -19 
L 2406 -19 
L 2406 1791 
z
M 1920 816 
C 1920 701 1920 548 1728 434 
C 1562 325 1350 325 1261 325 
C 941 325 723 511 723 744 
C 723 1211 1722 1211 1920 1211 
L 1920 816 
z
" transform="scale(0.015625)"/>
       <path id="CMSS17-76" d="M 2675 2752 
L 2176 2752 
L 1747 1556 
C 1613 1165 1421 627 1389 352 
L 1382 352 
C 1370 468 1318 634 1286 749 
C 1248 890 1197 1056 1158 1172 
L 595 2752 
L 83 2752 
L 1094 0 
L 1664 0 
L 2675 2752 
z
" transform="scale(0.015625)"/>
       <path id="CMSS17-65" d="M 2502 1377 
C 2502 1590 2490 2003 2285 2345 
C 2061 2713 1696 2816 1421 2816 
C 755 2816 192 2188 192 1375 
C 192 582 774 -64 1510 -64 
C 1798 -64 2150 19 2470 248 
C 2470 274 2458 414 2451 420 
C 2451 433 2432 630 2432 656 
C 2125 407 1773 325 1517 325 
C 1107 325 666 667 646 1377 
L 2502 1377 
z
M 698 1728 
C 781 2084 1062 2421 1421 2421 
C 1517 2421 1965 2421 2080 1728 
L 698 1728 
z
" transform="scale(0.015625)"/>
       <path id="CMSS17-6e" d="M 2618 1877 
C 2618 2283 2522 2816 1798 2816 
C 1389 2816 1120 2606 941 2389 
L 941 2758 
L 474 2758 
L 474 0 
L 960 0 
L 960 1559 
C 960 1964 1114 2428 1549 2428 
C 2112 2428 2131 2048 2131 1829 
L 2131 0 
L 2618 0 
L 2618 1877 
z
" transform="scale(0.015625)"/>
       <path id="CMSS17-75" d="M 2618 2739 
L 2131 2739 
L 2131 972 
C 2131 498 1786 306 1421 306 
C 998 306 960 447 960 709 
L 960 2739 
L 474 2739 
L 474 678 
C 474 179 646 -64 1088 -64 
C 1306 -64 1798 -13 2144 306 
L 2144 0 
L 2618 0 
L 2618 2739 
z
" transform="scale(0.015625)"/>
       <path id="CMSS17-6d" d="M 4288 1877 
C 4288 2308 4179 2816 3462 2816 
C 2982 2816 2694 2516 2566 2331 
C 2451 2670 2182 2816 1798 2816 
C 1363 2816 1088 2568 941 2389 
L 941 2758 
L 474 2758 
L 474 0 
L 960 0 
L 960 1559 
C 960 1939 1101 2428 1555 2428 
C 2138 2428 2138 2016 2138 1829 
L 2138 0 
L 2624 0 
L 2624 1559 
C 2624 1939 2765 2428 3219 2428 
C 3802 2428 3802 2016 3802 1829 
L 3802 0 
L 4288 0 
L 4288 1877 
z
" transform="scale(0.015625)"/>
       <path id="CMSS17-62" d="M 954 4416 
L 480 4416 
L 480 -13 
L 966 -13 
L 966 274 
C 1210 38 1504 -64 1766 -64 
C 2381 -64 2880 549 2880 1352 
C 2880 2086 2496 2756 1926 2756 
C 1523 2756 1165 2591 954 2419 
L 954 4416 
z
M 966 2046 
C 1107 2222 1306 2368 1587 2368 
C 1965 2368 2394 2097 2394 1352 
C 2394 558 1882 325 1530 325 
C 1402 325 1267 356 1139 464 
C 966 615 966 709 966 797 
L 966 2046 
z
" transform="scale(0.015625)"/>
       <path id="CMSS17-72" d="M 954 1363 
C 954 1965 1395 2368 1958 2368 
L 1958 2789 
C 1549 2789 1165 2585 934 2253 
L 934 2758 
L 480 2758 
L 480 0 
L 954 0 
L 954 1363 
z
" transform="scale(0.015625)"/>
       <path id="CMSS17-2c" d="M 1088 6 
L 1088 510 
L 576 510 
L 576 0 
L 736 0 
L 570 -800 
L 826 -800 
L 1088 6 
z
" transform="scale(0.015625)"/>
       <path id="CMMI12-63" d="M 2502 2431 
C 2381 2431 2323 2431 2234 2355 
C 2195 2323 2125 2227 2125 2125 
C 2125 1997 2221 1920 2342 1920 
C 2496 1920 2669 2044 2669 2292 
C 2669 2588 2374 2816 1933 2816 
C 1094 2816 256 1903 256 996 
C 256 441 602 -64 1254 -64 
C 2125 -64 2675 622 2675 706 
C 2675 744 2637 776 2611 776 
C 2592 776 2586 770 2528 713 
C 2118 162 1510 64 1267 64 
C 826 64 685 446 685 764 
C 685 988 794 1605 1024 2039 
C 1190 2338 1536 2682 1939 2682 
C 2022 2682 2374 2682 2502 2431 
z
" transform="scale(0.015625)"/>
       <path id="CMMI12-6d" d="M 1318 1871 
C 1331 1910 1491 2229 1728 2433 
C 1894 2586 2112 2689 2362 2689 
C 2618 2689 2707 2497 2707 2242 
C 2707 2203 2707 2076 2630 1775 
L 2470 1118 
C 2419 926 2298 453 2285 383 
C 2259 287 2221 121 2221 96 
C 2221 6 2291 -64 2387 -64 
C 2579 -64 2611 83 2669 313 
L 3053 1839 
C 3066 1890 3398 2689 4102 2689 
C 4358 2689 4448 2497 4448 2242 
C 4448 1884 4198 1188 4058 805 
C 4000 651 3968 568 3968 453 
C 3968 166 4166 -64 4474 -64 
C 5069 -64 5293 875 5293 913 
C 5293 945 5267 971 5229 971 
C 5171 971 5165 952 5133 843 
C 4986 332 4749 64 4493 64 
C 4429 64 4326 64 4326 269 
C 4326 436 4403 640 4429 710 
C 4544 1018 4832 1773 4832 2145 
C 4832 2528 4608 2816 4122 2816 
C 3693 2816 3347 2574 3091 2197 
C 3072 2542 2861 2816 2381 2816 
C 1811 2816 1510 2415 1395 2255 
C 1376 2618 1114 2816 832 2816 
C 646 2816 499 2727 378 2484 
C 262 2254 173 1865 173 1839 
C 173 1814 198 1782 243 1782 
C 294 1782 301 1788 339 1935 
C 435 2312 557 2689 813 2689 
C 960 2689 1011 2586 1011 2395 
C 1011 2254 947 2005 902 1807 
L 723 1118 
C 698 996 627 709 595 594 
C 550 428 480 128 480 96 
C 480 6 550 -64 646 -64 
C 723 -64 813 -26 864 70 
C 877 102 934 326 966 453 
L 1107 1028 
L 1318 1871 
z
" transform="scale(0.015625)"/>
       <path id="CMSY10-0" d="M 4218 1472 
C 4326 1472 4442 1472 4442 1600 
C 4442 1728 4326 1728 4218 1728 
L 755 1728 
C 646 1728 531 1728 531 1600 
C 531 1472 646 1472 755 1472 
L 4218 1472 
z
" transform="scale(0.015625)"/>
      </defs>
      <use xlink:href="#CMSS17-57" transform="scale(0.996264)"/>
      <use xlink:href="#CMSS17-61" transform="translate(85.639712 0) scale(0.996264)"/>
      <use xlink:href="#CMSS17-76" transform="translate(130.561633 0) scale(0.996264)"/>
      <use xlink:href="#CMSS17-65" transform="translate(173.561775 0) scale(0.996264)"/>
      <use xlink:href="#CMSS17-6e" transform="translate(215.200597 0) scale(0.996264)"/>
      <use xlink:href="#CMSS17-75" transform="translate(263.40554 0) scale(0.996264)"/>
      <use xlink:href="#CMSS17-6d" transform="translate(311.610483 0) scale(0.996264)"/>
      <use xlink:href="#CMSS17-62" transform="translate(385.839737 0) scale(0.996264)"/>
      <use xlink:href="#CMSS17-65" transform="translate(436.647119 0) scale(0.996264)"/>
      <use xlink:href="#CMSS17-72" transform="translate(478.285941 0) scale(0.996264)"/>
      <use xlink:href="#CMSS17-2c" transform="translate(510.195714 0) scale(0.996264)"/>
      <use xlink:href="#CMMI12-63" transform="translate(567.449031 0) scale(0.996264)"/>
      <use xlink:href="#CMMI12-6d" transform="translate(609.432265 0) scale(0.996264)"/>
      <use xlink:href="#CMSY10-0" transform="translate(694.75949 36.153639) scale(0.697382)"/>
      <use xlink:href="#CMR17-31" transform="translate(749.000483 36.153639) scale(0.697382)"/>
     </g>
    </g>
   </g>
   <g id="matplotlib.axis_2">
    <g id="ytick_1">
     <g id="line2d_9">
      <path d="M 57.6 293.690372 
L 414.72 293.690372 
" clip-path="url(#paf1a45da72)" style="fill: none; stroke: #ffffff; stroke-width: 0.8; stroke-linecap: round"/>
     </g>
     <g id="text_10">
      <!-- $\mathdefault{0.0}$ -->
      <g style="fill: #262626" transform="translate(37.869921 297.149621) scale(0.1 -0.1)">
       <defs>
        <path id="CMMI12-3a" d="M 1178 307 
C 1178 492 1024 619 870 619 
C 685 619 557 466 557 313 
C 557 128 710 0 864 0 
C 1050 0 1178 153 1178 307 
z
" transform="scale(0.015625)"/>
       </defs>
       <use xlink:href="#CMR17-30" transform="scale(0.996264)"/>
       <use xlink:href="#CMMI12-3a" transform="translate(45.690477 0) scale(0.996264)"/>
       <use xlink:href="#CMR17-30" transform="translate(72.787654 0) scale(0.996264)"/>
      </g>
     </g>
    </g>
    <g id="ytick_2">
     <g id="line2d_10">
      <path d="M 57.6 245.667281 
L 414.72 245.667281 
" clip-path="url(#paf1a45da72)" style="fill: none; stroke: #ffffff; stroke-width: 0.8; stroke-linecap: round"/>
     </g>
     <g id="text_11">
      <!-- $\mathdefault{0.2}$ -->
      <g style="fill: #262626" transform="translate(37.869921 249.12653) scale(0.1 -0.1)">
       <use xlink:href="#CMR17-30" transform="scale(0.996264)"/>
       <use xlink:href="#CMMI12-3a" transform="translate(45.690477 0) scale(0.996264)"/>
       <use xlink:href="#CMR17-32" transform="translate(72.787654 0) scale(0.996264)"/>
      </g>
     </g>
    </g>
    <g id="ytick_3">
     <g id="line2d_11">
      <path d="M 57.6 197.64419 
L 414.72 197.64419 
" clip-path="url(#paf1a45da72)" style="fill: none; stroke: #ffffff; stroke-width: 0.8; stroke-linecap: round"/>
     </g>
     <g id="text_12">
      <!-- $\mathdefault{0.4}$ -->
      <g style="fill: #262626" transform="translate(37.869921 201.103439) scale(0.1 -0.1)">
       <use xlink:href="#CMR17-30" transform="scale(0.996264)"/>
       <use xlink:href="#CMMI12-3a" transform="translate(45.690477 0) scale(0.996264)"/>
       <use xlink:href="#CMR17-34" transform="translate(72.787654 0) scale(0.996264)"/>
      </g>
     </g>
    </g>
    <g id="ytick_4">
     <g id="line2d_12">
      <path d="M 57.6 149.621099 
L 414.72 149.621099 
" clip-path="url(#paf1a45da72)" style="fill: none; stroke: #ffffff; stroke-width: 0.8; stroke-linecap: round"/>
     </g>
     <g id="text_13">
      <!-- $\mathdefault{0.6}$ -->
      <g style="fill: #262626" transform="translate(37.869921 153.080348) scale(0.1 -0.1)">
       <use xlink:href="#CMR17-30" transform="scale(0.996264)"/>
       <use xlink:href="#CMMI12-3a" transform="translate(45.690477 0) scale(0.996264)"/>
       <use xlink:href="#CMR17-36" transform="translate(72.787654 0) scale(0.996264)"/>
      </g>
     </g>
    </g>
    <g id="ytick_5">
     <g id="line2d_13">
      <path d="M 57.6 101.598008 
L 414.72 101.598008 
" clip-path="url(#paf1a45da72)" style="fill: none; stroke: #ffffff; stroke-width: 0.8; stroke-linecap: round"/>
     </g>
     <g id="text_14">
      <!-- $\mathdefault{0.8}$ -->
      <g style="fill: #262626" transform="translate(37.869921 105.057257) scale(0.1 -0.1)">
       <use xlink:href="#CMR17-30" transform="scale(0.996264)"/>
       <use xlink:href="#CMMI12-3a" transform="translate(45.690477 0) scale(0.996264)"/>
       <use xlink:href="#CMR17-38" transform="translate(72.787654 0) scale(0.996264)"/>
      </g>
     </g>
    </g>
    <g id="ytick_6">
     <g id="line2d_14">
      <path d="M 57.6 53.574917 
L 414.72 53.574917 
" clip-path="url(#paf1a45da72)" style="fill: none; stroke: #ffffff; stroke-width: 0.8; stroke-linecap: round"/>
     </g>
     <g id="text_15">
      <!-- $\mathdefault{1.0}$ -->
      <g style="fill: #262626" transform="translate(37.869921 57.034166) scale(0.1 -0.1)">
       <use xlink:href="#CMR17-31" transform="scale(0.996264)"/>
       <use xlink:href="#CMMI12-3a" transform="translate(45.690477 0) scale(0.996264)"/>
       <use xlink:href="#CMR17-30" transform="translate(72.787654 0) scale(0.996264)"/>
      </g>
     </g>
    </g>
    <g id="text_16">
     <!-- Intensity, $a.u.$ -->
     <g style="fill: #262626" transform="translate(31.932743 203.009786) rotate(-90) scale(0.1 -0.1)">
      <defs>
       <path id="CMSS17-49" d="M 1094 4416 
L 557 4416 
L 557 0 
L 1094 0 
L 1094 4416 
z
" transform="scale(0.015625)"/>
       <path id="CMSS17-74" d="M 1069 2368 
L 1901 2368 
L 1901 2737 
L 1069 2737 
L 1069 3520 
L 614 3520 
L 614 2737 
L 109 2737 
L 109 2368 
L 602 2368 
L 602 749 
C 602 384 685 -64 1107 -64 
C 1427 -64 1722 25 2003 172 
L 1901 548 
C 1747 414 1562 337 1363 337 
C 1082 337 1069 696 1069 856 
L 1069 2368 
z
" transform="scale(0.015625)"/>
       <path id="CMSS17-73" d="M 2061 2627 
C 1683 2807 1389 2807 1197 2807 
C 742 2807 198 2648 198 2003 
C 198 1359 902 1218 1094 1179 
C 1389 1122 1715 1058 1715 740 
C 1715 337 1254 337 1171 337 
C 915 337 563 407 243 638 
L 166 210 
C 531 0 883 -64 1178 -64 
C 1965 -64 2163 416 2163 781 
C 2163 1094 1984 1305 1862 1401 
C 1651 1568 1574 1587 1050 1696 
C 960 1709 646 1779 646 2066 
C 646 2432 1050 2432 1139 2432 
C 1555 2432 1811 2303 1984 2208 
L 2061 2627 
z
" transform="scale(0.015625)"/>
       <path id="CMSS17-69" d="M 979 4183 
L 442 4183 
L 442 3648 
L 979 3648 
L 979 4183 
z
M 947 2739 
L 474 2739 
L 474 0 
L 947 0 
L 947 2739 
z
" transform="scale(0.015625)"/>
       <path id="CMSS17-79" d="M 2675 2752 
L 2176 2752 
C 1632 1294 1446 702 1434 383 
L 1427 383 
C 1408 696 1126 1460 902 2007 
L 602 2752 
L 83 2752 
L 1216 13 
C 1146 -178 1043 -465 1011 -529 
C 870 -885 774 -885 672 -885 
C 646 -885 442 -885 211 -809 
L 250 -1229 
C 410 -1261 570 -1280 685 -1280 
C 845 -1280 1165 -1280 1459 -497 
L 2675 2752 
z
" transform="scale(0.015625)"/>
       <path id="CMMI12-61" d="M 1926 760 
C 1894 651 1894 639 1805 517 
C 1664 338 1382 64 1082 64 
C 819 64 672 300 672 677 
C 672 1028 870 1743 992 2012 
C 1210 2459 1510 2689 1760 2689 
C 2182 2689 2266 2165 2266 2114 
C 2266 2108 2246 2024 2240 2012 
L 1926 760 
z
M 2336 2395 
C 2266 2561 2093 2816 1760 2816 
C 1037 2816 256 1884 256 939 
C 256 307 627 -64 1062 -64 
C 1414 -64 1715 211 1894 422 
C 1958 45 2259 -64 2451 -64 
C 2643 -64 2797 51 2912 281 
C 3014 498 3104 888 3104 913 
C 3104 945 3078 971 3040 971 
C 2982 971 2976 939 2950 843 
C 2854 466 2733 64 2470 64 
C 2285 64 2272 230 2272 358 
C 2272 505 2291 575 2349 824 
C 2394 984 2426 1124 2477 1309 
C 2714 2267 2771 2497 2771 2535 
C 2771 2625 2701 2695 2605 2695 
C 2400 2695 2349 2472 2336 2395 
z
" transform="scale(0.015625)"/>
       <path id="CMMI12-75" d="M 2182 370 
C 2266 13 2573 -64 2726 -64 
C 2931 -64 3085 70 3187 287 
C 3296 517 3379 894 3379 913 
C 3379 945 3354 971 3315 971 
C 3258 971 3251 939 3226 843 
C 3110 402 2995 64 2739 64 
C 2547 64 2547 275 2547 358 
C 2547 505 2566 568 2630 837 
C 2675 1009 2720 1181 2758 1360 
L 3021 2401 
C 3066 2561 3066 2574 3066 2593 
C 3066 2689 2989 2753 2893 2753 
C 2707 2753 2662 2593 2624 2433 
C 2560 2184 2214 811 2170 588 
C 2163 588 1914 64 1446 64 
C 1114 64 1050 351 1050 588 
C 1050 952 1229 1462 1395 1890 
C 1472 2095 1504 2178 1504 2305 
C 1504 2580 1306 2816 998 2816 
C 410 2816 173 1890 173 1839 
C 173 1814 198 1782 243 1782 
C 301 1782 307 1807 333 1896 
C 486 2441 736 2682 979 2682 
C 1043 2682 1146 2682 1146 2478 
C 1146 2312 1075 2127 979 1884 
C 698 1124 666 881 666 690 
C 666 38 1158 -64 1421 -64 
C 1830 -64 2054 217 2182 370 
z
" transform="scale(0.015625)"/>
      </defs>
      <use xlink:href="#CMSS17-49" transform="scale(0.996264)"/>
      <use xlink:href="#CMSS17-6e" transform="translate(25.783926 0) scale(0.996264)"/>
      <use xlink:href="#CMSS17-74" transform="translate(73.988869 0) scale(0.996264)"/>
      <use xlink:href="#CMSS17-65" transform="translate(107.820435 0) scale(0.996264)"/>
      <use xlink:href="#CMSS17-6e" transform="translate(149.459257 0) scale(0.996264)"/>
      <use xlink:href="#CMSS17-73" transform="translate(197.664201 0) scale(0.996264)"/>
      <use xlink:href="#CMSS17-69" transform="translate(233.577743 0) scale(0.996264)"/>
      <use xlink:href="#CMSS17-74" transform="translate(255.758466 0) scale(0.996264)"/>
      <use xlink:href="#CMSS17-79" transform="translate(286.987578 0) scale(0.996264)"/>
      <use xlink:href="#CMSS17-2c" transform="translate(322.180465 0) scale(0.996264)"/>
      <use xlink:href="#CMMI12-61" transform="translate(379.433782 0) scale(0.996264)"/>
      <use xlink:href="#CMMI12-3a" transform="translate(430.64164 0) scale(0.996264)"/>
      <use xlink:href="#CMMI12-75" transform="translate(457.738817 0) scale(0.996264)"/>
      <use xlink:href="#CMMI12-3a" transform="translate(513.259147 0) scale(0.996264)"/>
     </g>
    </g>
   </g>
   <g id="line2d_15">
    <path d="M 398.487273 206.557302 
L 396.351693 207.039527 
L 394.506417 207.852507 
L 392.395703 206.987046 
L 388.485571 206.024459 
L 386.682771 204.423748 
L 384.620503 202.43228 
L 382.838392 201.168281 
L 380.799725 199.978255 
L 379.03795 198.238872 
L 377.02248 195.336777 
L 375.280695 192.540739 
L 371.565894 188.374198 
L 369.595646 185.811901 
L 367.892833 183.011229 
L 365.944627 180.334621 
L 362.33428 174.269649 
L 360.669145 171.261576 
L 357.117167 166.143929 
L 355.232913 163.820404 
L 353.604221 161.446755 
L 351.740586 158.313855 
L 350.129667 154.633378 
L 344.869482 144.023203 
L 343.293249 140.210506 
L 341.489481 136.471761 
L 339.930172 132.464503 
L 336.603064 124.880113 
L 333.311351 119.609472 
L 331.564611 116.006 
L 330.054471 112.509116 
L 325.121662 104.473212 
L 323.643021 101.427319 
L 320.487385 95.759517 
L 318.812569 93.361845 
L 315.706921 89.391648 
L 312.633202 83.622315 
L 311.214671 81.291186 
L 308.247113 76.982903 
L 300.80951 67.820602 
L 299.242125 66.79526 
L 297.930293 65.176464 
L 296.378329 63.561094 
L 294.834646 62.211822 
L 293.499636 60.790147 
L 291.971255 58.924738 
L 290.649444 57.878651 
L 286.328881 56.337594 
L 285.032891 55.70718 
L 283.549074 55.320521 
L 282.265711 54.115089 
L 280.810026 54.139953 
L 279.579954 55.355461 
L 278.124489 55.831658 
L 276.90611 55.151595 
L 275.464449 55.11984 
L 274.043586 55.230325 
L 272.842869 55.717317 
L 268.825122 55.56371 
L 267.424778 55.356397 
L 266.213444 55.834726 
L 264.826325 56.781557 
L 263.626404 57.882149 
L 262.252324 59.592874 
L 261.063655 61.903068 
L 259.702431 64.189371 
L 257.17631 69.705849 
L 256.009677 72.874661 
L 254.686097 75.36877 
L 253.567407 77.900704 
L 252.243442 80.182511 
L 251.134896 83.142733 
L 247.436337 91.57204 
L 246.142461 93.941913 
L 245.059054 96.887496 
L 243.776752 99.941739 
L 242.512581 102.622551 
L 240.179192 109.088734 
L 239.120076 113.575202 
L 234.349022 128.569114 
L 233.31339 133.367977 
L 230.878838 143.339523 
L 229.857059 148.712595 
L 228.647545 153.620458 
L 227.634624 159.249132 
L 225.253286 170.891437 
L 224.253767 176.92481 
L 223.070546 182.225427 
L 222.079598 187.250465 
L 219.749747 196.640331 
L 218.771769 201.631001 
L 217.613992 206.719832 
L 216.64431 212.079081 
L 211.324931 236.382498 
L 209.093169 244.362829 
L 208.156234 248.358172 
L 207.046946 252.050493 
L 206.117791 255.847045 
L 203.015391 265.033811 
L 201.929213 267.770417 
L 201.019375 270.583475 
L 199.942104 273.385638 
L 198.001131 277.336579 
L 195.937388 280.080245 
L 194.018649 282.086496 
L 191.115994 284.61643 
L 190.101673 284.990571 
L 190.101673 284.990571 
" clip-path="url(#paf1a45da72)" style="fill: none; stroke: #1f77b4; stroke-width: 1.5; stroke-linecap: round"/>
   </g>
   <g id="line2d_16">
    <path d="M 73.832727 293.902482 
L 74.392072 294.05871 
L 74.953346 293.509225 
L 75.516591 294.1911 
L 76.000914 294.340301 
L 76.567743 294.040972 
L 77.136572 293.909592 
L 77.707378 293.907584 
L 78.280172 293.694575 
L 78.854929 294.259237 
L 79.431729 294.215031 
L 79.927721 293.982284 
L 81.090854 294.674032 
L 81.675454 294.443656 
L 82.262148 293.931227 
L 82.850913 293.752968 
L 83.35718 293.971507 
L 83.949808 294.401126 
L 84.544539 295.030028 
L 85.141346 295.17816 
L 85.740278 294.841406 
L 86.341345 294.164884 
L 86.858279 293.778304 
L 88.070551 294.415259 
L 88.67995 295.173167 
L 89.29154 294.953065 
L 89.905297 294.390967 
L 91.051031 294.17118 
L 91.671135 293.929392 
L 92.293488 294.050757 
L 92.918102 294.615981 
L 93.4553 295.269978 
L 94.084097 295.488 
L 94.715227 295.472423 
L 95.98435 295.224017 
L 96.531091 294.746433 
L 97.171146 294.664433 
L 99.012837 294.998106 
L 100.313544 294.419741 
L 102.188477 294.601806 
L 102.849376 294.286171 
L 103.512786 294.197463 
L 104.178644 294.348626 
L 104.751324 294.666837 
L 105.421825 294.830297 
L 106.770339 294.819593 
L 107.448381 295.006337 
L 108.031604 295.323733 
L 108.714416 295.30524 
L 109.399784 294.774552 
L 110.087762 294.437584 
L 114.775297 294.514548 
L 116.093234 294.23186 
L 116.806756 294.398654 
L 117.52305 294.689824 
L 118.860639 294.687206 
L 119.584886 294.830244 
L 121.669649 293.954157 
L 122.404818 293.619436 
L 123.142842 293.882935 
L 123.777766 294.454372 
L 124.52116 294.849039 
L 125.267501 294.673693 
L 125.909542 294.269566 
L 126.661344 294.502778 
L 129.589125 294.353498 
L 130.355543 294.564728 
L 133.340347 294.191483 
L 134.009882 294.543231 
L 134.793959 294.348485 
L 136.258514 294.241704 
L 137.05165 294.362432 
L 137.847984 294.675705 
L 139.335512 294.364938 
L 141.646097 294.769093 
L 143.16246 294.164237 
L 144.808418 294.176004 
L 145.518004 294.071026 
L 146.348985 294.103917 
L 148.742303 294.822874 
L 149.586706 294.608627 
L 151.164184 293.892354 
L 152.018711 294.264956 
L 152.753978 294.873861 
L 153.615142 295.094146 
L 155.224111 294.696915 
L 156.095701 294.582021 
L 156.970975 294.748701 
L 157.724143 295.209155 
L 158.606297 295.328127 
L 160.254617 294.44756 
L 161.147581 294.264481 
L 165.409192 294.888904 
L 166.324323 295.152926 
L 168.960895 295.232096 
L 170.692306 295.066454 
L 171.630409 294.607853 
L 174.197525 294.657564 
L 175.151048 294.532732 
L 176.108785 294.211834 
L 176.933055 294.341945 
L 178.868574 294.013627 
L 179.703344 294.424939 
L 181.522998 294.316628 
L 182.509086 293.724951 
L 183.499577 293.487184 
L 184.352133 293.659126 
L 187.217799 293.086455 
L 189.10042 292.09217 
L 190.998998 291.698061 
L 192.027946 291.690794 
L 193.951426 290.840076 
L 194.993927 290.135229 
L 195.891325 289.28801 
L 196.94277 288.13636 
L 199.973836 285.543781 
L 200.891001 283.996015 
L 201.965658 282.826493 
L 203.045354 281.161497 
L 203.974813 279.227577 
L 206.001529 274.532664 
L 207.100172 272.793638 
L 208.045972 270.915922 
L 210.267858 265.62515 
L 211.226564 262.356724 
L 212.349972 259.698589 
L 213.317166 256.136425 
L 214.450579 252.633526 
L 215.426406 248.608605 
L 218.70823 236.634899 
L 219.867596 232.176335 
L 223.042872 218.74513 
L 224.223292 214.231955 
L 226.43083 203.029157 
L 228.658557 193.101269 
L 229.866534 188.515451 
L 230.906717 182.785577 
L 233.175589 171.476156 
L 234.405961 166.893583 
L 237.955292 151.607216 
L 239.030025 145.703248 
L 242.646048 132.065419 
L 243.741037 127.370702 
L 248.54147 108.99946 
L 249.849526 104.910309 
L 252.296558 96.386824 
L 253.433891 92.528264 
L 255.915377 85.763349 
L 258.614597 77.780157 
L 259.78005 73.995748 
L 261.146297 71.183658 
L 263.702713 66.404443 
L 264.891011 63.43414 
L 266.28417 61.387485 
L 267.484183 60.240289 
L 268.891077 59.141172 
L 270.102938 57.122964 
L 271.523811 55.536169 
L 272.747697 54.825248 
L 275.418807 54.079479 
L 278.116664 53.632735 
L 280.841672 54.081667 
L 282.320381 54.857151 
L 285.087971 56.736758 
L 286.374792 58.219423 
L 287.883773 59.404358 
L 289.183752 60.782236 
L 290.708175 62.625828 
L 292.021516 64.625752 
L 293.561662 66.722565 
L 294.888573 68.803826 
L 296.444642 70.984406 
L 297.785332 73.520208 
L 299.357618 76.027319 
L 300.712304 79.40314 
L 302.301016 82.895082 
L 303.669871 86.384429 
L 305.275313 89.947742 
L 306.658608 93.42886 
L 311.318571 104.270735 
L 312.731437 108.185677 
L 314.388541 111.566229 
L 315.816502 115.056007 
L 318.934728 123.962861 
L 320.385231 128.276584 
L 322.086653 131.592087 
L 325.272775 140.105497 
L 326.75499 145.214046 
L 329.992142 153.464579 
L 331.749913 157.426289 
L 333.264892 161.775833 
L 335.042085 166.276184 
L 336.573829 170.677124 
L 338.370769 174.297331 
L 341.736573 182.581982 
L 344.876949 191.464385 
L 346.723863 195.447787 
L 348.31583 199.230541 
L 351.793747 205.829079 
L 355.31126 213.17906 
L 357.221911 216.501058 
L 358.869051 219.775883 
L 360.801717 223.292014 
L 362.467868 226.971621 
L 364.142841 229.929688 
L 366.108314 233.098654 
L 367.802839 236.149337 
L 369.791228 238.951892 
L 371.505535 242.021345 
L 375.251794 247.895846 
L 377.287234 250.318576 
L 379.042275 252.824779 
L 379.042275 252.824779 
" clip-path="url(#paf1a45da72)" style="fill: none; stroke: #ff7f0e; stroke-width: 1.5; stroke-linecap: round"/>
   </g>
   <g id="line2d_17">
    <path d="M 229.879709 275.439343 
L 228.703922 274.056869 
L 226.357319 270.927664 
L 223.048494 264.98614 
L 220.906501 260.32154 
L 219.749747 257.318699 
L 218.771769 254.000397 
L 217.613992 250.594078 
L 214.364295 238.69821 
L 213.407168 233.981153 
L 212.274025 229.227212 
L 207.046946 202.015237 
L 206.117791 196.344269 
L 203.932767 184.912732 
L 203.015391 179.196327 
L 201.929213 173.349011 
L 201.019375 167.618294 
L 198.899629 156.236388 
L 196.967023 143.883988 
L 193.001602 119.683691 
L 187.246425 89.229951 
L 184.416099 75.970616 
L 183.439609 72.398619 
L 181.628971 66.915809 
L 178.865771 59.704714 
L 177.912347 58.157434 
L 176.008226 56.058705 
L 175.193119 55.36507 
L 172.514756 53.568 
L 171.578509 53.587123 
L 169.858762 54.854051 
L 168.942212 54.969883 
L 168.029318 55.361309 
L 167.11143 56.513908 
L 166.327666 57.784722 
L 165.42531 58.688835 
L 164.526631 59.75558 
L 162.851249 63.116175 
L 161.962864 64.68124 
L 159.436739 70.403845 
L 158.553515 72.19294 
L 155.320172 81.351559 
L 154.453319 83.270724 
L 153.59811 85.559054 
L 152.011699 90.645087 
L 147.919785 102.683757 
L 146.366424 108.828936 
L 145.558347 111.691408 
L 144.04554 116.476079 
L 142.434264 122.131703 
L 140.842865 128.38024 
L 140.155656 131.479912 
L 137.779398 140.684891 
L 137.094492 143.508948 
L 135.520143 148.306377 
L 132.503288 158.816089 
L 131.835468 161.567062 
L 130.307648 166.367361 
L 129.551648 168.605785 
L 127.401582 176.686846 
L 125.920657 181.601458 
L 125.281033 184.086046 
L 122.353139 193.529058 
L 118.229781 207.443915 
L 114.094613 218.045348 
L 112.015208 223.088246 
L 111.418392 224.840161 
L 109.373535 229.327995 
L 108.03305 233.03768 
L 106.701671 235.800541 
L 106.133868 237.325277 
L 104.162775 241.233872 
L 102.851214 244.37239 
L 101.624945 246.623302 
L 99.674007 250.269695 
L 95.300697 257.338613 
L 94.054633 259.231293 
L 92.28879 261.79247 
L 91.062496 263.552535 
L 89.241059 266.572461 
L 82.790464 274.201428 
L 81.705596 275.129162 
L 78.827011 277.721234 
L 76.554502 279.662178 
L 76.071255 279.941894 
L 74.948736 280.900905 
L 74.948736 280.900905 
" clip-path="url(#paf1a45da72)" style="fill: none; stroke: #2ca02c; stroke-width: 1.5; stroke-linecap: round"/>
   </g>
   <g id="patch_3">
    <path d="M 57.6 307.584 
L 57.6 41.472 
" style="fill: none; stroke: #ffffff; stroke-width: 0.8; stroke-linejoin: miter; stroke-linecap: square"/>
   </g>
   <g id="patch_4">
    <path d="M 414.72 307.584 
L 414.72 41.472 
" style="fill: none; stroke: #ffffff; stroke-width: 0.8; stroke-linejoin: miter; stroke-linecap: square"/>
   </g>
   <g id="patch_5">
    <path d="M 57.6 307.584 
L 414.72 307.584 
" style="fill: none; stroke: #ffffff; stroke-width: 0.8; stroke-linejoin: miter; stroke-linecap: square"/>
   </g>
   <g id="patch_6">
    <path d="M 57.6 41.472 
L 414.72 41.472 
" style="fill: none; stroke: #ffffff; stroke-width: 0.8; stroke-linejoin: miter; stroke-linecap: square"/>
   </g>
   <g id="text_17">
    <!-- 24211 -->
    <g style="fill: #262626" transform="translate(278.116664 53.632735) scale(0.1 -0.1)">
     <defs>
      <path id="CMSS17-32" d="M 1651 1357 
C 1830 1541 2099 1764 2285 1987 
C 2464 2204 2701 2511 2701 2957 
C 2701 3657 2227 4288 1421 4288 
C 787 4288 422 3893 250 3274 
L 499 2929 
C 640 3510 838 3880 1338 3880 
C 1888 3880 2195 3433 2195 2942 
C 2195 2355 1747 1901 1408 1563 
C 1030 1187 659 804 301 408 
L 301 0 
L 2701 0 
L 2701 433 
L 1613 433 
C 1536 433 1459 433 1382 433 
L 742 433 
L 742 439 
L 1651 1357 
z
" transform="scale(0.015625)"/>
      <path id="CMSS17-34" d="M 2253 1088 
L 2835 1088 
L 2835 1477 
L 2253 1477 
L 2253 4192 
L 1690 4192 
L 166 1477 
L 166 1088 
L 1747 1088 
L 1747 0 
L 2253 0 
L 2253 1088 
z
M 659 1477 
C 1030 2127 1766 3439 1766 3885 
L 1766 1477 
L 659 1477 
z
" transform="scale(0.015625)"/>
      <path id="CMSS17-31" d="M 1818 4288 
L 1696 4288 
C 1350 3940 947 3890 538 3890 
L 538 3520 
C 723 3520 1024 3520 1325 3667 
L 1325 369 
L 570 369 
L 570 0 
L 2573 0 
L 2573 369 
L 1818 369 
L 1818 4288 
z
" transform="scale(0.015625)"/>
     </defs>
     <use xlink:href="#CMSS17-32" transform="scale(0.996264)"/>
     <use xlink:href="#CMSS17-34" transform="translate(46.843624 0) scale(0.996264)"/>
     <use xlink:href="#CMSS17-32" transform="translate(93.687247 0) scale(0.996264)"/>
     <use xlink:href="#CMSS17-31" transform="translate(140.530871 0) scale(0.996264)"/>
     <use xlink:href="#CMSS17-31" transform="translate(187.374494 0) scale(0.996264)"/>
    </g>
   </g>
   <g id="text_18">
    <!-- 19648 -->
    <g style="fill: #262626" transform="translate(172.514756 53.568) scale(0.1 -0.1)">
     <defs>
      <path id="CMSS17-39" d="M 435 174 
C 614 21 845 -128 1235 -128 
C 2010 -128 2752 721 2752 2095 
C 2752 3932 1952 4229 1523 4229 
C 1094 4229 819 4041 582 3741 
C 301 3397 250 3090 250 2733 
C 250 2307 326 2045 506 1745 
C 749 1357 973 1275 1222 1275 
C 1600 1275 1978 1459 2234 1776 
C 2189 902 1798 267 1235 267 
C 1005 267 819 339 634 516 
L 435 174 
z
M 2214 2746 
C 2221 2703 2221 2622 2221 2596 
C 2221 2074 1914 1664 1466 1664 
C 1171 1664 1018 1813 902 2006 
C 762 2249 755 2485 755 2733 
C 755 2976 755 3244 934 3511 
C 1069 3703 1235 3840 1523 3840 
C 2112 3840 2208 3000 2214 2746 
z
" transform="scale(0.015625)"/>
      <path id="CMSS17-36" d="M 2496 4101 
C 2227 4210 2035 4229 1856 4229 
C 1024 4229 250 3368 250 2006 
C 250 265 986 -128 1510 -128 
C 1798 -128 2086 -39 2362 280 
C 2643 617 2752 898 2752 1389 
C 2752 2179 2362 2880 1779 2880 
C 1357 2880 992 2657 768 2376 
C 832 3258 1254 3840 1862 3840 
C 2029 3840 2246 3816 2496 3710 
L 2496 4101 
z
M 774 1369 
C 774 1420 774 1452 781 1548 
C 781 2045 1069 2491 1536 2491 
C 1837 2491 1990 2332 2106 2135 
C 2240 1886 2246 1650 2246 1388 
C 2246 1140 2246 891 2099 637 
C 1978 439 1818 267 1510 267 
C 902 267 800 1114 774 1369 
z
" transform="scale(0.015625)"/>
      <path id="CMSS17-38" d="M 1933 2222 
C 2419 2380 2669 2760 2669 3134 
C 2669 3722 2157 4229 1504 4229 
C 826 4229 333 3708 333 3144 
C 333 2780 576 2403 1069 2241 
C 442 1997 250 1512 250 1149 
C 250 446 819 -128 1498 -128 
C 2202 -128 2752 455 2752 1138 
C 2752 1557 2502 2000 1933 2222 
z
M 1504 2432 
C 1075 2432 787 2712 787 3136 
C 787 3566 1075 3840 1504 3840 
C 1901 3840 2214 3591 2214 3136 
C 2214 2687 1907 2432 1504 2432 
z
M 1504 267 
C 1139 267 749 517 749 1156 
C 749 1813 1184 2043 1498 2043 
C 1843 2043 2253 1800 2253 1156 
C 2253 491 1830 267 1504 267 
z
" transform="scale(0.015625)"/>
     </defs>
     <use xlink:href="#CMSS17-31" transform="scale(0.996264)"/>
     <use xlink:href="#CMSS17-39" transform="translate(46.843624 0) scale(0.996264)"/>
     <use xlink:href="#CMSS17-36" transform="translate(93.687247 0) scale(0.996264)"/>
     <use xlink:href="#CMSS17-34" transform="translate(140.530871 0) scale(0.996264)"/>
     <use xlink:href="#CMSS17-38" transform="translate(187.374494 0) scale(0.996264)"/>
    </g>
   </g>
   <g id="legend_1">
    <g id="patch_7">
     <path d="M 316.331516 302.584 
L 407.72 302.584 
Q 409.72 302.584 409.72 300.584 
L 409.72 259.772465 
Q 409.72 257.772465 407.72 257.772465 
L 316.331516 257.772465 
Q 314.331516 257.772465 314.331516 259.772465 
L 314.331516 300.584 
Q 314.331516 302.584 316.331516 302.584 
z
" style="fill: #eaeaf2; opacity: 0.8; stroke: #cccccc; stroke-linejoin: miter"/>
    </g>
    <g id="line2d_18">
     <path d="M 318.331516 265.272465 
L 328.331516 265.272465 
L 338.331516 265.272465 
" style="fill: none; stroke: #1f77b4; stroke-width: 1.5; stroke-linecap: round"/>
    </g>
    <g id="text_19">
     <!-- Excitation -->
     <g style="fill: #262626" transform="translate(346.331516 268.772465) scale(0.1 -0.1)">
      <defs>
       <path id="CMSS17-45" d="M 1958 433 
C 1446 433 1216 433 1101 433 
L 1101 2107 
L 3085 2107 
L 3085 2496 
L 1101 2496 
L 1101 4009 
L 1926 4009 
C 2003 4009 2080 4009 2157 4009 
L 3251 4009 
L 3251 4416 
L 563 4416 
L 563 0 
L 3334 0 
L 3334 433 
L 1958 433 
z
" transform="scale(0.015625)"/>
       <path id="CMSS17-78" d="M 1587 1414 
L 2656 2739 
L 2099 2739 
L 1363 1777 
L 602 2739 
L 32 2739 
L 1139 1414 
L 0 0 
L 563 0 
L 1363 1121 
L 2195 0 
L 2758 0 
L 1587 1414 
z
" transform="scale(0.015625)"/>
       <path id="CMSS17-63" d="M 2464 2541 
C 2464 2585 2170 2714 2093 2739 
C 1882 2816 1613 2816 1542 2816 
C 710 2816 211 2093 211 1363 
C 211 595 768 -64 1517 -64 
C 1946 -64 2253 76 2502 242 
L 2464 664 
C 2189 453 1869 337 1523 337 
C 1024 337 698 774 698 1369 
C 698 1831 909 2414 1549 2414 
C 1901 2414 2099 2343 2394 2145 
L 2464 2541 
z
" transform="scale(0.015625)"/>
       <path id="CMSS17-6f" d="M 2829 1356 
C 2829 2176 2221 2816 1504 2816 
C 768 2816 173 2157 173 1356 
C 173 544 787 -64 1498 -64 
C 2227 -64 2829 563 2829 1356 
z
M 1504 337 
C 1050 337 659 709 659 1408 
C 659 2151 1114 2427 1498 2427 
C 1914 2427 2342 2126 2342 1408 
C 2342 683 1926 337 1504 337 
z
" transform="scale(0.015625)"/>
      </defs>
      <use xlink:href="#CMSS17-45" transform="scale(0.996264)"/>
      <use xlink:href="#CMSS17-78" transform="translate(55.892013 0) scale(0.996264)"/>
      <use xlink:href="#CMSS17-63" transform="translate(98.892155 0) scale(0.996264)"/>
      <use xlink:href="#CMSS17-69" transform="translate(140.530977 0) scale(0.996264)"/>
      <use xlink:href="#CMSS17-74" transform="translate(162.7117 0) scale(0.996264)"/>
      <use xlink:href="#CMSS17-61" transform="translate(196.543267 0) scale(0.996264)"/>
      <use xlink:href="#CMSS17-74" transform="translate(241.465187 0) scale(0.996264)"/>
      <use xlink:href="#CMSS17-69" transform="translate(275.296754 0) scale(0.996264)"/>
      <use xlink:href="#CMSS17-6f" transform="translate(297.477477 0) scale(0.996264)"/>
      <use xlink:href="#CMSS17-6e" transform="translate(344.321101 0) scale(0.996264)"/>
     </g>
    </g>
    <g id="line2d_19">
     <path d="M 318.331516 279.209643 
L 328.331516 279.209643 
L 338.331516 279.209643 
" style="fill: none; stroke: #ff7f0e; stroke-width: 1.5; stroke-linecap: round"/>
    </g>
    <g id="text_20">
     <!-- Transmittance -->
     <g style="fill: #262626" transform="translate(346.331516 282.709643) scale(0.1 -0.1)">
      <defs>
       <path id="CMSS17-54" d="M 2317 3968 
L 2848 3968 
C 2925 3968 3002 3968 3078 3968 
L 3878 3968 
L 3878 4376 
L 218 4376 
L 218 3968 
L 1018 3968 
C 1094 3968 1171 3968 1248 3968 
L 1779 3968 
L 1779 -32 
L 2317 -32 
L 2317 3968 
z
" transform="scale(0.015625)"/>
      </defs>
      <use xlink:href="#CMSS17-54" transform="scale(0.996264)"/>
      <use xlink:href="#CMSS17-72" transform="translate(56.012199 0) scale(0.996264)"/>
      <use xlink:href="#CMSS17-61" transform="translate(87.921971 0) scale(0.996264)"/>
      <use xlink:href="#CMSS17-6e" transform="translate(132.843892 0) scale(0.996264)"/>
      <use xlink:href="#CMSS17-73" transform="translate(181.048835 0) scale(0.996264)"/>
      <use xlink:href="#CMSS17-6d" transform="translate(216.962377 0) scale(0.996264)"/>
      <use xlink:href="#CMSS17-69" transform="translate(291.191631 0) scale(0.996264)"/>
      <use xlink:href="#CMSS17-74" transform="translate(313.372354 0) scale(0.996264)"/>
      <use xlink:href="#CMSS17-74" transform="translate(347.203921 0) scale(0.996264)"/>
      <use xlink:href="#CMSS17-61" transform="translate(381.035488 0) scale(0.996264)"/>
      <use xlink:href="#CMSS17-6e" transform="translate(425.957408 0) scale(0.996264)"/>
      <use xlink:href="#CMSS17-63" transform="translate(474.162351 0) scale(0.996264)"/>
      <use xlink:href="#CMSS17-65" transform="translate(515.801173 0) scale(0.996264)"/>
     </g>
    </g>
    <g id="line2d_20">
     <path d="M 318.331516 293.146822 
L 328.331516 293.146822 
L 338.331516 293.146822 
" style="fill: none; stroke: #2ca02c; stroke-width: 1.5; stroke-linecap: round"/>
    </g>
    <g id="text_21">
     <!-- Fluorescence -->
     <g style="fill: #262626" transform="translate(346.331516 296.646822) scale(0.1 -0.1)">
      <defs>
       <path id="CMSS17-46" d="M 2918 1984 
L 2918 2373 
L 1101 2373 
L 1101 3968 
L 1882 3968 
C 1958 3968 2035 3968 2112 3968 
L 3168 3968 
L 3168 4375 
L 563 4375 
L 563 -32 
L 1101 -32 
L 1101 1984 
L 2918 1984 
z
" transform="scale(0.015625)"/>
       <path id="CMSS17-6c" d="M 947 4416 
L 474 4416 
L 474 0 
L 947 0 
L 947 4416 
z
" transform="scale(0.015625)"/>
      </defs>
      <use xlink:href="#CMSS17-46" transform="scale(0.996264)"/>
      <use xlink:href="#CMSS17-6c" transform="translate(53.289559 0) scale(0.996264)"/>
      <use xlink:href="#CMSS17-75" transform="translate(75.470282 0) scale(0.996264)"/>
      <use xlink:href="#CMSS17-6f" transform="translate(123.675225 0) scale(0.996264)"/>
      <use xlink:href="#CMSS17-72" transform="translate(167.916395 0) scale(0.996264)"/>
      <use xlink:href="#CMSS17-65" transform="translate(199.826168 0) scale(0.996264)"/>
      <use xlink:href="#CMSS17-73" transform="translate(241.46499 0) scale(0.996264)"/>
      <use xlink:href="#CMSS17-63" transform="translate(277.378532 0) scale(0.996264)"/>
      <use xlink:href="#CMSS17-65" transform="translate(319.017354 0) scale(0.996264)"/>
      <use xlink:href="#CMSS17-6e" transform="translate(360.656176 0) scale(0.996264)"/>
      <use xlink:href="#CMSS17-63" transform="translate(408.861119 0) scale(0.996264)"/>
      <use xlink:href="#CMSS17-65" transform="translate(450.499941 0) scale(0.996264)"/>
     </g>
    </g>
   </g>
  </g>
 </g>
 <defs>
  <clipPath id="paf1a45da72">
   <rect x="57.6" y="41.472" width="357.12" height="266.112"/>
  </clipPath>
 </defs>
</svg>
