<?xml version="1.0" encoding="UTF-8"?>
<svg width="136.6mm" height="85.8mm" version="1.1" viewBox="0 0 136.6 85.8" xmlns="http://www.w3.org/2000/svg" xmlns:cc="http://creativecommons.org/ns#" xmlns:dc="http://purl.org/dc/elements/1.1/" xmlns:rdf="http://www.w3.org/1999/02/22-rdf-syntax-ns#">
 <title>Scanning tunneling microscope - rectangular potential barrier model</title>
 <defs>
  <marker id="a" overflow="visible" orient="auto">
   <path transform="matrix(.4 0 0 .4 4 0)" d="m0 0 5-5-17.5 5 17.5 5z" fill="#4d4d4d" fill-rule="evenodd" stroke="#333" stroke-width="1pt"/>
  </marker>
  <marker id="b" overflow="visible" orient="auto">
   <path transform="matrix(-.4 0 0 -.4 -4 0)" d="m0 0 5-5-17.5 5 17.5 5z" fill="#4d4d4d" fill-rule="evenodd" stroke="#333" stroke-width="1pt"/>
  </marker>
 </defs>
 <metadata>
  <rdf:RDF>
   <cc:Work rdf:about="">
    <dc:format>image/svg+xml</dc:format>
    <dc:type rdf:resource="http://purl.org/dc/dcmitype/StillImage"/>
    <dc:title>Scanning tunneling microscope - rectangular potential barrier model</dc:title>
    <dc:date>2020-09-01</dc:date>
    <dc:creator>
     <cc:Agent>
      <dc:title>Ivo Pletikosic</dc:title>
     </cc:Agent>
    </dc:creator>
    <dc:subject>
     <rdf:Bag>
      <rdf:li>STM</rdf:li>
      <rdf:li>Scanning tunneling microscope</rdf:li>
      <rdf:li>rectangular potential barrier</rdf:li>
      <rdf:li>Condensed matter physics</rdf:li>
     </rdf:Bag>
    </dc:subject>
    <dc:description>Scanning tunneling microscope - rectangular potential barrier model. Barrier height is U, width is w.</dc:description>
    <dc:contributor>
     <cc:Agent>
      <dc:title>inspired by B. Van Zeghbroeck (2011) : https://ecee.colorado.edu/~bart/book/book/chapter1/ch1_2.htm</dc:title>
     </cc:Agent>
    </dc:contributor>
    <cc:license rdf:resource="http://creativecommons.org/licenses/by-sa/4.0/"/>
   </cc:Work>
   <cc:License rdf:about="http://creativecommons.org/licenses/by-sa/4.0/">
    <cc:permits rdf:resource="http://creativecommons.org/ns#Reproduction"/>
    <cc:permits rdf:resource="http://creativecommons.org/ns#Distribution"/>
    <cc:requires rdf:resource="http://creativecommons.org/ns#Notice"/>
    <cc:requires rdf:resource="http://creativecommons.org/ns#Attribution"/>
    <cc:permits rdf:resource="http://creativecommons.org/ns#DerivativeWorks"/>
    <cc:requires rdf:resource="http://creativecommons.org/ns#ShareAlike"/>
   </cc:License>
  </rdf:RDF>
 </metadata>
 <g transform="translate(-19.39 -39.5)">
  <path d="m29.34 104.1c3.101 0.947 3.637 11.13 7.536 11.16 3.881 0.0308 5.497-11.46 9.459-11.43 3.962 0.0309 5.313 11.4 9.103 11.4 3.79 0 2.85-12.38 8.097-10.89 15.23 4.307 32.51 5.763 35.13 6.221 0 0 0.8223 0.1266 3.008 0.1493 3.922-9e-3 5.243-1.35 8.944-1.35 3.702-2.4e-4 5.264 1.343 9.274 1.343 4.009 2e-4 4.547-1.82 9.103-1.353l3.802 0.3897" fill="none" stroke="#ff8080" stroke-width=".8"/>
  <path d="m29.34 101c3.101 1.45 3.637 17.05 7.536 17.09 3.881 0.0472 5.497-17.54 9.459-17.5 3.962 0.0473 5.313 17.46 9.103 17.46 3.79 0 2.85-18.95 8.097-16.68 15.23 6.595 32.55 7.685 35.04 8.243 2.51 0.5641 4.761 1.557 6.947 1.597 3.922-0.0149 5.243-2.418 8.944-2.418 3.702-4e-4 5.264 2.404 9.274 2.404 4.009 3.6e-4 4.523-2.447 9.103-2.422" fill="none" stroke="#a00" stroke-width=".9"/>
  <path d="m29.53 110h103.3" stroke="#a00" stroke-dasharray="1.8, 0.6" stroke-width=".3"/>
  <path d="m83.61 41.93c0-0.2667-0.09144-0.5029-0.3124-0.5029-0.1753 0-0.3658 0.1753-0.3658 0.3505 0 0.09906 0.05334 0.1524 0.09906 0.2057 0.1829 0.1981 0.2057 0.442 0.2057 0.602 0 0.3048-0.2438 1.105-0.3734 1.417-0.1676 0.3962-0.4115 0.7087-0.762 0.7087-0.381 0-0.5029-0.3124-0.5029-0.6325 0-0.06858 0.0076-0.2515 0.09144-0.5867l0.32-1.28c0.04572-0.1676 0.1219-0.4724 0.1219-0.5029 0-0.08382-0.06096-0.1981-0.2134-0.1981-0.221 0-0.2743 0.2057-0.2896 0.2667l-0.4343 1.737c-0.05334 0.2134-0.06096 0.3734-0.06096 0.4801 0 0.08382-0.2362 0.7163-0.6401 0.7163-0.5334 0-0.5334-0.5639-0.5334-0.6629 0-0.4115 0.1981-0.9754 0.4343-1.6 0.05334-0.1448 0.09144-0.2591 0.09144-0.4039 0-0.381-0.2515-0.6172-0.5791-0.6172-0.7087 0-0.9754 1.128-0.9754 1.173 0 0.0762 0.0762 0.0762 0.1143 0.0762 0.09906 0 0.1067-0.01524 0.1372-0.1219 0.06096-0.2362 0.2667-0.9601 0.7087-0.9601 0.08382 0 0.1676 0.02286 0.1676 0.221 0 0.1829-0.0762 0.3886-0.1829 0.6858-0.381 1.036-0.381 1.234-0.381 1.44 0 0.2591 0.06096 0.5182 0.2591 0.701 0.2438 0.2134 0.5867 0.2362 0.7163 0.2362 0.2438 0 0.5105-0.09906 0.7391-0.4877 0.1143 0.2819 0.4191 0.4877 0.8687 0.4877 0.4572 0 0.7772-0.3124 1.006-0.8534 0.2286-0.5182 0.5258-1.692 0.5258-2.096z" fill="#333" stroke-width=".2646" style="text-decoration-color:#000000;text-decoration-line:none"/>
  <path d="m28.58 49.55h34.88" stop-color="#000000" stroke="#666" stroke-dasharray="0.30000001,0.60000003" stroke-width=".3" style="font-variation-settings:normal"/>
  <g transform="translate(-.7937)" fill="#333" stop-color="#000000" stroke-width=".2646" style="text-decoration-color:#000000;text-decoration-line:none" aria-label="U">
   <path d="m28.4 46.9c0-0.05644-0.02822-0.09172-0.09172-0.09172-0.2117 0-0.4445 0.02117-0.6632 0.02117-0.2258 0-0.4586-0.02117-0.6773-0.02117-0.03528 0-0.127 0-0.127 0.1341 0 0.07761 0.0635 0.08467 0.127 0.08467 0.3669 0.01411 0.4233 0.1552 0.4233 0.3034 0 0.0635-0.01411 0.1129-0.02822 0.1693l-0.6279 2.512c-0.2258 0.9102-0.9737 1.552-1.637 1.552-0.3669 0-0.7549-0.2399-0.7549-0.8819 0-0.1552 0.03528-0.381 0.07055-0.5362l0.7056-2.836c0.05645-0.2258 0.1129-0.2822 0.5574-0.2822 0.1482 0 0.2117 0 0.2117-0.127 0-0.07761-0.04939-0.09172-0.09878-0.09172-0.2681 0-0.5574 0.02117-0.8326 0.02117-0.2822 0-0.5715-0.02117-0.8467-0.02117-0.04233 0-0.1341 0-0.1341 0.1341 0 0.08467 0.05644 0.08467 0.1905 0.08467 0.2187 0 0.4092 0 0.4092 0.1199 0 0.02117 0 0.03528-0.02822 0.1341l-0.6773 2.723c-0.05644 0.2258-0.05644 0.381-0.05644 0.4516 0 0.8467 0.5927 1.326 1.256 1.326 0.8961 0 1.679-0.9172 1.87-1.693l0.6421-2.582c0.1129-0.4516 0.508-0.4727 0.7126-0.4798 0.02117 0 0.1058-0.0071 0.1058-0.127z" stroke-width=".2646" style="font-variant-caps:normal;font-variant-east-asian:normal;font-variant-ligatures:normal;font-variant-numeric:normal"/>
  </g>
  <path d="m28.81 67.13h104.5" stroke="#666" stroke-dasharray="1.8, 0.600001" stroke-width=".3"/>
  <path d="m64.52 43.43v5.595" stroke="#727272" stroke-width=".2646px"/>
  <path d="m98.75 43.43v5.595" stroke="#727272" stroke-width=".2646px"/>
  <path d="m65.05 46.03h33.13" fill="#4d4d4d" marker-end="url(#b)" marker-start="url(#a)" stroke="#333" stroke-width=".3175"/>
  <g transform="translate(-.5292)" fill="#333" stop-color="#000000" stroke-width=".2646" style="text-decoration-color:#000000;text-decoration-line:none" aria-label="E">
   <path d="m26.49 67.76c0-0.07761-0.08467-0.07761-0.1058-0.07761-0.07761 0-0.08467 0.0071-0.1482 0.1693-0.4092 0.9737-0.6562 1.432-1.778 1.432h-0.8608c-0.2187 0-0.2187-0.02117-0.2187-0.07056 0-0.04233 0.02117-0.1129 0.02822-0.1552l0.4868-1.94h0.6138c0.4798 0 0.5292 0.1129 0.5292 0.3034 0 0.04939-0.0071 0.1552-0.0635 0.3598 0 0-0.01411 0.05644-0.01411 0.07761 0 0.08467 0.07055 0.08467 0.1129 0.08467 0.07761 0 0.09878-0.01411 0.127-0.1411l0.3881-1.552c0.0071-0.02117 0.02117-0.09172 0.02117-0.09172 0-0.08467-0.08467-0.08467-0.1129-0.08467-0.09172 0-0.09172 0.02117-0.1341 0.1693-0.1341 0.5009-0.2681 0.6562-0.8396 0.6562h-0.5715l0.4304-1.736c0.05644-0.2328 0.1058-0.2399 0.3387-0.2399h0.8819c0.762 0 0.9384 0.2117 0.9384 0.7126 0 0.1905-0.01411 0.2822-0.03528 0.4516-0.0071 0.03528-0.01411 0.09878-0.01411 0.1199 0 0.08467 0.07761 0.08467 0.1058 0.08467 0.09878 0 0.1058-0.02822 0.1199-0.1552l0.1623-1.249c0.02117-0.1834-0.02117-0.1834-0.1693-0.1834h-3.295c-0.1199 0-0.1905 0-0.1905 0.127 0 0.09172 0.04939 0.09172 0.1905 0.09172 0.4092 0 0.4092 0.05644 0.4092 0.1199 0 0 0 0.05644-0.02822 0.1623l-0.9454 3.782c-0.05644 0.2399-0.09878 0.2963-0.5786 0.2963-0.1129 0-0.1905 0-0.1905 0.1341 0 0.08467 0.0635 0.08467 0.1764 0.08467h3.38c0.1411 0 0.1482-0.0071 0.1976-0.1129l0.6279-1.545c0.0071-0.01411 0.02822-0.08467 0.02822-0.08467z" stroke-width=".2646" style="font-variant-caps:normal;font-variant-east-asian:normal;font-variant-ligatures:normal;font-variant-numeric:normal"/>
  </g>
  <path d="m138.7 105.3 2e-3 -3e-3v-3e-3l2e-3 -3e-3v-3e-3l2e-3 -8e-3 2e-3 -7e-3 3e-3 -8e-3 2e-3 -7e-3 6e-3 -0.024 3e-3 -8e-3 2e-3 -8e-3v-8e-3l4e-3 -0.016v-0.014c0-0.0836-0.0585-0.092-0.1004-0.092-0.0837 0-0.0903 0.0167-0.1255 0.1673l-1.382 5.507c-0.634-0.0753-0.9502-0.3831-0.9502-0.9335 0-0.1656 0-0.3831 0.45-1.549 0.0335-0.1004 0.092-0.2426 0.092-0.4082 0-0.3764-0.2677-0.6842-0.6842-0.6842-0.7913 0-1.099 1.21-1.099 1.283 0 0.0836 0.082 0.0836 0.0987 0.0836 0.0837 0 0.092-0.0167 0.1338-0.1506 0.2242-0.7913 0.5588-1.032 0.8415-1.032 0.0669 0 0.2091 0 0.2091 0.266 0 0.2175-0.0836 0.4249-0.1924 0.7177-0.3998 1.049-0.3998 1.266-0.3998 1.409 0 0.7913 0.6491 1.133 1.45 1.183-0.0669 0.2994-0.0669 0.3162-0.184 0.7578-0.0251 0.092-0.1924 0.7662-0.1924 0.7913 0 8e-3 0 0.0836 0.1004 0.0836 0.0167 0 0.0585 0 0.0753-0.0335 0.0251-0.0167 0.0753-0.2242 0.1004-0.3413 0.1087-0.4082 0.2074-0.8248 0.3162-1.241 0.3095 0 1.042 0 1.825-0.8917 0.3413-0.3831 0.5169-0.7511 0.6089-1 0.0753-0.2074 0.2576-0.9335 0.2576-1.3 0-0.4667-0.2242-0.5838-0.3664-0.5838-0.2074 0-0.4166 0.2175-0.4166 0.4015 0 0.1071 0.0502 0.1573 0.1255 0.2242 0.0903 0.092 0.2994 0.3078 0.2994 0.7076 0 0.5337-0.4333 1.218-0.7244 1.517-0.7344 0.7411-1.266 0.7411-1.568 0.7411z" fill="#a00" stroke-miterlimit="10.43" stroke-width="0"/>
  <g fill="#333" stop-color="#000000" stroke-width=".2646" style="text-decoration-color:#000000;text-decoration-line:none" aria-label="0">
   <path d="m25.83 94.56c0-0.5644-0.03528-1.129-0.2822-1.651-0.3246-0.6773-0.9031-0.7902-1.199-0.7902-0.4233 0-0.9384 0.1834-1.228 0.8396-0.2258 0.4868-0.2611 1.037-0.2611 1.602 0 0.5292 0.02822 1.164 0.3175 1.7 0.3034 0.5715 0.8184 0.7126 1.164 0.7126 0.381 0 0.9172-0.1482 1.228-0.8184 0.2258-0.4868 0.2611-1.037 0.2611-1.595zm-0.5856-0.08467c0 0.5292 0 1.009-0.07761 1.46-0.1058 0.6703-0.508 0.8819-0.8255 0.8819-0.2752 0-0.6914-0.1764-0.8184-0.8537-0.07761-0.4233-0.07761-1.072-0.07761-1.489 0-0.4516 0-0.9172 0.05645-1.298 0.1341-0.8396 0.6632-0.9031 0.8396-0.9031 0.2328 0 0.6985 0.127 0.8326 0.8255 0.07056 0.3951 0.07056 0.9313 0.07056 1.376z" stroke-width=".2646"/>
  </g>
  <path d="m29.53 94.72 34.24 0.1524 0.7484-45.32h34.24l-0.1871 45.16h34.24" fill="none" stroke="#000" stroke-width=".6615"/>
  <g fill="#a00" stop-color="#000000" stroke-width=".2646" style="text-decoration-color:#000000;text-decoration-line:none" aria-label="RE">
   <path d="m27.08 102-0.526-0.7828c0.2692-0.0519 0.4544-0.2 0.4544-0.4766 0-0.3482-0.2988-0.4939-0.6865-0.4939-0.1383 0-0.2766 7e-3 -0.4124 0.0247h-0.1976v1.729h0.2025v-0.8026c0.1333 0.0247 0.2716 0.0395 0.4075 0.0395l0.5161 0.763zm-0.3136-1.259c0 0.2247-0.2099 0.3828-0.4445 0.3828-0.1358 0-0.2741-0.0148-0.4075-0.0395v-0.6988c0.1358-0.0173 0.2716-0.0247 0.4075-0.0247 0.2346 0 0.4445 0.158 0.4445 0.3803z"/>
   <path d="m28.58 102v-0.1136h-1.032v-0.6939h0.7853v-0.1136h-0.7853v-0.6939h0.973v-0.1136h-1.175v1.729z"/>
  </g>
  <g fill="#f33" stop-color="#000000" stroke-width=".2646" style="text-decoration-color:#000000;text-decoration-line:none" aria-label="IM">
   <path d="m25.93 104.9v-1.729h-0.2025v1.729z"/>
   <path d="m28.24 104.9-0.09878-1.729h-0.163l-0.6939 1.459-0.6964-1.459h-0.163l-0.09878 1.729h0.1136l0.07902-1.4 0.6692 1.4h0.09137l0.6766-1.417 0.08149 1.417z"/>
  </g>
 </g>
</svg>
